<?xml version="1.0" encoding="utf-8"?>
<!-- Generator: Adobe Illustrator 21.0.0, SVG Export Plug-In . SVG Version: 6.00 Build 0)  -->
<svg version="1.1" id="Слой_1" xmlns="http://www.w3.org/2000/svg" xmlns:xlink="http://www.w3.org/1999/xlink" x="0px" y="0px"
	 viewBox="0 0 222 45" style="enable-background:new 0 0 222 45;" xml:space="preserve">
<style type="text/css">
	.st0{fill:#48443E;}
	.st1{fill:#E81717;}
	.st2{fill:url(#XMLID_7_);}
	.st3{fill:url(#XMLID_8_);}
	.st4{fill:url(#XMLID_11_);}
</style>
<g>
	<path class="st0" d="M89.6,41c0.8-0.1,1.2-1.1,1.2-2.9v-1.5h3v4.9h-0.7v-4.4h-1.7v0.9c0,2.3-0.6,3.4-1.8,3.5V41z"/>
	<path class="st0" d="M97.7,36.5c1.4,0,2.6,1.1,2.6,2.6c0,1.5-1.2,2.6-2.6,2.6c-1.4,0-2.6-1.1-2.6-2.6
		C95.1,37.6,96.2,36.5,97.7,36.5z M97.7,41c1.1,0,1.9-0.8,1.9-2c0-1.1-0.9-2-1.9-2c-1.1,0-1.9,0.8-1.9,2C95.7,40.2,96.6,41,97.7,41z
		"/>
	<path class="st0" d="M101.5,36.6h2.9v0.6h-2.3v4.4h-0.7V36.6z"/>
	<path class="st0" d="M105.5,36.6h0.6v3.2c0,0.3,0,0.7,0,0.7h0c0,0,0.3-0.5,0.5-0.7l2.4-3.2h0.6v4.9H109v-3.2c0-0.3,0-0.7,0-0.7h0
		c0,0-0.3,0.4-0.5,0.7l-2.4,3.2h-0.6V36.6z"/>
	<path class="st0" d="M113.5,36.5c0.6,0,1.4,0.2,1.8,0.7l-0.3,0.5c-0.3-0.4-0.9-0.6-1.4-0.6c-1.1,0-1.9,0.8-1.9,2c0,1.2,0.8,2,1.9,2
		c0.6,0,1.2-0.2,1.6-0.7l0.3,0.5c-0.4,0.5-1.2,0.8-1.9,0.8c-1.5,0-2.6-1.1-2.6-2.6C110.9,37.5,112.1,36.5,113.5,36.5z"/>
	<path class="st0" d="M117.8,37.2H116v-0.6h4.3v0.6h-1.8v4.3h-0.7V37.2z"/>
	<path class="st0" d="M121.3,36.6h0.6v3.2c0,0.3,0,0.7,0,0.7h0c0,0,0.3-0.5,0.5-0.7l2.4-3.2h0.6v4.9h-0.7v-3.2c0-0.3,0-0.7,0-0.7h0
		c0,0-0.3,0.4-0.5,0.7l-2.4,3.2h-0.6V36.6z"/>
	<path class="st0" d="M127.1,36.6h0.7v2.1h0.8l1.5-2.1h0.8l-1.7,2.3v0l1.9,2.6h-0.8l-1.6-2.3h-0.8v2.3h-0.7V36.6z"/>
	<path class="st0" d="M134.5,38.5h0.3v-0.1c0-1-0.5-1.3-1.2-1.3c-0.5,0-1,0.2-1.4,0.5l-0.3-0.5c0.4-0.3,1.1-0.6,1.7-0.6
		c1.2,0,1.8,0.7,1.8,1.9v3.2h-0.6v-0.6c0-0.2,0-0.4,0-0.4h0c-0.3,0.6-0.9,1.1-1.7,1.1c-0.8,0-1.7-0.5-1.7-1.4
		C131.5,38.6,133.5,38.5,134.5,38.5z M133.3,41.1c1,0,1.5-1,1.5-1.8V39h-0.3c-0.8,0-2.3,0-2.3,1.1C132.1,40.6,132.5,41.1,133.3,41.1
		z"/>
	<path class="st0" d="M137.2,40.7h0.8l-0.7,1.8h-0.6L137.2,40.7z"/>
	<path class="st0" d="M143.2,37.2h-1.8v-0.6h4.3v0.6h-1.8v4.3h-0.7V37.2z"/>
	<path class="st0" d="M149.2,38.5h0.3v-0.1c0-1-0.5-1.3-1.2-1.3c-0.5,0-1,0.2-1.4,0.5l-0.3-0.5c0.4-0.3,1.1-0.6,1.7-0.6
		c1.2,0,1.8,0.7,1.8,1.9v3.2h-0.6v-0.6c0-0.2,0-0.4,0-0.4h0c-0.3,0.6-0.9,1.1-1.7,1.1c-0.8,0-1.7-0.5-1.7-1.4
		C146.2,38.6,148.3,38.5,149.2,38.5z M148,41.1c1,0,1.5-1,1.5-1.8V39h-0.3c-0.8,0-2.3,0-2.3,1.1C146.9,40.6,147.3,41.1,148,41.1z"/>
	<path class="st0" d="M151.9,36.6h0.7l1.5,3c0.1,0.3,0.3,0.7,0.3,0.7h0c0,0,0.2-0.4,0.3-0.7l1.5-3h0.7l0.4,4.9h-0.7l-0.2-3.2
		c0-0.3,0-0.9,0-0.9h0c0,0-0.1,0.3-0.3,0.7l-1.4,2.8h-0.6l-1.4-2.7c-0.2-0.4-0.3-0.7-0.3-0.7h0c0,0,0,0.6,0,0.9l-0.2,3.2h-0.6
		L151.9,36.6z"/>
	<path class="st0" d="M161,36.5c1.4,0,2.6,1.1,2.6,2.6c0,1.5-1.2,2.6-2.6,2.6c-1.4,0-2.6-1.1-2.6-2.6
		C158.4,37.6,159.6,36.5,161,36.5z M161,41c1.1,0,1.9-0.8,1.9-2c0-1.1-0.9-2-1.9-2c-1.1,0-1.9,0.8-1.9,2C159.1,40.2,160,41,161,41z"
		/>
	<path class="st0" d="M165.8,39L165.8,39l-1.5-2.4h0.7l1.3,2.1h0.8v-2.1h0.6v2.1h0.8l1.3-2.1h0.7l-1.5,2.4v0l1.7,2.5H170l-1.4-2.2
		h-0.8v2.2h-0.6v-2.2h-0.8l-1.5,2.2h-0.8L165.8,39z"/>
	<path class="st0" d="M171.8,36.6h0.7v2.1h2.9v-2.1h0.7v4.9h-0.7v-2.2h-2.9v2.2h-0.7V36.6z"/>
	<path class="st0" d="M178.3,39.8c0.1-0.2,0.2-0.3,0.2-0.3v0c-0.6-0.1-1.1-0.6-1.1-1.4c0-1,0.7-1.5,1.7-1.5h1.7v4.9h-0.7v-1.9h-1
		l-1.3,1.9h-0.8L178.3,39.8z M180.2,39.1v-2h-0.9c-0.7,0-1.2,0.3-1.2,1c0,0.7,0.5,1,1.1,1H180.2z"/>
	<path class="st0" d="M182.6,40.7h0.8l-0.7,1.8h-0.6L182.6,40.7z"/>
	<path class="st0" d="M187.3,40.5c0.2,0.2,0.7,0.6,1.3,0.6c0.6,0,1.2-0.3,1.2-1c0-0.6-0.4-0.9-1.2-0.9H188v-0.5h0.5
		c0.7,0,1.1-0.3,1.1-0.8c0-0.6-0.4-0.8-1-0.8c-0.5,0-0.9,0.2-1.2,0.4l-0.3-0.5c0.3-0.3,0.9-0.5,1.6-0.5c0.9,0,1.6,0.4,1.6,1.3
		c0,0.6-0.3,1-0.8,1.1v0c0.5,0.1,0.9,0.5,0.9,1.2c0,1-0.9,1.5-1.8,1.5c-0.8,0-1.4-0.4-1.7-0.7L187.3,40.5z"/>
	<path class="st0" d="M194.4,38.5h0.3v-0.1c0-1-0.5-1.3-1.2-1.3c-0.5,0-1,0.2-1.4,0.5l-0.3-0.5c0.4-0.3,1.1-0.6,1.7-0.6
		c1.2,0,1.8,0.7,1.8,1.9v3.2h-0.6v-0.6c0-0.2,0-0.4,0-0.4h0c-0.3,0.6-0.9,1.1-1.7,1.1c-0.8,0-1.7-0.5-1.7-1.4
		C191.3,38.6,193.4,38.5,194.4,38.5z M193.1,41.1c1,0,1.5-1,1.5-1.8V39h-0.3c-0.8,0-2.3,0-2.3,1.1C192,40.6,192.4,41.1,193.1,41.1z"
		/>
	<path class="st0" d="M196.8,36.6h0.7v2.1h0.8l1.5-2.1h0.8l-1.7,2.3v0l1.9,2.6H200l-1.6-2.3h-0.8v2.3h-0.7V36.6z"/>
	<path class="st0" d="M201.9,43c0.4,0,0.7-0.4,0.9-0.8l0.3-0.7l-2-4.9h0.7l1.4,3.6c0.1,0.2,0.2,0.5,0.2,0.5h0c0,0,0.1-0.3,0.2-0.5
		l1.4-3.6h0.7l-2.4,6c-0.3,0.6-0.8,1-1.4,1c-0.5,0-0.9-0.3-0.9-0.3l0.3-0.5C201.4,42.8,201.6,43,201.9,43z"/>
	<path class="st0" d="M206.9,36.6h4.1v4.9h-0.7v-4.3h-2.8v4.3h-0.7V36.6z"/>
	<path class="st0" d="M212.6,36.6h0.7v2.1h0.8l1.5-2.1h0.8l-1.7,2.3v0l1.9,2.6h-0.8l-1.6-2.3h-0.8v2.3h-0.7V36.6z"/>
	<path class="st0" d="M217.4,36.6h0.6v3.2c0,0.3,0,0.7,0,0.7h0c0,0,0.3-0.5,0.5-0.7l2.4-3.2h0.6v4.9H221v-3.2c0-0.3,0-0.7,0-0.7h0
		c0,0-0.3,0.4-0.5,0.7l-2.4,3.2h-0.6V36.6z"/>
</g>
<g>
	<path d="M116.9,5.8l-5.6,19.6h-3.2l-4.7-14.2l-4.7,14.2h-3.2L89.6,5.8h3.9l4,14l4.4-14h3.4l4.5,14l3.9-14H116.9z"/>
	<path d="M118.1,23.8c-1.3-1.2-1.9-2.8-1.9-4.8c0-1.9,0.6-3.5,1.9-4.8c1.3-1.2,2.9-1.9,5-1.9c2.1,0,3.7,0.6,5,1.9
		c1.3,1.2,1.9,2.8,1.9,4.8c0,1.9-0.6,3.5-1.9,4.8c-1.3,1.2-2.9,1.9-5,1.9C121,25.7,119.4,25.1,118.1,23.8z M119.7,19.1
		c0,1,0.3,1.9,1,2.6c0.6,0.7,1.5,1,2.5,1c1,0,1.8-0.3,2.5-1c0.6-0.7,1-1.5,1-2.6c0-1-0.3-1.9-1-2.6c-0.7-0.7-1.5-1-2.5-1
		c-1,0-1.8,0.3-2.4,1C120,17.1,119.7,18,119.7,19.1z"/>
	<path d="M133.9,23.8c-1.3-1.2-1.9-2.8-1.9-4.8c0-1.9,0.6-3.5,1.9-4.8c1.3-1.2,2.9-1.9,5-1.9c2.1,0,3.7,0.6,5,1.9
		c1.3,1.2,1.9,2.8,1.9,4.8c0,1.9-0.6,3.5-1.9,4.8c-1.3,1.2-2.9,1.9-5,1.9C136.8,25.7,135.1,25.1,133.9,23.8z M135.4,19.1
		c0,1,0.3,1.9,1,2.6c0.6,0.7,1.5,1,2.5,1c1,0,1.8-0.3,2.5-1c0.6-0.7,1-1.5,1-2.6c0-1-0.3-1.9-1-2.6c-0.7-0.7-1.5-1-2.5-1
		c-1,0-1.8,0.3-2.4,1C135.7,17.1,135.4,18,135.4,19.1z"/>
	<path d="M157.3,25.4v-1.3c-1,1-2.2,1.5-3.6,1.5c-1.8,0-3.2-0.6-4.3-1.8s-1.6-2.7-1.6-4.6c0-2,0.6-3.6,1.9-4.9s3-1.9,5-1.9
		c1.1,0,1.9,0.2,2.6,0.6V5.8h3.2v19.6H157.3z M154.3,22.6c1.1,0,2.1-0.4,2.9-1.3v-5.1c-0.8-0.5-1.6-0.8-2.5-0.8c-1,0-1.9,0.3-2.6,1
		c-0.7,0.6-1.1,1.5-1.1,2.6c0,1.1,0.3,1.9,0.9,2.6C152.7,22.3,153.4,22.6,154.3,22.6z"/>
	<path d="M164.1,24.3V5.8h3.2v7.8c0.9-0.7,2-1.1,3.3-1.1c1.8,0,3.3,0.6,4.4,1.8c1.1,1.2,1.6,2.7,1.6,4.6c0,2.1-0.6,3.7-1.9,5
		c-1.3,1.2-3,1.8-5.3,1.8c-1,0-2-0.1-3-0.4C165.5,25,164.7,24.7,164.1,24.3z M169.9,15.5c-1,0-1.9,0.4-2.6,1.2V22
		c0.7,0.4,1.4,0.6,2.3,0.6c1,0,1.9-0.3,2.6-1c0.7-0.6,1-1.5,1-2.6c0-1.2-0.3-2.1-0.9-2.7C171.6,15.8,170.8,15.5,169.9,15.5z"/>
	<path d="M180.4,16l-0.8-2.4c1.4-0.8,2.8-1.2,4.5-1.2c1.8,0,3.1,0.4,3.9,1.3c0.8,0.9,1.2,2.2,1.2,3.9v7.7h-2.8v-1.5
		c-0.8,1.1-2,1.6-3.7,1.6c-1.2,0-2.1-0.3-2.9-1c-0.7-0.7-1.1-1.6-1.1-2.8c0-1.3,0.4-2.3,1.3-3c0.9-0.7,2-1.1,3.3-1.1
		c1.2,0,2.1,0.3,2.9,0.8c0-1.1-0.1-1.9-0.5-2.5c-0.4-0.5-1-0.8-1.9-0.8C182.8,15.1,181.7,15.4,180.4,16z M183.6,22.8
		c1.1,0,1.9-0.4,2.4-1.1v-1.3c-0.5-0.4-1.3-0.6-2.2-0.6c-0.6,0-1.1,0.1-1.4,0.4c-0.4,0.3-0.6,0.7-0.6,1.2c0,0.5,0.2,0.8,0.5,1.1
		C182.7,22.7,183.1,22.8,183.6,22.8z"/>
	<path d="M190.8,27.1c0-1,0.4-1.8,1.1-2.5c0.7-0.7,1.7-1.1,3-1.4c-0.2-0.3-0.2-0.6-0.2-0.9c0-0.4,0.1-0.7,0.3-0.9
		c-0.9-0.4-1.7-0.9-2.2-1.7c-0.5-0.8-0.8-1.6-0.8-2.5c0-1.3,0.5-2.4,1.5-3.3c1-0.9,2.3-1.4,3.9-1.4c1.2,0,2.3,0.3,3.2,0.9l3.8-0.8
		l0.1,2.6l-2.1,0.5c0.2,0.5,0.3,1.1,0.3,1.6c0,1.3-0.5,2.4-1.5,3.3c-1,0.9-2.3,1.4-3.9,1.4h-0.2c0,0.1-0.1,0.3-0.1,0.5
		c0,0.2,0.1,0.5,0.2,0.6h0.1c1.9,0,3.5,0.3,4.7,1c1.2,0.7,1.8,1.7,1.8,3.1c0,1.4-0.6,2.4-1.8,3.1c-1.2,0.7-2.8,1-4.7,1
		c-2,0-3.5-0.3-4.8-1C191.4,29.5,190.8,28.5,190.8,27.1z M193.8,27.1c0,0.5,0.3,0.9,1,1.1c0.6,0.3,1.5,0.4,2.6,0.4
		c2.4,0,3.5-0.5,3.5-1.5c0-0.5-0.3-0.8-0.9-1.1c-0.6-0.3-1.5-0.4-2.6-0.4c-1.1,0-2,0.1-2.6,0.4C194.1,26.2,193.8,26.6,193.8,27.1z
		 M195.6,15.7c-0.4,0.4-0.6,0.9-0.6,1.5c0,0.6,0.2,1.1,0.6,1.5c0.4,0.4,1,0.6,1.7,0.6c0.7,0,1.3-0.2,1.7-0.6
		c0.4-0.4,0.7-0.9,0.7-1.5c0-0.6-0.2-1.1-0.6-1.5c-0.4-0.4-1-0.6-1.7-0.6C196.6,15.1,196,15.3,195.6,15.7z"/>
</g>
<g id="XMLID_2_">
	<g id="XMLID_3_">
		<path id="XMLID_10_" class="st1" d="M30.8,36.7l-12.4-30h0c-0.1-0.4-0.3-0.7-0.5-1.1l-0.1-0.2l0,0c0-0.1-0.1-0.1-0.1-0.2
			c-1.2-3-4.3-5.2-7.9-5.2c-0.2,0-0.4,0-0.6,0c-0.2,0-0.4,0-0.6,0c-3,0-5.7,1.2-7.6,3.2l7.2,17.9l7.1,17.2h0
			c0.1,0.4,0.3,0.7,0.5,1.1l0.1,0.2C15.8,39.7,31.4,37.7,30.8,36.7z"/>
		<g id="XMLID_5_">
			<linearGradient id="XMLID_7_" gradientUnits="userSpaceOnUse" x1="55.1699" y1="36.0878" x2="45.5718" y2="12.7323">
				<stop  offset="0" style="stop-color:#E81717"/>
				<stop  offset="1" style="stop-color:#AB0D07"/>
			</linearGradient>
			<path id="XMLID_9_" class="st2" d="M51.9,8.3c-1.6-3.9-4.8-6.7-8.7-7.7L35.6,8l12.2,30l3.1,2.7l12-5.3L51.9,8.3z"/>
			<linearGradient id="XMLID_8_" gradientUnits="userSpaceOnUse" x1="24.7756" y1="44.1627" x2="34.0546" y2="20.4853">
				<stop  offset="0" style="stop-color:#AB0D07"/>
				<stop  offset="1" style="stop-color:#E81717"/>
			</linearGradient>
			<path id="XMLID_6_" class="st3" d="M41.4,0.1c-0.2,0-0.4,0-0.6,0c-0.2,0-0.4,0-0.6,0c-3.6,0-6.7,2.1-7.9,5.2
				c0,0.1-0.1,0.1-0.1,0.2l0,0l-0.1,0.2c-0.2,0.4-0.3,0.7-0.5,1.1h0L19.4,36.4c-0.1,0.3-0.3,0.7-0.6,0.9c-0.6,0.6-1.5,1-2.4,1
				c-0.5,0-0.9-0.1-1.3-0.3l0,0c1.3,4.1,5.2,7,9.9,7c0.2,0,0.4,0,0.6,0c0.2,0,0.4,0,0.6,0c3.6,0,6.7-2.1,7.9-5.2
				c0-0.1,0.1-0.1,0.1-0.2l0,0l0.1-0.2c0.2-0.4,0.4-0.7,0.5-1.1h0L47,8.8c0.1-0.3,0.3-0.7,0.6-0.9c0.6-0.6,1.5-1,2.4-1
				c0.5,0,1,0.1,1.4,0.3l0,0C50.1,3.1,46.1,0.1,41.4,0.1z"/>
		</g>
		<linearGradient id="XMLID_11_" gradientUnits="userSpaceOnUse" x1="55.9099" y1="43.5466" x2="65.1877" y2="19.8723">
			<stop  offset="0" style="stop-color:#AB0D07"/>
			<stop  offset="1" style="stop-color:#E81717"/>
		</linearGradient>
		<path id="XMLID_4_" class="st4" d="M73.9,22.9L73.9,22.9l6-14.5c0,0,0,0,0,0l2-4.9c-1.9-2.1-4.7-3.4-7.8-3.4c-0.2,0-0.4,0-0.6,0
			c-0.2,0-0.4,0-0.6,0c-3.6,0-6.7,2.1-7.9,5.2c0,0.1-0.1,0.1-0.1,0.2l0,0l-0.1,0.2c-0.2,0.4-0.3,0.7-0.5,1.1h0L52,36.7
			c-0.6,1-1.7,1.6-2.8,1.6c-0.5,0-0.9-0.1-1.3-0.3l0,0c1.3,4.1,5.2,7,9.9,7c0.2,0,0.4,0,0.6,0c0.2,0,0.4,0,0.6,0
			c3.6,0,6.7-2.1,7.9-5.2c0-0.1,0.1-0.1,0.1-0.2l0,0l0.1-0.2c0.2-0.3,0.4-0.7,0.5-1.1h0L73.9,22.9L73.9,22.9z"/>
	</g>
</g>
</svg>
