<?xml version="1.0" encoding="utf-8"?>
<!-- Generator: Adobe Illustrator 24.3.0, SVG Export Plug-In . SVG Version: 6.00 Build 0)  -->
<svg version="1.1" id="Слой_1" xmlns="http://www.w3.org/2000/svg" xmlns:xlink="http://www.w3.org/1999/xlink" x="0px" y="0px"
	 viewBox="0 0 95 68" style="enable-background:new 0 0 95 68;" xml:space="preserve">
<style type="text/css">
	.st0{fill:#E81717;}
	.st1{fill:url(#XMLID_2_);}
	.st2{fill:url(#XMLID_3_);}
	.st3{fill:url(#XMLID_4_);}
</style>
<g>
	<path d="M26.1,40.6l-4,14h-2.3l-3.4-10.1l-3.3,10.1h-2.3l-4.2-14h2.8l2.8,10l3.1-10h2.4l3.2,10l2.8-10H26.1z"/>
	<path d="M26.9,53.5c-0.9-0.9-1.4-2-1.4-3.4s0.5-2.5,1.4-3.4s2.1-1.3,3.5-1.3c1.5,0,2.6,0.4,3.5,1.3c0.9,0.9,1.3,2,1.3,3.4
		s-0.4,2.5-1.3,3.4c-0.9,0.9-2.1,1.3-3.5,1.3C29,54.9,27.8,54.4,26.9,53.5z M28,50.1c0,0.7,0.2,1.4,0.7,1.9s1,0.7,1.8,0.7
		c0.7,0,1.3-0.2,1.8-0.7s0.7-1.1,0.7-1.9c0-0.7-0.2-1.4-0.7-1.8c-0.5-0.5-1.1-0.7-1.8-0.7c-0.7,0-1.3,0.2-1.7,0.7
		C28.3,48.8,28,49.4,28,50.1z"/>
	<path d="M38.2,53.5c-0.9-0.9-1.4-2-1.4-3.4s0.5-2.5,1.4-3.4s2.1-1.3,3.5-1.3s2.6,0.4,3.5,1.3c0.9,0.9,1.3,2,1.3,3.4
		s-0.4,2.5-1.3,3.4c-0.9,0.9-2.1,1.3-3.5,1.3S39.1,54.4,38.2,53.5z M39.3,50.1c0,0.7,0.2,1.4,0.7,1.9s1,0.7,1.8,0.7
		c0.7,0,1.3-0.2,1.8-0.7s0.7-1.1,0.7-1.9c0-0.7-0.2-1.4-0.7-1.8c-0.5-0.5-1.1-0.7-1.8-0.7s-1.3,0.2-1.7,0.7
		C39.5,48.8,39.3,49.4,39.3,50.1z"/>
	<path d="M54.9,54.6v-0.9c-0.7,0.7-1.6,1.1-2.6,1.1c-1.3,0-2.3-0.4-3.1-1.3c-0.8-0.8-1.2-1.9-1.2-3.3c0-1.4,0.5-2.6,1.4-3.5
		s2.1-1.4,3.6-1.4c0.8,0,1.4,0.1,1.9,0.4v-5.2h2.3v14h-2.3V54.6z M52.8,52.7c0.8,0,1.5-0.3,2.1-0.9v-3.6c-0.6-0.4-1.2-0.5-1.8-0.5
		c-0.7,0-1.3,0.2-1.8,0.7s-0.8,1.1-0.8,1.9c0,0.8,0.2,1.4,0.7,1.8C51.6,52.4,52.1,52.7,52.8,52.7z"/>
	<path d="M59.7,53.9V40.6H62v5.6c0.7-0.5,1.5-0.8,2.4-0.8c1.3,0,2.4,0.4,3.1,1.3c0.8,0.8,1.2,2,1.2,3.3c0,1.5-0.5,2.7-1.4,3.5
		c-0.9,0.9-2.2,1.3-3.7,1.3c-0.7,0-1.4-0.1-2.1-0.3C60.7,54.4,60.2,54.1,59.7,53.9z M63.9,47.6c-0.7,0-1.3,0.3-1.8,0.9v3.8
		c0.5,0.3,1,0.5,1.6,0.5c0.7,0,1.4-0.2,1.8-0.7c0.5-0.5,0.7-1.1,0.7-1.9c0-0.8-0.2-1.5-0.7-1.9C65.1,47.8,64.6,47.6,63.9,47.6z"/>
	<path d="M71.4,48l-0.6-1.7c1-0.6,2-0.9,3.2-0.9c1.3,0,2.2,0.3,2.8,0.9c0.6,0.6,0.8,1.6,0.8,2.8v5.5h-2v-1c-0.5,0.8-1.4,1.2-2.7,1.2
		c-0.8,0-1.5-0.2-2-0.7s-0.8-1.2-0.8-2c0-0.9,0.3-1.7,0.9-2.2s1.4-0.8,2.4-0.8c0.8,0,1.5,0.2,2,0.6c0-0.8-0.1-1.4-0.3-1.8
		c-0.3-0.4-0.7-0.6-1.3-0.6C73.1,47.3,72.3,47.5,71.4,48z M73.7,52.8c0.8,0,1.4-0.3,1.7-0.8v-0.9c-0.4-0.3-0.9-0.4-1.6-0.4
		c-0.4,0-0.8,0.1-1,0.3c-0.3,0.2-0.4,0.5-0.4,0.8s0.1,0.6,0.4,0.8C73,52.7,73.3,52.8,73.7,52.8z"/>
	<path d="M78.8,55.9c0-0.7,0.3-1.3,0.8-1.8s1.2-0.8,2.1-1c-0.1-0.2-0.2-0.4-0.2-0.6c0-0.3,0.1-0.5,0.2-0.6c-0.7-0.3-1.2-0.7-1.6-1.2
		s-0.6-1.1-0.6-1.8c0-0.9,0.4-1.7,1.1-2.4s1.6-1,2.8-1c0.9,0,1.6,0.2,2.3,0.6l2.7-0.6l0.1,1.8L87,47.6c0.1,0.4,0.2,0.8,0.2,1.2
		c0,0.9-0.4,1.7-1.1,2.3s-1.6,1-2.8,1h-0.2c0,0.1,0,0.2,0,0.3c0,0.2,0,0.3,0.1,0.5h0.1c1.4,0,2.5,0.2,3.4,0.7s1.3,1.2,1.3,2.2
		s-0.4,1.7-1.3,2.2s-2,0.7-3.4,0.7s-2.5-0.2-3.4-0.7C79.2,57.6,78.8,56.8,78.8,55.9z M80.9,55.9c0,0.3,0.2,0.6,0.7,0.8
		s1.1,0.3,1.9,0.3c1.7,0,2.5-0.4,2.5-1.1c0-0.3-0.2-0.6-0.6-0.8s-1.1-0.3-1.9-0.3s-1.4,0.1-1.9,0.3C81.1,55.3,80.9,55.5,80.9,55.9z
		 M82.2,47.7c-0.3,0.3-0.5,0.7-0.5,1.1c0,0.4,0.2,0.8,0.5,1c0.3,0.3,0.7,0.4,1.2,0.4s0.9-0.1,1.2-0.4c0.3-0.3,0.5-0.6,0.5-1.1
		c0-0.4-0.2-0.8-0.4-1.1c-0.3-0.3-0.7-0.4-1.2-0.4C82.9,47.3,82.5,47.4,82.2,47.7z"/>
</g>
<g id="XMLID_15_">
	<g id="XMLID_716_">
		<path id="XMLID_633_" class="st0" d="M39.9,26.1L31.1,4.7l0,0c-0.1-0.3-0.2-0.5-0.3-0.8l-0.1-0.1l0,0c0,0,0-0.1-0.1-0.1
			C29.8,1.5,27.6,0,25,0c-0.1,0-0.3,0-0.4,0s-0.3,0-0.5,0C22,0,20,0.9,18.7,2.3l5.1,12.8l5.1,12.2l0,0c0.1,0.3,0.2,0.5,0.3,0.8
			l0.1,0.1C29.3,28.2,40.3,26.8,39.9,26.1z"/>
		<g id="XMLID_623_">
			
				<linearGradient id="XMLID_2_" gradientUnits="userSpaceOnUse" x1="57.3508" y1="44.3528" x2="50.5007" y2="61.0215" gradientTransform="matrix(1 0 0 -1 0 70)">
				<stop  offset="0" style="stop-color:#E81717"/>
				<stop  offset="1" style="stop-color:#AB0D07"/>
			</linearGradient>
			<path id="XMLID_631_" class="st1" d="M55,5.8C53.9,3,51.6,1,48.8,0.3l-5.4,5.3L52.1,27l2.2,2l8.6-3.8L55,5.8z"/>
			
				<linearGradient id="XMLID_3_" gradientUnits="userSpaceOnUse" x1="35.6314" y1="38.5921" x2="42.2537" y2="55.4906" gradientTransform="matrix(1 0 0 -1 0 70)">
				<stop  offset="0" style="stop-color:#AB0D07"/>
				<stop  offset="1" style="stop-color:#E81717"/>
			</linearGradient>
			<path id="XMLID_629_" class="st2" d="M47.5,0c-0.2,0-0.3,0-0.5,0c-0.1,0-0.3,0-0.4,0C44,0,41.8,1.5,41,3.7c0,0,0,0.1-0.1,0.1l0,0
				l-0.1,0.1c-0.1,0.2-0.2,0.5-0.3,0.8l0,0l-8.7,21.2c-0.1,0.2-0.2,0.5-0.4,0.7c-0.4,0.5-1.1,0.7-1.7,0.7c-0.3,0-0.7-0.1-1-0.2l0,0
				c0.9,2.9,3.7,5,7.1,5c0.2,0,0.3,0,0.5,0c0.1,0,0.3,0,0.4,0c2.6,0,4.8-1.5,5.6-3.7c0,0,0-0.1,0.1-0.1l0,0l0.1-0.1
				c0.1-0.3,0.2-0.5,0.3-0.8l0,0l8.7-21.2c0.1-0.2,0.2-0.5,0.4-0.7C52.4,5,53,4.8,53.6,4.8c0.3,0,0.7,0.1,1,0.2l0,0
				C53.7,2.1,50.9,0,47.5,0z"/>
		</g>
		
			<linearGradient id="XMLID_4_" gradientUnits="userSpaceOnUse" x1="57.8716" y1="39.024" x2="64.4931" y2="55.9203" gradientTransform="matrix(1 0 0 -1 0 70)">
			<stop  offset="0" style="stop-color:#AB0D07"/>
			<stop  offset="1" style="stop-color:#E81717"/>
		</linearGradient>
		<path id="XMLID_632_" class="st3" d="M70.7,16.3L70.7,16.3L75,5.9l0,0l1.4-3.5C75.1,0.9,73.1,0,70.9,0c-0.2,0-0.3,0-0.5,0
			c-0.1,0-0.3,0-0.4,0c-2.6,0-4.8,1.5-5.6,3.7c0,0,0,0.1-0.1,0.1l0,0l-0.1,0.1c-0.1,0.2-0.2,0.5-0.3,0.8l0,0l-8.8,21.4
			c-0.4,0.7-1.2,1.1-2,1.1c-0.3,0-0.7-0.1-1-0.2l0,0c0.9,2.9,3.7,5,7.1,5c0.2,0,0.3,0,0.5,0c0.1,0,0.3,0,0.4,0
			c2.6,0,4.8-1.5,5.6-3.7c0,0,0-0.1,0.1-0.1l0,0l0.1-0.1c0.1-0.2,0.2-0.5,0.3-0.8l0,0L70.7,16.3L70.7,16.3z"/>
	</g>
</g>
</svg>
