<?xml version="1.0" encoding="utf-8"?>
<!-- Generator: Adobe Illustrator 21.0.0, SVG Export Plug-In . SVG Version: 6.00 Build 0)  -->
<svg version="1.1" id="Слой_1" xmlns="http://www.w3.org/2000/svg" xmlns:xlink="http://www.w3.org/1999/xlink" x="0px" y="0px"
	 viewBox="0 0 146 33" style="enable-background:new 0 0 146 33;" xml:space="preserve">
<style type="text/css">
	.st0{fill:#E81717;}
	.st1{fill:url(#XMLID_7_);}
	.st2{fill:url(#XMLID_8_);}
	.st3{fill:url(#XMLID_11_);}
</style>
<g>
	<g>
		<path d="M82,10.5l-4,14h-2.3l-3.4-10.1L69,24.5h-2.3l-4.2-14h2.8l2.8,10l3.1-10h2.4l3.2,10l2.8-10H82z"/>
		<path d="M82.9,23.4c-0.9-0.9-1.4-2-1.4-3.4c0-1.4,0.5-2.5,1.4-3.4c0.9-0.9,2.1-1.3,3.5-1.3c1.5,0,2.6,0.4,3.5,1.3
			c0.9,0.9,1.3,2,1.3,3.4c0,1.4-0.4,2.5-1.3,3.4c-0.9,0.9-2.1,1.3-3.5,1.3C85,24.7,83.8,24.3,82.9,23.4z M84,20
			c0,0.7,0.2,1.4,0.7,1.9c0.5,0.5,1,0.7,1.8,0.7c0.7,0,1.3-0.2,1.8-0.7c0.5-0.5,0.7-1.1,0.7-1.9c0-0.7-0.2-1.4-0.7-1.8
			c-0.5-0.5-1.1-0.7-1.8-0.7c-0.7,0-1.3,0.2-1.7,0.7C84.2,18.6,84,19.3,84,20z"/>
		<path d="M94.1,23.4c-0.9-0.9-1.4-2-1.4-3.4c0-1.4,0.5-2.5,1.4-3.4c0.9-0.9,2.1-1.3,3.5-1.3c1.5,0,2.6,0.4,3.5,1.3
			c0.9,0.9,1.3,2,1.3,3.4c0,1.4-0.4,2.5-1.3,3.4c-0.9,0.9-2.1,1.3-3.5,1.3C96.2,24.7,95,24.3,94.1,23.4z M95.2,20
			c0,0.7,0.2,1.4,0.7,1.9c0.5,0.5,1,0.7,1.8,0.7c0.7,0,1.3-0.2,1.8-0.7c0.5-0.5,0.7-1.1,0.7-1.9c0-0.7-0.2-1.4-0.7-1.8
			c-0.5-0.5-1.1-0.7-1.8-0.7c-0.7,0-1.3,0.2-1.7,0.7C95.5,18.6,95.2,19.3,95.2,20z"/>
		<path d="M110.8,24.5v-0.9c-0.7,0.7-1.6,1.1-2.6,1.1c-1.3,0-2.3-0.4-3.1-1.3s-1.2-1.9-1.2-3.3c0-1.4,0.5-2.6,1.4-3.5
			c0.9-0.9,2.1-1.4,3.6-1.4c0.8,0,1.4,0.1,1.9,0.4v-5.2h2.3v14H110.8z M108.7,22.5c0.8,0,1.5-0.3,2.1-0.9V18
			c-0.6-0.4-1.2-0.5-1.8-0.5c-0.7,0-1.3,0.2-1.8,0.7c-0.5,0.5-0.8,1.1-0.8,1.9c0,0.8,0.2,1.4,0.7,1.8
			C107.6,22.3,108.1,22.5,108.7,22.5z"/>
		<path d="M115.7,23.7V10.5h2.3v5.6c0.7-0.5,1.5-0.8,2.4-0.8c1.3,0,2.4,0.4,3.1,1.3c0.8,0.8,1.2,2,1.2,3.3c0,1.5-0.5,2.7-1.4,3.5
			c-0.9,0.9-2.2,1.3-3.8,1.3c-0.7,0-1.4-0.1-2.1-0.3C116.7,24.2,116.1,24,115.7,23.7z M119.8,17.5c-0.7,0-1.3,0.3-1.8,0.9v3.8
			c0.5,0.3,1,0.5,1.6,0.5c0.7,0,1.4-0.2,1.8-0.7c0.5-0.5,0.7-1.1,0.7-1.9c0-0.8-0.2-1.5-0.7-1.9C121.1,17.7,120.5,17.5,119.8,17.5z"
			/>
		<path d="M127.4,17.8l-0.6-1.7c1-0.6,2-0.9,3.2-0.9c1.3,0,2.2,0.3,2.8,0.9c0.6,0.6,0.8,1.6,0.8,2.8v5.5h-2v-1
			c-0.5,0.8-1.4,1.2-2.7,1.2c-0.8,0-1.5-0.2-2-0.7c-0.5-0.5-0.8-1.2-0.8-2c0-0.9,0.3-1.7,0.9-2.2c0.6-0.5,1.4-0.8,2.4-0.8
			c0.8,0,1.5,0.2,2,0.6c0-0.8-0.1-1.4-0.3-1.8c-0.3-0.4-0.7-0.6-1.3-0.6C129,17.2,128.3,17.4,127.4,17.8z M129.7,22.7
			c0.8,0,1.4-0.3,1.7-0.8V21c-0.4-0.3-0.9-0.4-1.6-0.4c-0.4,0-0.8,0.1-1,0.3c-0.3,0.2-0.4,0.5-0.4,0.8c0,0.3,0.1,0.6,0.4,0.8
			C129,22.6,129.3,22.7,129.7,22.7z"/>
		<path d="M134.7,25.7c0-0.7,0.3-1.3,0.8-1.8c0.5-0.5,1.2-0.8,2.1-1c-0.1-0.2-0.2-0.4-0.2-0.6c0-0.3,0.1-0.5,0.2-0.6
			c-0.7-0.3-1.2-0.7-1.6-1.2c-0.4-0.5-0.6-1.1-0.6-1.8c0-0.9,0.4-1.7,1.1-2.4c0.7-0.7,1.6-1,2.8-1c0.9,0,1.6,0.2,2.3,0.6l2.7-0.6
			l0.1,1.8l-1.5,0.3c0.1,0.4,0.2,0.8,0.2,1.2c0,0.9-0.4,1.7-1.1,2.3c-0.7,0.6-1.6,1-2.8,1h-0.2c0,0.1,0,0.2,0,0.3
			c0,0.2,0,0.3,0.1,0.5h0.1c1.4,0,2.5,0.2,3.4,0.7c0.9,0.5,1.3,1.2,1.3,2.2c0,1-0.4,1.7-1.3,2.2c-0.9,0.5-2,0.7-3.4,0.7
			c-1.4,0-2.5-0.2-3.4-0.7C135.2,27.5,134.7,26.7,134.7,25.7z M136.9,25.7c0,0.3,0.2,0.6,0.7,0.8c0.5,0.2,1.1,0.3,1.9,0.3
			c1.7,0,2.5-0.4,2.5-1.1c0-0.3-0.2-0.6-0.6-0.8c-0.4-0.2-1.1-0.3-1.9-0.3c-0.8,0-1.4,0.1-1.9,0.3C137.1,25.1,136.9,25.4,136.9,25.7
			z M138.2,17.6c-0.3,0.3-0.5,0.7-0.5,1.1c0,0.4,0.2,0.8,0.5,1c0.3,0.3,0.7,0.4,1.2,0.4c0.5,0,0.9-0.1,1.2-0.4
			c0.3-0.3,0.5-0.6,0.5-1.1c0-0.4-0.2-0.8-0.4-1.1c-0.3-0.3-0.7-0.4-1.2-0.4C138.9,17.2,138.5,17.3,138.2,17.6z"/>
	</g>
	<g id="XMLID_2_">
		<g id="XMLID_3_">
			<path id="XMLID_10_" class="st0" d="M21.6,26.6L12.7,5.2h0c-0.1-0.3-0.2-0.5-0.3-0.8l-0.1-0.1l0,0c0,0,0-0.1-0.1-0.1
				c-0.9-2.2-3-3.7-5.6-3.7c-0.1,0-0.3,0-0.4,0c-0.2,0-0.3,0-0.5,0c-2.2,0-4.1,0.9-5.5,2.3l5.1,12.8l5.1,12.2h0
				c0.1,0.3,0.2,0.5,0.3,0.8l0.1,0.1C10.9,28.7,22,27.3,21.6,26.6z"/>
			<g id="XMLID_5_">
				<linearGradient id="XMLID_7_" gradientUnits="userSpaceOnUse" x1="38.9596" y1="26.1594" x2="32.1095" y2="9.4907">
					<stop  offset="0" style="stop-color:#E81717"/>
					<stop  offset="1" style="stop-color:#AB0D07"/>
				</linearGradient>
				<path id="XMLID_9_" class="st1" d="M36.6,6.3c-1.1-2.8-3.4-4.8-6.2-5.5L25,6.1l8.7,21.4l2.2,2l8.6-3.8L36.6,6.3z"/>
				<linearGradient id="XMLID_8_" gradientUnits="userSpaceOnUse" x1="17.2674" y1="31.9224" x2="23.8897" y2="15.0239">
					<stop  offset="0" style="stop-color:#AB0D07"/>
					<stop  offset="1" style="stop-color:#E81717"/>
				</linearGradient>
				<path id="XMLID_6_" class="st2" d="M29.1,0.5c-0.2,0-0.3,0-0.5,0c-0.1,0-0.3,0-0.4,0c-2.6,0-4.8,1.5-5.6,3.7c0,0,0,0.1-0.1,0.1
					l0,0l-0.1,0.1c-0.1,0.3-0.2,0.5-0.3,0.8h0l-8.7,21.2c-0.1,0.2-0.2,0.5-0.4,0.7c-0.4,0.5-1.1,0.7-1.7,0.7c-0.3,0-0.7-0.1-1-0.2
					l0,0c0.9,2.9,3.7,5,7.1,5c0.2,0,0.3,0,0.5,0c0.1,0,0.3,0,0.4,0c2.6,0,4.8-1.5,5.6-3.7c0,0,0-0.1,0.1-0.1l0,0l0.1-0.1
					c0.1-0.3,0.3-0.5,0.3-0.8h0l8.7-21.2c0.1-0.2,0.2-0.5,0.4-0.7c0.4-0.5,1.1-0.7,1.7-0.7c0.3,0,0.7,0.1,1,0.2l0,0
					C35.4,2.6,32.5,0.5,29.1,0.5z"/>
			</g>
			<linearGradient id="XMLID_11_" gradientUnits="userSpaceOnUse" x1="39.4878" y1="31.4827" x2="46.1093" y2="14.5865">
				<stop  offset="0" style="stop-color:#AB0D07"/>
				<stop  offset="1" style="stop-color:#E81717"/>
			</linearGradient>
			<path id="XMLID_4_" class="st3" d="M52.3,16.8L52.3,16.8l4.3-10.3c0,0,0,0,0,0L58,2.9c-1.4-1.5-3.3-2.4-5.6-2.4
				c-0.2,0-0.3,0-0.5,0c-0.1,0-0.3,0-0.4,0C49,0.5,46.8,2,46,4.2c0,0,0,0.1-0.1,0.1l0,0l-0.1,0.1c-0.1,0.3-0.2,0.5-0.3,0.8h0
				l-8.8,21.4c-0.4,0.7-1.2,1.1-2,1.1c-0.3,0-0.7-0.1-1-0.2l0,0c0.9,2.9,3.7,5,7.1,5c0.2,0,0.3,0,0.5,0c0.1,0,0.3,0,0.4,0
				c2.6,0,4.8-1.5,5.6-3.7c0,0,0-0.1,0.1-0.1l0,0l0.1-0.1c0.1-0.2,0.3-0.5,0.3-0.8h0L52.3,16.8L52.3,16.8z"/>
		</g>
	</g>
</g>
</svg>
