<?xml version="1.0" encoding="utf-8"?>
<!-- Generator: Adobe Illustrator 22.1.0, SVG Export Plug-In . SVG Version: 6.00 Build 0)  -->
<svg version="1.1" id="Capa_1" xmlns="http://www.w3.org/2000/svg" xmlns:xlink="http://www.w3.org/1999/xlink" x="0px" y="0px"
	 width="328px" height="216px" viewBox="0 0 328 216" style="enable-background:new 0 0 328 216;" xml:space="preserve">
<rect style="fill:#D8D8D8;" width="328" height="216"/>
<g>
	<path style="fill:#FFFFFF;" d="M218.8,63.3H109.2c-1,0-1.8,0.8-1.8,1.8v85.7c0,1,0.8,1.8,1.8,1.8h109.7c1,0,1.8-0.8,1.8-1.8V65.1
		C220.6,64.1,219.8,63.3,218.8,63.3z M209.9,138.4l-24.7-25.6c-0.3-0.3-0.7-0.3-1,0l-17.1,15.1L145.2,101c-0.1-0.2-0.3-0.3-0.6-0.3
		c-0.2,0-0.4,0.1-0.6,0.3l-25.9,34.7V74.1h91.7L209.9,138.4L209.9,138.4z"/>
	<path style="fill:#FFFFFF;" d="M182.8,100c4.9,0,8.8-3.9,8.8-8.8s-3.9-8.8-8.8-8.8c-4.9,0-8.8,3.9-8.8,8.8S177.9,100,182.8,100z"/>
</g>
</svg>
