<?xml version="1.0" encoding="utf-8"?>
<!-- Generator: Adobe Illustrator 24.3.0, SVG Export Plug-In . SVG Version: 6.00 Build 0)  -->
<svg version="1.1" id="Слой_1" xmlns="http://www.w3.org/2000/svg" xmlns:xlink="http://www.w3.org/1999/xlink" x="0px" y="0px"
	 viewBox="0 0 95 69.5" style="enable-background:new 0 0 95 69.5;" xml:space="preserve">
<style type="text/css">
	.st0{fill:#FFFFFF;}
	.st1{fill:#E81717;}
	.st2{fill:url(#XMLID_2_);}
	.st3{fill:url(#XMLID_3_);}
	.st4{fill:url(#XMLID_4_);}
</style>
<g>
	<g>
		<path class="st0" d="M25.9,42.5l-4,14h-2.3l-3.4-10.1l-3.3,10.1h-2.3l-4.2-14h2.8l2.8,10l3.1-10h2.4l3.2,10l2.8-10H25.9z"/>
		<path class="st0" d="M26.7,55.4c-0.9-0.9-1.4-2-1.4-3.4s0.5-2.5,1.4-3.4s2.1-1.3,3.5-1.3s2.6,0.4,3.5,1.3c0.9,0.9,1.3,2,1.3,3.4
			s-0.4,2.5-1.3,3.4c-0.9,0.9-2.1,1.3-3.5,1.3S27.6,56.3,26.7,55.4z M27.9,52c0,0.7,0.2,1.4,0.7,1.9s1,0.7,1.8,0.7
			c0.7,0,1.3-0.2,1.8-0.7c0.5-0.5,0.7-1.1,0.7-1.9c0-0.7-0.2-1.4-0.7-1.8s-1.1-0.7-1.8-0.7c-0.7,0-1.3,0.2-1.7,0.7
			C28.1,50.6,27.9,51.2,27.9,52z"/>
		<path class="st0" d="M38,55.4c-0.9-0.9-1.4-2-1.4-3.4s0.5-2.5,1.4-3.4s2.1-1.3,3.5-1.3s2.6,0.4,3.5,1.3c0.9,0.9,1.3,2,1.3,3.4
			s-0.4,2.5-1.3,3.4c-0.9,0.9-2.1,1.3-3.5,1.3S38.9,56.3,38,55.4z M39.1,52c0,0.7,0.2,1.4,0.7,1.9s1,0.7,1.8,0.7
			c0.7,0,1.3-0.2,1.8-0.7s0.7-1.1,0.7-1.9c0-0.7-0.2-1.4-0.7-1.8s-1.1-0.7-1.8-0.7s-1.3,0.2-1.7,0.7C39.3,50.6,39.1,51.2,39.1,52z"
			/>
		<path class="st0" d="M54.7,56.5v-0.9c-0.7,0.7-1.6,1.1-2.6,1.1c-1.3,0-2.3-0.4-3.1-1.3c-0.8-0.8-1.2-1.9-1.2-3.3
			c0-1.4,0.5-2.6,1.4-3.5s2.1-1.3,3.6-1.3c0.8,0,1.4,0.1,1.9,0.4v-5.2H57v14H54.7z M52.6,54.5c0.8,0,1.5-0.3,2.1-0.9V50
			c-0.6-0.4-1.2-0.5-1.8-0.5c-0.7,0-1.3,0.2-1.8,0.7s-0.8,1.1-0.8,1.9c0,0.8,0.2,1.4,0.7,1.8C51.4,54.3,52,54.5,52.6,54.5z"/>
		<path class="st0" d="M59.6,55.7V42.5h2.3v5.6c0.7-0.5,1.5-0.8,2.4-0.8c1.3,0,2.4,0.4,3.1,1.3c0.8,0.8,1.2,2,1.2,3.3
			c0,1.5-0.5,2.7-1.4,3.5c-0.9,0.9-2.2,1.3-3.8,1.3c-0.7,0-1.4-0.1-2.1-0.3C60.6,56.2,60,56,59.6,55.7z M63.7,49.4
			c-0.7,0-1.3,0.3-1.8,0.9v3.8c0.5,0.3,1,0.5,1.6,0.5c0.7,0,1.4-0.2,1.8-0.7c0.5-0.5,0.7-1.1,0.7-1.9c0-0.8-0.2-1.5-0.7-1.9
			C64.9,49.7,64.4,49.4,63.7,49.4z"/>
		<path class="st0" d="M71.2,49.8l-0.6-1.7c1-0.6,2-0.9,3.2-0.9c1.3,0,2.2,0.3,2.8,0.9c0.6,0.6,0.8,1.6,0.8,2.8v5.5h-2v-1
			c-0.5,0.8-1.4,1.2-2.7,1.2c-0.8,0-1.5-0.2-2-0.7s-0.8-1.2-0.8-2c0-0.9,0.3-1.7,0.9-2.2s1.4-0.8,2.4-0.8c0.8,0,1.5,0.2,2,0.6
			c0-0.8-0.1-1.4-0.3-1.8c-0.3-0.4-0.7-0.6-1.3-0.6C72.9,49.2,72.1,49.4,71.2,49.8z M73.5,54.7c0.8,0,1.4-0.3,1.7-0.8V53
			c-0.4-0.3-0.9-0.4-1.6-0.4c-0.4,0-0.8,0.1-1,0.3c-0.3,0.2-0.4,0.5-0.4,0.8s0.1,0.6,0.4,0.8C72.8,54.6,73.1,54.7,73.5,54.7z"/>
		<path class="st0" d="M78.6,57.7c0-0.7,0.3-1.3,0.8-1.8s1.2-0.8,2.1-1c-0.1-0.2-0.2-0.4-0.2-0.6c0-0.3,0.1-0.5,0.2-0.6
			c-0.7-0.3-1.2-0.7-1.6-1.2s-0.6-1.1-0.6-1.8c0-0.9,0.4-1.7,1.1-2.4s1.6-1,2.8-1c0.9,0,1.6,0.2,2.3,0.6l2.7-0.6l0.1,1.8l-1.5,0.3
			c0.1,0.4,0.2,0.8,0.2,1.2c0,0.9-0.4,1.7-1.1,2.3s-1.6,1-2.8,1h-0.2c0,0.1,0,0.2,0,0.3c0,0.2,0,0.3,0.1,0.5h0.1
			c1.4,0,2.5,0.2,3.4,0.7s1.3,1.2,1.3,2.2s-0.4,1.7-1.3,2.2s-2,0.7-3.4,0.7s-2.5-0.2-3.4-0.7C79,59.4,78.6,58.7,78.6,57.7z
			 M80.7,57.7c0,0.3,0.2,0.6,0.7,0.8s1.1,0.3,1.9,0.3c1.7,0,2.5-0.4,2.5-1.1c0-0.3-0.2-0.6-0.6-0.8s-1.1-0.3-1.9-0.3
			s-1.4,0.1-1.9,0.3C81,57.1,80.7,57.4,80.7,57.7z M82,49.6c-0.3,0.3-0.5,0.7-0.5,1.1c0,0.4,0.2,0.8,0.5,1c0.3,0.3,0.7,0.4,1.2,0.4
			s0.9-0.1,1.2-0.4c0.3-0.3,0.5-0.6,0.5-1.1s-0.2-0.8-0.4-1.1c-0.3-0.3-0.7-0.4-1.2-0.4C82.8,49.1,82.3,49.3,82,49.6z"/>
	</g>
	<g id="XMLID_20_">
		<g id="XMLID_21_">
			<path id="XMLID_26_" class="st1" d="M39.8,26.2L30.9,4.8l0,0c-0.1-0.3-0.2-0.5-0.3-0.8l-0.1-0.1l0,0c0,0,0-0.1-0.1-0.1
				c-0.9-2.2-3-3.7-5.6-3.7c-0.1,0-0.3,0-0.4,0s-0.3,0-0.5,0c-2.2,0-4.1,0.9-5.5,2.3l5.1,12.8l5.1,12.2l0,0c0.1,0.3,0.2,0.5,0.3,0.8
				l0.1,0.1C29.1,28.3,40.2,26.9,39.8,26.2z"/>
			<g id="XMLID_23_">
				
					<linearGradient id="XMLID_2_" gradientUnits="userSpaceOnUse" x1="57.1507" y1="46.2532" x2="50.3008" y2="62.9213" gradientTransform="matrix(1 0 0 -1 0 72)">
					<stop  offset="0" style="stop-color:#E81717"/>
					<stop  offset="1" style="stop-color:#AB0D07"/>
				</linearGradient>
				<path id="XMLID_25_" class="st2" d="M54.8,5.9c-1.1-2.8-3.4-4.8-6.2-5.5l-5.4,5.3l8.7,21.4l2.2,1.9l8.6-3.8L54.8,5.9z"/>
				
					<linearGradient id="XMLID_3_" gradientUnits="userSpaceOnUse" x1="35.5256" y1="40.4774" x2="42.148" y2="57.3759" gradientTransform="matrix(1 0 0 -1 0 72)">
					<stop  offset="0" style="stop-color:#AB0D07"/>
					<stop  offset="1" style="stop-color:#E81717"/>
				</linearGradient>
				<path id="XMLID_24_" class="st3" d="M47.3,0.1c-0.2,0-0.3,0-0.5,0c-0.1,0-0.3,0-0.4,0c-2.6,0-4.8,1.5-5.6,3.7c0,0,0,0.1-0.1,0.1
					l0,0V4c-0.1,0.3-0.2,0.5-0.3,0.8l0,0L31.7,26c-0.1,0.2-0.2,0.5-0.4,0.7c-0.4,0.5-1.1,0.7-1.7,0.7c-0.3,0-0.7-0.1-1-0.2l0,0
					c0.9,2.9,3.7,5,7.1,5c0.2,0,0.3,0,0.5,0c0.1,0,0.3,0,0.4,0c2.6,0,4.8-1.5,5.6-3.7c0,0,0-0.1,0.1-0.1l0,0l0.1-0.1
					c0.1-0.3,0.2-0.5,0.3-0.8l0,0l8.7-21.2c0.1-0.2,0.2-0.5,0.4-0.7c0.4-0.5,1.1-0.7,1.7-0.7c0.3,0,0.7,0.1,1,0.2l0,0
					C53.6,2.2,50.7,0.1,47.3,0.1z"/>
			</g>
			
				<linearGradient id="XMLID_4_" gradientUnits="userSpaceOnUse" x1="57.7225" y1="40.9262" x2="64.344" y2="57.8225" gradientTransform="matrix(1 0 0 -1 0 72)">
				<stop  offset="0" style="stop-color:#AB0D07"/>
				<stop  offset="1" style="stop-color:#E81717"/>
			</linearGradient>
			<path id="XMLID_22_" class="st4" d="M70.5,16.4L70.5,16.4L74.8,6l0,0l1.4-3.5c-1.4-1.5-3.3-2.4-5.6-2.4c-0.2,0-0.3,0-0.5,0
				c-0.1,0-0.3,0-0.4,0c-2.6,0-4.8,1.5-5.6,3.7c0,0,0,0.1-0.1,0.1l0,0L64.1,4c-0.1,0.3-0.2,0.5-0.3,0.8l0,0L55,26.2
				c-0.4,0.7-1.2,1.1-2,1.1c-0.3,0-0.7-0.1-1-0.2l0,0c0.9,2.9,3.7,5,7.1,5c0.2,0,0.3,0,0.5,0c0.1,0,0.3,0,0.4,0
				c2.6,0,4.7-1.5,5.6-3.7c0,0,0-0.1,0.1-0.1l0,0l0.1-0.1c0.1-0.3,0.2-0.5,0.3-0.8l0,0L70.5,16.4L70.5,16.4z"/>
		</g>
	</g>
</g>
</svg>
