<?xml version="1.0" encoding="utf-8"?>
<!-- Generator: Adobe Illustrator 21.0.0, SVG Export Plug-In . SVG Version: 6.00 Build 0)  -->
<svg version="1.1" id="Слой_1" xmlns="http://www.w3.org/2000/svg" xmlns:xlink="http://www.w3.org/1999/xlink" x="0px" y="0px"
	 viewBox="0 0 222 45" style="enable-background:new 0 0 222 45;" xml:space="preserve">
<style type="text/css">
	.st0{fill:#FFFFFF;}
	.st1{fill:#E81717;}
	.st2{fill:url(#XMLID_2_);}
	.st3{fill:url(#XMLID_3_);}
	.st4{fill:url(#XMLID_4_);}
</style>
<g>
	<path class="st0" d="M91.1,38.5c0.8-0.1,1.2-1,1.2-2.9v-1.5h3v4.9h-0.7v-4.3h-1.7v0.9c0,2.3-0.6,3.4-1.8,3.5V38.5z"/>
	<path class="st0" d="M99.1,34.1c1.4,0,2.6,1.1,2.6,2.5c0,1.5-1.2,2.6-2.6,2.6s-2.6-1.1-2.6-2.6C96.5,35.2,97.7,34.1,99.1,34.1z
		 M99.1,38.6c1,0,1.9-0.8,1.9-2c0-1.1-0.9-1.9-1.9-1.9c-1.1,0-1.9,0.8-1.9,1.9C97.2,37.8,98.1,38.6,99.1,38.6z"/>
	<path class="st0" d="M102.9,34.2h2.9v0.6h-2.3v4.3h-0.7V34.2z"/>
	<path class="st0" d="M106.9,34.2h0.6v3.2c0,0.3,0,0.7,0,0.7h0c0,0,0.3-0.5,0.5-0.7l2.4-3.2h0.6v4.9h-0.7v-3.2c0-0.3,0-0.7,0-0.7h0
		c0,0-0.3,0.4-0.5,0.7l-2.4,3.2h-0.6V34.2z"/>
	<path class="st0" d="M114.9,34.1c0.6,0,1.4,0.2,1.8,0.7l-0.3,0.5c-0.3-0.3-0.9-0.6-1.4-0.6c-1.1,0-1.9,0.8-1.9,2c0,1.1,0.8,2,1.9,2
		c0.6,0,1.2-0.2,1.6-0.7l0.3,0.5c-0.4,0.5-1.2,0.8-1.9,0.8c-1.4,0-2.6-1-2.6-2.6C112.3,35.1,113.4,34.1,114.9,34.1z"/>
	<path class="st0" d="M119.1,34.8h-1.8v-0.6h4.2v0.6h-1.8v4.3h-0.7V34.8z"/>
	<path class="st0" d="M122.6,34.2h0.6v3.2c0,0.3,0,0.7,0,0.7h0c0,0,0.3-0.5,0.5-0.7l2.4-3.2h0.6v4.9h-0.7v-3.2c0-0.3,0-0.7,0-0.7h0
		c0,0-0.3,0.4-0.5,0.7l-2.4,3.2h-0.6V34.2z"/>
	<path class="st0" d="M128.3,34.2h0.7v2.1h0.8l1.5-2.1h0.8l-1.7,2.3v0l1.9,2.5h-0.8l-1.6-2.2H129v2.2h-0.7V34.2z"/>
	<path class="st0" d="M135.6,36.1h0.3v-0.1c0-0.9-0.5-1.3-1.2-1.3c-0.5,0-1,0.2-1.4,0.5l-0.3-0.5c0.4-0.3,1.1-0.6,1.7-0.6
		c1.2,0,1.8,0.7,1.8,1.9v3.1h-0.6v-0.6c0-0.2,0-0.4,0-0.4h0c-0.3,0.6-0.9,1.1-1.7,1.1c-0.8,0-1.7-0.5-1.7-1.4
		C132.6,36.2,134.7,36.1,135.6,36.1z M134.4,38.6c0.9,0,1.5-1,1.5-1.8v-0.2h-0.3c-0.8,0-2.3,0-2.3,1.1
		C133.3,38.2,133.7,38.6,134.4,38.6z"/>
	<path class="st0" d="M138.3,38.3h0.8l-0.7,1.7h-0.6L138.3,38.3z"/>
	<path class="st0" d="M144.3,34.8h-1.8v-0.6h4.2v0.6h-1.8v4.3h-0.7V34.8z"/>
	<path class="st0" d="M150.2,36.1h0.3v-0.1c0-0.9-0.5-1.3-1.2-1.3c-0.5,0-1,0.2-1.4,0.5l-0.3-0.5c0.4-0.3,1.1-0.6,1.7-0.6
		c1.2,0,1.8,0.7,1.8,1.9v3.1h-0.6v-0.6c0-0.2,0-0.4,0-0.4h0c-0.3,0.6-0.9,1.1-1.7,1.1c-0.8,0-1.7-0.5-1.7-1.4
		C147.3,36.2,149.3,36.1,150.2,36.1z M149,38.6c0.9,0,1.5-1,1.5-1.8v-0.2h-0.3c-0.8,0-2.3,0-2.3,1.1C147.9,38.2,148.3,38.6,149,38.6
		z"/>
	<path class="st0" d="M152.9,34.2h0.7l1.5,3c0.1,0.3,0.3,0.7,0.3,0.7h0c0,0,0.2-0.4,0.3-0.7l1.5-3h0.7l0.4,4.9h-0.7l-0.2-3.2
		c0-0.3,0-0.8,0-0.8h0c0,0-0.1,0.3-0.3,0.7l-1.4,2.7h-0.6l-1.4-2.7c-0.2-0.4-0.3-0.7-0.3-0.7h0c0,0,0,0.6,0,0.8l-0.2,3.2h-0.6
		L152.9,34.2z"/>
	<path class="st0" d="M161.9,34.1c1.4,0,2.6,1.1,2.6,2.5c0,1.5-1.2,2.6-2.6,2.6s-2.6-1.1-2.6-2.6C159.4,35.2,160.5,34.1,161.9,34.1z
		 M161.9,38.6c1,0,1.9-0.8,1.9-2c0-1.1-0.9-1.9-1.9-1.9c-1.1,0-1.9,0.8-1.9,1.9C160,37.8,160.9,38.6,161.9,38.6z"/>
	<path class="st0" d="M166.6,36.6L166.6,36.6l-1.5-2.4h0.7l1.3,2.1h0.8v-2.1h0.6v2.1h0.8l1.3-2.1h0.7l-1.5,2.4v0l1.7,2.5h-0.8
		l-1.4-2.2h-0.8v2.2H168v-2.2h-0.8l-1.4,2.2H165L166.6,36.6z"/>
	<path class="st0" d="M172.6,34.2h0.7v2.1h2.9v-2.1h0.7v4.9h-0.7v-2.2h-2.9v2.2h-0.7V34.2z"/>
	<path class="st0" d="M179,37.4c0.1-0.2,0.2-0.3,0.2-0.3v0c-0.6-0.1-1.1-0.6-1.1-1.4c0-1,0.7-1.5,1.7-1.5h1.7v4.9h-0.7v-1.9h-1
		l-1.3,1.9h-0.8L179,37.4z M180.9,36.7v-2H180c-0.7,0-1.2,0.3-1.2,1c0,0.7,0.5,1,1.1,1H180.9z"/>
	<path class="st0" d="M183.3,38.3h0.8l-0.7,1.7h-0.6L183.3,38.3z"/>
	<path class="st0" d="M188,38c0.2,0.2,0.7,0.6,1.3,0.6c0.6,0,1.2-0.3,1.2-1c0-0.6-0.4-0.9-1.2-0.9h-0.6v-0.5h0.5
		c0.7,0,1.1-0.3,1.1-0.8c0-0.6-0.4-0.8-1-0.8c-0.5,0-0.9,0.2-1.2,0.4l-0.3-0.5c0.3-0.3,0.9-0.5,1.6-0.5c0.9,0,1.6,0.4,1.6,1.3
		c0,0.6-0.3,1-0.7,1.1v0c0.5,0.1,0.9,0.5,0.9,1.2c0,1-0.9,1.5-1.8,1.5c-0.8,0-1.3-0.4-1.7-0.7L188,38z"/>
	<path class="st0" d="M194.9,36.1h0.3v-0.1c0-0.9-0.5-1.3-1.2-1.3c-0.5,0-1,0.2-1.4,0.5l-0.3-0.5c0.4-0.3,1.1-0.6,1.7-0.6
		c1.2,0,1.8,0.7,1.8,1.9v3.1h-0.6v-0.6c0-0.2,0-0.4,0-0.4h0c-0.3,0.6-0.9,1.1-1.7,1.1c-0.8,0-1.7-0.5-1.7-1.4
		C192,36.2,194,36.1,194.9,36.1z M193.7,38.6c0.9,0,1.5-1,1.5-1.8v-0.2H195c-0.8,0-2.3,0-2.3,1.1C192.6,38.2,193,38.6,193.7,38.6z"
		/>
	<path class="st0" d="M197.4,34.2h0.7v2.1h0.8l1.5-2.1h0.8l-1.7,2.3v0l1.9,2.5h-0.8l-1.6-2.2h-0.8v2.2h-0.7V34.2z"/>
	<path class="st0" d="M202.5,40.5c0.4,0,0.7-0.3,0.9-0.8l0.3-0.7l-2-4.8h0.7l1.4,3.6c0.1,0.2,0.2,0.5,0.2,0.5h0c0,0,0.1-0.3,0.2-0.5
		l1.4-3.6h0.7l-2.4,5.9c-0.3,0.6-0.7,1-1.4,1c-0.5,0-0.9-0.3-0.9-0.3l0.3-0.5C201.9,40.3,202.2,40.5,202.5,40.5z"/>
	<path class="st0" d="M207.3,34.2h4.1v4.9h-0.7v-4.3H208v4.3h-0.7V34.2z"/>
	<path class="st0" d="M213,34.2h0.7v2.1h0.8l1.5-2.1h0.8l-1.7,2.3v0l1.9,2.5h-0.8l-1.6-2.2h-0.8v2.2H213V34.2z"/>
	<path class="st0" d="M217.8,34.2h0.6v3.2c0,0.3,0,0.7,0,0.7h0c0,0,0.3-0.5,0.5-0.7l2.4-3.2h0.6v4.9h-0.7v-3.2c0-0.3,0-0.7,0-0.7h0
		c0,0-0.3,0.4-0.5,0.7l-2.4,3.2h-0.6V34.2z"/>
</g>
<g>
	<path class="st0" d="M118.2,3.6l-5.6,19.4h-3.2L104.8,9l-4.6,14.1h-3.2L91.1,3.6H95l3.9,13.9l4.3-13.9h3.4l4.4,13.9l3.9-13.9H118.2
		z"/>
	<path class="st0" d="M119.4,21.5c-1.3-1.2-1.9-2.8-1.9-4.7c0-1.9,0.6-3.5,1.9-4.7c1.2-1.2,2.9-1.8,4.9-1.8s3.7,0.6,4.9,1.8
		c1.3,1.2,1.9,2.8,1.9,4.7c0,1.9-0.6,3.5-1.9,4.7c-1.3,1.2-2.9,1.8-4.9,1.8S120.6,22.8,119.4,21.5z M120.9,16.8c0,1,0.3,1.9,1,2.6
		c0.6,0.7,1.4,1,2.4,1c1,0,1.8-0.3,2.5-1c0.6-0.7,1-1.5,1-2.6c0-1-0.3-1.9-1-2.6c-0.6-0.7-1.5-1-2.4-1c-1,0-1.8,0.3-2.4,1
		C121.3,14.9,120.9,15.8,120.9,16.8z"/>
	<path class="st0" d="M135,21.5c-1.3-1.2-1.9-2.8-1.9-4.7c0-1.9,0.6-3.5,1.9-4.7c1.2-1.2,2.9-1.8,4.9-1.8c2,0,3.7,0.6,4.9,1.8
		c1.3,1.2,1.9,2.8,1.9,4.7c0,1.9-0.6,3.5-1.9,4.7c-1.3,1.2-2.9,1.8-4.9,1.8C137.9,23.4,136.3,22.8,135,21.5z M136.5,16.8
		c0,1,0.3,1.9,1,2.6c0.6,0.7,1.4,1,2.4,1c1,0,1.8-0.3,2.5-1c0.6-0.7,1-1.5,1-2.6c0-1-0.3-1.9-1-2.6c-0.6-0.7-1.5-1-2.4-1
		c-1,0-1.8,0.3-2.4,1C136.9,14.9,136.5,15.8,136.5,16.8z"/>
	<path class="st0" d="M158.2,23.1v-1.3c-1,1-2.2,1.5-3.6,1.5c-1.8,0-3.2-0.6-4.3-1.7c-1.1-1.2-1.6-2.7-1.6-4.6c0-2,0.6-3.6,1.9-4.8
		c1.3-1.3,2.9-1.9,4.9-1.9c1.1,0,1.9,0.2,2.6,0.6V3.6h3.2v19.4H158.2z M155.3,20.3c1.1,0,2.1-0.4,2.9-1.3v-5
		c-0.8-0.5-1.6-0.7-2.5-0.7c-1,0-1.8,0.3-2.5,1c-0.7,0.6-1,1.5-1,2.6c0,1.1,0.3,1.9,0.9,2.5C153.7,20,154.4,20.3,155.3,20.3z"/>
	<path class="st0" d="M165,22V3.6h3.2v7.7c0.9-0.7,2-1.1,3.3-1.1c1.8,0,3.3,0.6,4.3,1.8s1.6,2.7,1.6,4.6c0,2.1-0.6,3.7-1.9,4.9
		c-1.3,1.2-3,1.8-5.2,1.8c-1,0-2-0.1-2.9-0.4C166.4,22.7,165.6,22.4,165,22z M170.7,13.3c-1,0-1.9,0.4-2.6,1.2v5.3
		c0.7,0.4,1.4,0.6,2.3,0.6c1,0,1.9-0.3,2.6-1c0.7-0.6,1-1.5,1-2.6c0-1.1-0.3-2-0.9-2.7C172.4,13.6,171.6,13.3,170.7,13.3z"/>
	<path class="st0" d="M181.1,13.8l-0.8-2.3c1.4-0.8,2.8-1.2,4.4-1.2c1.8,0,3.1,0.4,3.8,1.3c0.8,0.9,1.2,2.2,1.2,3.9v7.6H187v-1.4
		c-0.8,1.1-2,1.6-3.7,1.6c-1.2,0-2.1-0.3-2.8-1c-0.7-0.7-1.1-1.6-1.1-2.8c0-1.3,0.4-2.3,1.3-3c0.9-0.7,1.9-1,3.3-1
		c1.1,0,2.1,0.3,2.8,0.8c0-1.1-0.1-1.9-0.5-2.4c-0.4-0.5-1-0.8-1.9-0.8C183.5,12.9,182.4,13.2,181.1,13.8z M184.3,20.5
		c1.1,0,1.9-0.4,2.4-1.1v-1.3c-0.5-0.4-1.3-0.6-2.2-0.6c-0.6,0-1,0.1-1.4,0.4c-0.4,0.3-0.6,0.7-0.6,1.2c0,0.5,0.2,0.8,0.5,1.1
		C183.4,20.4,183.8,20.5,184.3,20.5z"/>
	<path class="st0" d="M191.4,24.8c0-1,0.4-1.8,1.1-2.5c0.7-0.7,1.7-1.1,3-1.4c-0.1-0.3-0.2-0.5-0.2-0.9c0-0.4,0.1-0.6,0.3-0.9
		c-0.9-0.4-1.7-0.9-2.2-1.7c-0.5-0.7-0.8-1.6-0.8-2.5c0-1.3,0.5-2.4,1.5-3.3c1-0.9,2.3-1.4,3.9-1.4c1.2,0,2.3,0.3,3.2,0.9l3.8-0.8
		l0.1,2.6l-2.1,0.5c0.2,0.5,0.3,1.1,0.3,1.6c0,1.3-0.5,2.4-1.5,3.3c-1,0.9-2.3,1.3-3.8,1.3h-0.2c0,0.1-0.1,0.3-0.1,0.5
		c0,0.2,0.1,0.5,0.2,0.6h0.1c1.9,0,3.5,0.3,4.7,1c1.2,0.7,1.8,1.7,1.8,3.1c0,1.4-0.6,2.4-1.8,3.1c-1.2,0.7-2.8,1-4.7,1
		c-1.9,0-3.5-0.3-4.7-1C192,27.2,191.4,26.1,191.4,24.8z M194.4,24.8c0,0.5,0.3,0.9,0.9,1.1c0.6,0.3,1.5,0.4,2.6,0.4
		c2.3,0,3.5-0.5,3.5-1.5c0-0.5-0.3-0.8-0.9-1.1c-0.6-0.3-1.5-0.4-2.6-0.4c-1.1,0-2,0.1-2.6,0.4C194.7,23.9,194.4,24.3,194.4,24.8z
		 M196.2,13.5c-0.4,0.4-0.6,0.9-0.6,1.5c0,0.6,0.2,1.1,0.6,1.5c0.4,0.4,1,0.6,1.7,0.6c0.7,0,1.2-0.2,1.7-0.6
		c0.4-0.4,0.7-0.9,0.7-1.5c0-0.6-0.2-1.1-0.6-1.5c-0.4-0.4-1-0.6-1.7-0.6C197.2,12.9,196.6,13.1,196.2,13.5z"/>
</g>
<g id="XMLID_11_">
	<g id="XMLID_12_">
		<path id="XMLID_19_" class="st1" d="M29.5,36.3L17.3,6.6h0c-0.1-0.4-0.3-0.7-0.5-1.1l-0.1-0.2l0,0c0-0.1-0.1-0.1-0.1-0.2
			c-1.2-3-4.2-5.1-7.8-5.1c-0.2,0-0.4,0-0.6,0c-0.2,0-0.4,0-0.6,0c-3,0-5.7,1.2-7.6,3.2L7.1,21l7,17h0c0.1,0.4,0.3,0.7,0.5,1.1
			l0.1,0.2C14.7,39.3,30.1,37.3,29.5,36.3z"/>
		<g id="XMLID_16_">
			<linearGradient id="XMLID_2_" gradientUnits="userSpaceOnUse" x1="53.6848" y1="35.735" x2="44.1729" y2="12.5893">
				<stop  offset="0" style="stop-color:#E81717"/>
				<stop  offset="1" style="stop-color:#AB0D07"/>
			</linearGradient>
			<path id="XMLID_18_" class="st2" d="M50.4,8.2c-1.6-3.8-4.8-6.6-8.6-7.7l-7.5,7.4l12.1,29.7l3.1,2.7L61.4,35L50.4,8.2z"/>
			<linearGradient id="XMLID_3_" gradientUnits="userSpaceOnUse" x1="23.5632" y1="43.7376" x2="32.7592" y2="20.2721">
				<stop  offset="0" style="stop-color:#AB0D07"/>
				<stop  offset="1" style="stop-color:#E81717"/>
			</linearGradient>
			<path id="XMLID_17_" class="st3" d="M40,0.1c-0.2,0-0.4,0-0.6,0c-0.2,0-0.4,0-0.6,0c-3.6,0-6.6,2.1-7.8,5.1
				c0,0.1-0.1,0.1-0.1,0.2l0,0l-0.1,0.2c-0.2,0.3-0.3,0.7-0.5,1.1h0L18.2,36c-0.1,0.3-0.3,0.7-0.6,0.9c-0.6,0.6-1.5,1-2.4,1
				c-0.5,0-0.9-0.1-1.3-0.3l0,0c1.3,4,5.2,7,9.8,7c0.2,0,0.4,0,0.6,0c0.2,0,0.4,0,0.6,0c3.6,0,6.6-2.1,7.8-5.1
				c0-0.1,0.1-0.1,0.1-0.2l0,0l0.1-0.2c0.2-0.3,0.3-0.7,0.5-1.1h0L45.6,8.7c0.1-0.3,0.3-0.7,0.6-0.9c0.6-0.6,1.5-1,2.4-1
				c0.5,0,1,0.1,1.4,0.3l0,0C48.7,3.1,44.7,0.1,40,0.1z"/>
		</g>
		<linearGradient id="XMLID_4_" gradientUnits="userSpaceOnUse" x1="54.4189" y1="43.1271" x2="63.6136" y2="19.6647">
			<stop  offset="0" style="stop-color:#AB0D07"/>
			<stop  offset="1" style="stop-color:#E81717"/>
		</linearGradient>
		<path id="XMLID_14_" class="st4" d="M72.2,22.7L72.2,22.7l5.9-14.4c0,0,0,0,0,0l2-4.9c-1.9-2-4.6-3.3-7.7-3.3c-0.2,0-0.4,0-0.6,0
			c-0.2,0-0.4,0-0.6,0c-3.6,0-6.6,2.1-7.8,5.1c0,0.1-0.1,0.1-0.1,0.2l0,0l-0.1,0.2c-0.2,0.3-0.3,0.7-0.5,1.1h0L50.5,36.3
			c-0.6,1-1.6,1.6-2.8,1.6c-0.5,0-0.9-0.1-1.3-0.3l0,0c1.3,4,5.2,7,9.8,7c0.2,0,0.4,0,0.6,0c0.2,0,0.4,0,0.6,0
			c3.6,0,6.6-2.1,7.8-5.1c0-0.1,0.1-0.1,0.1-0.2l0,0l0.1-0.2c0.2-0.3,0.3-0.7,0.5-1.1h0L72.2,22.7L72.2,22.7z"/>
	</g>
</g>
</svg>
