<?xml version="1.0" encoding="utf-8"?>
<!-- Generator: Adobe Illustrator 22.1.0, SVG Export Plug-In . SVG Version: 6.00 Build 0)  -->
<svg version="1.1" id="Слой_1" xmlns="http://www.w3.org/2000/svg" xmlns:xlink="http://www.w3.org/1999/xlink" x="0px" y="0px"
	 width="57.7px" height="32.1px" viewBox="0 0 57.7 32.1" style="enable-background:new 0 0 57.7 32.1;" xml:space="preserve">
<g id="XMLID_15_">
	<g id="XMLID_716_">
		<path id="XMLID_633_" style="fill:#E81717;" d="M21.2,26.1L12.4,4.7l0,0c-0.1-0.3-0.2-0.5-0.3-0.8L12,3.8l0,0c0,0,0-0.1-0.1-0.1
			C11.1,1.5,8.9,0,6.3,0C6.2,0,6,0,5.9,0S5.6,0,5.4,0C3.3,0,1.3,0.9,0,2.3l5.1,12.8l5.1,12.2l0,0c0.1,0.3,0.2,0.5,0.3,0.8l0.1,0.1
			C10.6,28.2,21.6,26.8,21.2,26.1z"/>
		<g id="XMLID_623_">
			
				<linearGradient id="XMLID_2_" gradientUnits="userSpaceOnUse" x1="38.6508" y1="44.3528" x2="31.8007" y2="61.0215" gradientTransform="matrix(1 0 0 -1 0 70)">
				<stop  offset="0" style="stop-color:#E81717"/>
				<stop  offset="1" style="stop-color:#AB0D07"/>
			</linearGradient>
			<path id="XMLID_631_" style="fill:url(#XMLID_2_);" d="M36.3,5.8C35.2,3,32.9,1,30.1,0.3l-5.4,5.3L33.4,27l2.2,2l8.6-3.8
				L36.3,5.8z"/>
			
				<linearGradient id="XMLID_3_" gradientUnits="userSpaceOnUse" x1="16.9314" y1="38.5921" x2="23.5537" y2="55.4906" gradientTransform="matrix(1 0 0 -1 0 70)">
				<stop  offset="0" style="stop-color:#AB0D07"/>
				<stop  offset="1" style="stop-color:#E81717"/>
			</linearGradient>
			<path id="XMLID_629_" style="fill:url(#XMLID_3_);" d="M28.8,0c-0.2,0-0.3,0-0.5,0c-0.1,0-0.3,0-0.4,0c-2.6,0-4.8,1.5-5.6,3.7
				c0,0,0,0.1-0.1,0.1l0,0l-0.1,0.1c-0.1,0.2-0.2,0.5-0.3,0.8l0,0l-8.7,21.2c-0.1,0.2-0.2,0.5-0.4,0.7c-0.4,0.5-1.1,0.7-1.7,0.7
				c-0.3,0-0.7-0.1-1-0.2l0,0c0.9,2.9,3.7,5,7.1,5c0.2,0,0.3,0,0.5,0c0.1,0,0.3,0,0.4,0c2.6,0,4.8-1.5,5.6-3.7c0,0,0-0.1,0.1-0.1
				l0,0l0.1-0.1c0.1-0.3,0.2-0.5,0.3-0.8l0,0l8.7-21.2C32.9,6,33,5.7,33.2,5.5c0.5-0.5,1.1-0.7,1.7-0.7c0.3,0,0.7,0.1,1,0.2l0,0
				C35,2.1,32.2,0,28.8,0z"/>
		</g>
		
			<linearGradient id="XMLID_4_" gradientUnits="userSpaceOnUse" x1="39.1716" y1="39.024" x2="45.7931" y2="55.9203" gradientTransform="matrix(1 0 0 -1 0 70)">
			<stop  offset="0" style="stop-color:#AB0D07"/>
			<stop  offset="1" style="stop-color:#E81717"/>
		</linearGradient>
		<path id="XMLID_632_" style="fill:url(#XMLID_4_);" d="M52,16.3L52,16.3l4.3-10.4l0,0l1.4-3.5C56.4,0.9,54.4,0,52.2,0
			c-0.2,0-0.3,0-0.5,0c-0.1,0-0.3,0-0.4,0c-2.6,0-4.8,1.5-5.6,3.7c0,0,0,0.1-0.1,0.1l0,0l-0.1,0.1c-0.1,0.2-0.2,0.5-0.3,0.8l0,0
			l-8.8,21.4c-0.4,0.7-1.2,1.1-2,1.1c-0.3,0-0.7-0.1-1-0.2l0,0c0.9,2.9,3.7,5,7.1,5c0.2,0,0.3,0,0.5,0c0.1,0,0.3,0,0.4,0
			c2.6,0,4.8-1.5,5.6-3.7c0,0,0-0.1,0.1-0.1l0,0l0.1-0.1c0.1-0.2,0.2-0.5,0.3-0.8l0,0L52,16.3L52,16.3z"/>
	</g>
</g>
</svg>
