<?xml version="1.0" encoding="utf-8"?>
<!-- Generator: Adobe Illustrator 22.1.0, SVG Export Plug-In . SVG Version: 6.00 Build 0)  -->
<svg version="1.1" id="Слой_1" xmlns="http://www.w3.org/2000/svg" xmlns:xlink="http://www.w3.org/1999/xlink" x="0px" y="0px"
	 width="60px" height="60px" viewBox="0 0 60 60" style="enable-background:new 0 0 60 60;" xml:space="preserve">
<g>
	<path style="fill:#DA1D24;" d="M28.3,30.1c-0.5,0.5-0.5,1.2,0,1.7s1.2,0.5,1.7,0c0.5-0.5,0.5-1.2,0-1.7
		C29.5,29.6,28.7,29.6,28.3,30.1z"/>
	<path style="fill:#DA1D24;" d="M58.7,1.3C56.3-1,51.6-0.2,46.9,3.4c-2,1.6-2.6,2.4-9.7,9.4l-4.3-0.7l2-2c1.4-1.4,1.4-3.6,0-5
		c-1.4-1.4-3.6-1.4-5,0l-5.5,5.5L5,7.6C3.8,7.4,2.5,7.8,1.6,8.7c-1.7,1.7-1.5,4.6,0.5,6l19.3,14l-3.6,3.6c-1.2,1.2-2.5,2.9-3.9,5.1
		l-9-2.6c-1.3-0.4-2.8,0-3.7,1c-1.7,1.7-1.4,4.4,0.5,5.8L9,46.6c-1.3,2.8-2.1,4.9-2.1,5c-0.2,0.4-0.1,0.9,0.3,1.2
		c0.3,0.3,0.8,0.4,1.2,0.3c0.1,0,2.1-0.8,5-2.1l5.1,7.4c1.3,1.9,4.1,2.2,5.8,0.5c1-1,1.3-2.4,1-3.7l-2.6-9c2.1-1.3,3.8-2.6,5.1-3.9
		l3.6-3.6l14,19.3c1.4,2,4.3,2.2,6,0.5c0.9-0.9,1.3-2.2,1.1-3.4l-3.2-19.4l5.5-5.5c1.4-1.4,1.4-3.6,0-5c-1.4-1.4-3.6-1.4-5,0l-2,2
		l-0.7-4.3c7.1-7.1,7.9-7.7,9.4-9.7c0,0,0,0,0,0C60.2,8.4,61,3.7,58.7,1.3z M31.6,6.9c0.5-0.5,1.2-0.5,1.7,0c0.5,0.5,0.5,1.2,0,1.7
		l-3.2,3.2l-2.9-0.5L31.6,6.9z M3.4,12.8c-0.8-0.6-0.9-1.7-0.2-2.4C3.6,10,4.1,9.8,4.6,9.9l30.5,5L23,27L3.4,12.8z M3,39.6
		C2.2,39,2.1,38,2.8,37.3C3.1,37,3.7,36.8,4.2,37l8.4,2.5c-0.9,1.5-1.7,3.2-2.6,5L3,39.6z M23,55.8c0.1,0.5,0,1.1-0.4,1.4
		C22,57.9,21,57.8,20.4,57L15.6,50c1.8-0.9,3.5-1.7,5-2.6L23,55.8z M51.5,26.8c0.5-0.5,1.2-0.5,1.7,0c0.5,0.5,0.5,1.2,0,1.7
		l-4.3,4.3l-0.5-2.9L51.5,26.8z M50.1,55.4c0.1,0.5-0.1,1-0.5,1.4c-0.7,0.7-1.9,0.6-2.4-0.2L33,37l12.1-12.1L50.1,55.4z M54.5,11.9
		C53.1,13.7,54.6,12,26,40.6c-1.3,1.3-3.2,2.7-5.6,4.1c-3.2,1.9-6.9,3.7-10.3,5.1c1.5-3.5,3.3-7.3,5.2-10.5c1.4-2.3,2.8-4.2,4-5.4
		C48,5.4,46.3,6.9,48.1,5.5c1.9-0.1,3.6,0.4,4.8,1.6C54.1,8.3,54.6,10,54.5,11.9z M56.5,8.8c-0.4-1.3-1-2.4-2-3.4
		c-0.9-0.9-2.1-1.6-3.4-2C52.8,2.6,55.7,1.7,57,3C58.1,4,57.8,6.3,56.5,8.8z"/>
	<path style="fill:#DA1D24;" d="M34.9,23.4l-3.3,3.3c-0.5,0.5-0.5,1.2,0,1.7c0.5,0.5,1.2,0.5,1.7,0l3.3-3.3c0.5-0.5,0.5-1.2,0-1.7
		C36.1,23,35.4,23,34.9,23.4z"/>
	<path style="fill:#DA1D24;" d="M41.5,16.8l-3.3,3.3c-0.5,0.5-0.5,1.2,0,1.7c0.5,0.5,1.2,0.5,1.7,0l3.3-3.3c0.5-0.5,0.5-1.2,0-1.7
		C42.7,16.4,42,16.4,41.5,16.8z"/>
</g>
</svg>
