<?xml version="1.0" encoding="utf-8"?>
<!-- Generator: Adobe Illustrator 21.0.0, SVG Export Plug-In . SVG Version: 6.00 Build 0)  -->
<svg version="1.1" id="Слой_1" xmlns="http://www.w3.org/2000/svg" xmlns:xlink="http://www.w3.org/1999/xlink" x="0px" y="0px"
	 viewBox="0 0 60 60" style="enable-background:new 0 0 60 60;" xml:space="preserve">
<style type="text/css">
	.st0{fill:#FFD87A;}
</style>
<path class="st0" d="M29.9,37.3H19.1c-0.8,0-1.5,0.7-1.5,1.5c0,0,0,0,0,0v3.3c0,0.8,0.7,1.5,1.5,1.5c0,0,0,0,0,0h10.8
	c0.8,0,1.5-0.7,1.5-1.5c0,0,0,0,0,0v-3.3C31.4,38,30.7,37.3,29.9,37.3z M29.5,41.7h-10v-2.5h10V41.7z M48.5,29.1L48.5,29.1l-7.1-14
	c-0.6-1.1-1.7-1.8-3-1.8h-1.3V12c0-0.5-0.4-0.9-0.9-0.9c0,0,0,0,0,0H12.9c-0.5,0-0.9,0.4-0.9,0.9c0,0,0,0,0,0v1.3h-1.3
	c-1.3,0-2.4,0.7-3,1.8l-7.1,14l0,0C0.2,29.7,0,30.2,0,30.9v14.8C0,47.5,1.5,49,3.3,49h42.3c1.8,0,3.3-1.5,3.3-3.3V30.9
	C49,30.2,48.8,29.7,48.5,29.1L48.5,29.1z M37.1,15.4h1.3c0.5,0,0.9,0.3,1.1,0.7l5.8,11.5h-4V24c0-0.5-0.4-0.9-0.9-0.9h-1.2V18
	c0-0.5-0.4-0.9-0.9-0.9c0,0,0,0,0,0h-1.3V15.4z M39.5,24.9v2.6h-5c-0.9,0-1.6,0.5-2,1.3l-1.4,3c0,0,0,0-0.1,0H18c0,0-0.1,0-0.1,0
	l-1.4-3c-0.4-0.8-1.1-1.3-2-1.3h-5v-2.6H39.5L39.5,24.9z M13.8,12.9h21.3V17H13.8V12.9z M37.4,18.9v4.1H11.6v-4.1H37.4z M9.5,16
	c0.2-0.4,0.6-0.7,1.1-0.7h1.3V17h-1.3c-0.5,0-0.9,0.4-0.9,0.9c0,0,0,0,0,0v5.1H8.5c-0.5,0-0.9,0.4-0.9,0.9v3.5h-4L9.5,16z
	 M45.7,46.9H3.3c-0.7,0-1.2-0.5-1.2-1.2V30.9c0-0.7,0.5-1.2,1.2-1.2h11.2c0,0,0.1,0,0.1,0l1.4,3c0.4,0.8,1.1,1.3,2,1.3H31
	c0.9,0,1.6-0.5,2-1.3l1.4-3l0,0c0,0,0,0,0.1,0h11.2c0.7,0,1.2,0.5,1.2,1.2v14.8l0,0C46.9,46.4,46.3,46.9,45.7,46.9L45.7,46.9z"/>
</svg>
