<?xml version="1.0" encoding="utf-8"?>
<!-- Generator: Adobe Illustrator 22.1.0, SVG Export Plug-In . SVG Version: 6.00 Build 0)  -->
<svg version="1.1" id="Слой_1" xmlns="http://www.w3.org/2000/svg" xmlns:xlink="http://www.w3.org/1999/xlink" x="0px" y="0px"
	 width="57px" height="57px" viewBox="0 0 57 57" style="enable-background:new 0 0 57 57;" xml:space="preserve">
<path style="fill:#F1CC75;" d="M50.1,21.2l6.6,6.6c0.3,0.3,0.4,0.7,0.3,1.1c-0.1,0.4-0.4,0.7-0.7,0.8l-6.6,2.1v17.6
	c0,0.5-0.3,0.9-0.8,1.1l-20,6.7c0,0,0,0,0,0c-0.2,0.1-0.5,0.1-0.7,0c-0.1,0-14.1-5.3-17.8-6.7c-0.4-0.2-0.7-0.6-0.7-1V32.1L3.4,30
	c-0.3-0.1-0.6-0.4-0.7-0.7c-0.1-0.3-0.1-0.7,0.1-1l4.2-7.1l-6.7-6.7C0,14.3-0.1,13.9,0,13.5c0.1-0.4,0.4-0.7,0.7-0.8L19.3,7
	c1.7-4.2,5.8-7,10.3-7c4.9,0,9.2,3.2,10.6,7.8l16,4.9c0.4,0.1,0.7,0.4,0.8,0.8c0.1,0.4,0,0.8-0.3,1.1L50.1,21.2z M53.8,28l-5.6-5.6
	l-17.9,6l4.5,5.6L53.8,28z M29.6,54.3l17.8-5.9V32.3l-12.7,4c-0.4,0.1-0.9,0-1.2-0.4L29.6,31V54.3z M28.5,26.7L45,21.2l-7.3-2.4
	c-2.1,2.3-5,3.5-8.1,3.5c-3.4,0-6.5-1.5-8.6-4.1l-9,3L28.5,26.7z M11.8,48.4l15.6,5.8V31.9l-2.6,4.4c-0.2,0.3-0.6,0.5-1,0.5
	c-0.3,0,0.3,0.1-12-3.9V48.4z M5.4,28.4c2,0.7,16,5.3,17.9,6l3.5-5.9L9,22.5L5.4,28.4z M18.5,11.1c0-0.5,0-1.1,0.1-1.6L3.2,14.3
	l5.6,5.6l11-3.6C18.9,14.7,18.5,12.9,18.5,11.1z M38.3,9c-1-4-4.5-6.7-8.6-6.7c-3.8,0-7.2,2.4-8.4,6c-0.3,0.9-0.5,1.9-0.5,2.9
	c0,1.8,0.6,3.6,1.6,5.1c1.7,2.4,4.4,3.8,7.3,3.8c2.7,0,5.2-1.2,6.9-3.3c1.3-1.6,2-3.5,2-5.6C38.5,10.4,38.4,9.7,38.3,9z M40.7,10.3
	c0,0.3,0,0.6,0,0.8c0,2-0.6,4-1.6,5.7l9.1,3l5.6-5.6L40.7,10.3z M29.3,15.3c-0.4,0.4-1.1,0.4-1.6,0L25.5,13c-0.4-0.4-0.4-1.1,0-1.6
	c0.4-0.4,1.1-0.4,1.6,0l1.4,1.4L34.4,7c0.4-0.4,1.1-0.4,1.6,0c0.4,0.4,0.4,1.1,0,1.6L29.3,15.3z M25.1,45.1
	c-0.2,0.6-0.9,0.9-1.4,0.7l-2.5-0.9c-0.6-0.2-0.9-0.9-0.7-1.4c0.2-0.6,0.9-0.9,1.4-0.7l2.5,0.9C25,43.9,25.3,44.5,25.1,45.1z
	 M17.4,43.4c-0.6,0-1.1-0.5-1.1-1.1c0-0.6,0.5-1.1,1.1-1.1c0.6,0,1.1,0.5,1.1,1.1C18.5,42.9,18,43.4,17.4,43.4z M17.8,45.9l6.7,2.5
	c0.6,0.2,0.9,0.9,0.7,1.4c-0.2,0.4-0.6,0.7-1,0.7c-0.1,0-0.3,0-0.4-0.1L17,48c-0.6-0.2-0.9-0.9-0.7-1.4C16.5,46,17.2,45.7,17.8,45.9
	z"/>
</svg>
