<?xml version="1.0" encoding="utf-8"?>
<!-- Generator: Adobe Illustrator 21.0.0, SVG Export Plug-In . SVG Version: 6.00 Build 0)  -->
<svg version="1.1" id="Слой_1" xmlns="http://www.w3.org/2000/svg" xmlns:xlink="http://www.w3.org/1999/xlink" x="0px" y="0px"
	 viewBox="0 0 60 60" style="enable-background:new 0 0 60 60;" xml:space="preserve">
<style type="text/css">
	.st0{fill:#FFD87A;}
</style>
<path id="Forma_1" class="st0" d="M40.6,9.7h-3.9V7.9c0-0.5-0.4-0.9-0.9-0.9S35,7.4,35,7.9v1.8h-7.2V7.9c0-0.5-0.4-0.9-0.9-0.9
	s-0.9,0.4-0.9,0.9v1.8h-7.1V7.9c0-0.5-0.4-0.9-0.9-0.9s-0.9,0.4-0.9,0.9v1.8H10V7.9C10,7.4,9.6,7,9.1,7S8.3,7.4,8.3,7.9v1.8H4.4
	C2,9.7,0,11.7,0,14.1v33.5C0,50,2,52,4.4,52h36.2c2.4,0,4.4-2,4.4-4.4V14.1C45,11.7,43,9.7,40.6,9.7z M43.2,47.6
	c0,1.5-1.2,2.6-2.6,2.6H4.4c-1.5,0-2.6-1.2-2.6-2.6V24.8h41.5V47.6L43.2,47.6z M43.2,23H1.8v-1.8h41.5V23L43.2,23z M43.2,19.5H1.8
	v-5.4c0-1.5,1.2-2.6,2.6-2.6h3.9v1.7c0,0.5,0.4,0.9,0.9,0.9s0.9-0.4,0.9-0.9l0,0v-1.7h7.2v1.7c0,0.5,0.4,0.9,0.9,0.9
	s0.9-0.4,0.9-0.9v-1.7h7.1v1.7c0,0.5,0.4,0.9,0.9,0.9s0.9-0.4,0.9-0.9v-1.7H35v1.7c0,0.5,0.4,0.9,0.9,0.9s0.9-0.4,0.9-0.9l0,0v-1.7
	h3.9c1.5,0,2.6,1.2,2.6,2.6L43.2,19.5L43.2,19.5z M35.9,15.8c-0.5,0-0.9,0.4-0.9,0.9c0,0.5,0.4,0.9,0.9,0.9c0.5,0,0.9-0.4,0.9-0.9
	l0,0C36.7,16.2,36.3,15.8,35.9,15.8L35.9,15.8z M26.9,15.8c-0.5,0-0.9,0.4-0.9,0.9c0,0.5,0.4,0.9,0.9,0.9c0.5,0,0.9-0.4,0.9-0.9
	C27.8,16.2,27.4,15.8,26.9,15.8C26.9,15.8,26.9,15.8,26.9,15.8L26.9,15.8z M18.1,15.8c-0.5,0-0.9,0.4-0.9,0.9c0,0.5,0.4,0.9,0.9,0.9
	c0.5,0,0.9-0.4,0.9-0.9C18.9,16.2,18.5,15.8,18.1,15.8L18.1,15.8z M9.1,15.8c-0.5,0-0.9,0.4-0.9,0.9c0,0.5,0.4,0.9,0.9,0.9
	c0.5,0,0.9-0.4,0.9-0.9l0,0C10,16.2,9.6,15.8,9.1,15.8C9.2,15.8,9.2,15.8,9.1,15.8L9.1,15.8z M5,31h2.6c0.5,0,0.9-0.4,0.9-0.8
	c0-0.5-0.4-0.9-0.8-0.9c0,0,0,0-0.1,0H5c-0.5,0-0.9,0.4-0.9,0.8C4,30.6,4.4,31,5,31C4.9,31,5,31,5,31z M7.6,44H5
	c-0.5,0-0.9,0.4-0.9,0.8c0,0.5,0.4,0.9,0.8,0.9c0,0,0,0,0.1,0h2.6c0.5,0,0.9-0.4,0.9-0.8C8.5,44.4,8.1,44,7.6,44
	C7.6,44,7.6,44,7.6,44z M13,31h2.6c0.5,0,0.9-0.4,0.9-0.8c0-0.5-0.4-0.9-0.8-0.9c0,0,0,0-0.1,0H13c-0.5,0-0.9,0.4-0.9,0.9
	C12.2,30.6,12.6,31,13,31L13,31z M15.7,44H13c-0.5,0-0.9,0.4-0.9,0.8c0,0.5,0.4,0.9,0.8,0.9c0,0,0,0,0.1,0h2.6
	c0.5,0,0.9-0.4,0.9-0.8C16.6,44.4,16.2,44,15.7,44C15.7,44,15.7,44,15.7,44z M23.8,44h-2.6c-0.5,0-0.9,0.4-0.9,0.8
	c0,0.5,0.4,0.9,0.8,0.9c0,0,0,0,0.1,0h2.6c0.5,0,0.9-0.4,0.9-0.9C24.7,44.4,24.3,44,23.8,44L23.8,44z M31.9,44h-2.6
	c-0.5,0-0.9,0.4-0.9,0.8c0,0.5,0.4,0.9,0.8,0.9c0,0,0,0,0.1,0h2.6c0.5,0,0.9-0.4,0.9-0.8C32.9,44.4,32.5,44,31.9,44
	C32,44,32,44,31.9,44z M40,36.6h-2.6c-0.5,0-0.9,0.4-0.9,0.9c0,0.5,0.4,0.9,0.9,0.9c0,0,0,0,0,0H40c0.5,0,0.9-0.4,0.9-0.9
	C40.9,37,40.5,36.6,40,36.6L40,36.6z M40,44h-2.6c-0.5,0-0.9,0.4-0.9,0.8c0,0.5,0.4,0.9,0.8,0.9c0,0,0,0,0.1,0H40
	c0.5,0,0.9-0.4,0.9-0.9C40.9,44.4,40.5,44,40,44L40,44z M37.5,30.1l-1.1,1.1c-0.3,0.3-0.4,0.9,0,1.2c0,0,0,0,0,0
	c0.3,0.3,0.9,0.3,1.2,0l1.1-1.1c0,0,1.1,1.1,1.1,1.1c0.3,0.3,0.9,0.3,1.3,0c0.3-0.3,0.3-0.9,0-1.2L40,30.1l1.1-1.1
	c0.3-0.3,0.3-0.9,0-1.2c-0.3-0.3-0.9-0.3-1.2,0l0,0l-1.1,1.1l-1.1-1.1c-0.3-0.3-0.9-0.3-1.2,0c0,0,0,0,0,0c-0.3,0.3-0.4,0.9,0,1.2
	c0,0,0,0,0,0L37.5,30.1z M29.4,30.1l-1.1,1.1c-0.3,0.3-0.3,0.9,0,1.2c0.3,0.3,0.9,0.3,1.2,0l1.1-1.1c0,0,1.1,1.1,1.1,1.1
	c0.4,0.3,0.9,0.3,1.2,0c0.3-0.3,0.3-0.9,0-1.2l-1.1-1.1L33,29c0.3-0.3,0.3-0.9,0-1.2c-0.3-0.3-0.9-0.3-1.2,0c0,0,0,0,0,0l-1.1,1.1
	l-1.1-1.1c-0.3-0.3-0.9-0.3-1.2,0c0,0,0,0,0,0c-0.3,0.3-0.3,0.9,0,1.2L29.4,30.1z M21.2,30.1l-1.1,1.1c-0.3,0.3-0.4,0.9,0,1.2
	c0,0,0,0,0,0c0.3,0.3,0.9,0.3,1.2,0l1.1-1.1l1.1,1.1c0.3,0.3,0.9,0.3,1.3,0c0.3-0.3,0.3-0.9,0-1.2l-1.1-1.1l1.1-1.1
	c0.3-0.3,0.3-0.9,0-1.2c-0.3-0.3-0.9-0.3-1.2,0l0,0l-1.1,1.1l-1.1-1.1c-0.3-0.3-0.9-0.3-1.2,0c0,0,0,0,0,0c-0.3,0.3-0.4,0.9,0,1.2
	c0,0,0,0,0,0L21.2,30.1z M24.9,35.1c-0.3-0.3-0.9-0.3-1.2,0c0,0,0,0,0,0l-1.1,1.1l-1.1-1.1c-0.3-0.3-0.9-0.3-1.2,0c0,0,0,0,0,0
	c-0.3,0.3-0.4,0.9,0,1.2c0,0,0,0,0,0l1.1,1.1l-1.1,1.1c-0.3,0.3-0.4,0.9,0,1.2c0,0,0,0,0,0c0.3,0.3,0.9,0.3,1.2,0l1.1-1.1l1.1,1.1
	c0.3,0.3,0.9,0.3,1.2,0c0.3-0.3,0.4-0.9,0-1.2c0,0,0,0,0,0l-1.1-1.1l1.1-1.1C25.3,36,25.3,35.5,24.9,35.1
	C24.9,35.1,24.9,35.1,24.9,35.1L24.9,35.1z M29.4,37.5l-1.1,1.1c-0.3,0.3-0.4,0.9,0,1.2c0.3,0.3,0.9,0.4,1.2,0c0,0,0,0,0,0l1.1-1.1
	c0,0,1.1,1.1,1.1,1.1c0.3,0.3,0.9,0.3,1.2,0c0.3-0.3,0.3-0.9,0-1.2l-1.1-1.1l1.1-1.1c0.3-0.4,0.3-0.9,0-1.2c-0.3-0.3-0.9-0.3-1.2,0
	l-1.1,1.1l-1.1-1.1c-0.3-0.4-0.9-0.4-1.2,0c-0.4,0.3-0.4,0.9,0,1.2c0,0,0,0,0,0L29.4,37.5z M13.2,37.5l-1.1,1.1
	c-0.3,0.3-0.4,0.9,0,1.2c0.3,0.3,0.9,0.4,1.2,0c0,0,0,0,0,0l1.1-1.1c0,0,1.1,1.1,1.1,1.1c0.3,0.3,0.9,0.3,1.2,0
	c0.3-0.3,0.3-0.9,0-1.2l-1.1-1.1l1.1-1.1c0.3-0.3,0.3-0.9,0-1.2c-0.3-0.3-0.9-0.3-1.2,0c0,0,0,0,0,0l-1.1,1.1l-1.1-1.1
	c-0.3-0.4-0.9-0.4-1.2,0c-0.4,0.3-0.4,0.9,0,1.2c0,0,0,0,0,0L13.2,37.5z M5,37.5l-1.1,1.1c-0.3,0.3-0.4,0.9,0,1.2c0,0,0,0,0,0
	c0.3,0.3,0.9,0.3,1.2,0l1.1-1.1c0,0,1.1,1.1,1.1,1.1c0.3,0.3,0.9,0.3,1.3,0C9,39.5,9,39,8.7,38.6l-1.1-1.1l1.1-1.1
	C9,36,9,35.5,8.7,35.1c-0.3-0.3-0.9-0.3-1.2,0l0,0l-1.1,1.1l-1.1-1.1c-0.3-0.3-0.9-0.3-1.2,0c0,0,0,0,0,0c-0.3,0.3-0.4,0.9,0,1.2
	c0,0,0,0,0,0L5,37.5z"/>
</svg>
