<?xml version="1.0" encoding="utf-8"?>
<!-- Generator: Adobe Illustrator 21.0.0, SVG Export Plug-In . SVG Version: 6.00 Build 0)  -->
<svg version="1.1" id="Слой_1" xmlns="http://www.w3.org/2000/svg" xmlns:xlink="http://www.w3.org/1999/xlink" x="0px" y="0px"
	 viewBox="0 0 66 70" style="enable-background:new 0 0 66 70;" xml:space="preserve">
<style type="text/css">
	.st0{fill:#E61D25;}
</style>
<path id="Forma_1" class="st0" d="M52.3,15.5h-5v-2.4c0-0.6-0.5-1.1-1.1-1.1s-1.1,0.5-1.1,1.1v2.4h-9.2v-2.4c0-0.6-0.5-1.1-1.1-1.1
	c-0.6,0-1.1,0.5-1.1,1.1v2.4h-9.2v-2.4c0-0.6-0.5-1.1-1.1-1.1c-0.6,0-1.1,0.5-1.1,1.1v2.4h-9.2v-2.4c0-0.6-0.5-1.1-1.1-1.1
	s-1.1,0.5-1.1,1.1v2.4h-5c-3.1,0-5.7,2.5-5.7,5.7v43.2C0,67.5,2.5,70,5.7,70h46.7c3.1,0,5.7-2.5,5.7-5.7V21.2
	C58,18.1,55.5,15.5,52.3,15.5z M55.7,64.3c0,1.9-1.5,3.4-3.4,3.4H5.7c-1.9,0-3.4-1.5-3.4-3.4V34.9h53.5L55.7,64.3L55.7,64.3z
	 M55.7,32.6H2.3v-2.3h53.5V32.6z M55.7,28.1H2.3v-6.9c0-1.9,1.5-3.4,3.4-3.4h5V20c0,0.6,0.5,1.1,1.1,1.1s1.1-0.5,1.1-1.1l0,0v-2.2
	h9.2v2.1c0,0.6,0.5,1.1,1.1,1.1s1.1-0.5,1.1-1.1v-2.1h9.2v2.1c0,0.6,0.5,1.1,1.1,1.1s1.1-0.5,1.1-1.1v-2.1h9.2V20
	c0,0.6,0.5,1.1,1.1,1.1s1.1-0.5,1.1-1.1l0,0v-2.2h5c1.9,0,3.4,1.5,3.4,3.4L55.7,28.1L55.7,28.1z M46.2,23.4c-0.6,0-1.1,0.5-1.1,1.1
	c0,0.6,0.5,1.1,1.1,1.1s1.1-0.5,1.1-1.1C47.3,23.9,46.8,23.4,46.2,23.4z M34.7,23.3c-0.6,0-1.1,0.5-1.1,1.1c0,0.6,0.5,1.1,1.1,1.1
	c0.6,0,1.1-0.5,1.1-1.1l0,0C35.8,23.8,35.3,23.3,34.7,23.3z M23.3,23.3c-0.6,0-1.1,0.5-1.1,1.1c0,0.6,0.5,1.1,1.1,1.1
	c0.6,0,1.1-0.5,1.1-1.1l0,0C24.4,23.8,23.9,23.3,23.3,23.3z M11.8,23.4c-0.6,0-1.1,0.5-1.1,1.1c0,0.6,0.5,1.1,1.1,1.1
	c0.6,0,1.1-0.5,1.1-1.1l0,0C12.9,23.9,12.4,23.4,11.8,23.4C11.8,23.4,11.8,23.4,11.8,23.4z M6.4,42.9h3.4c0.6,0,1.1-0.5,1.1-1.1
	s-0.5-1.1-1.1-1.1H6.4c-0.6,0-1.1,0.5-1.1,1.2C5.3,42.4,5.8,42.9,6.4,42.9L6.4,42.9z M9.8,59.7H6.4c-0.6,0-1.1,0.5-1.1,1.1
	S5.8,62,6.4,62h3.4c0.6,0,1.1-0.5,1.1-1.1C10.9,60.2,10.4,59.7,9.8,59.7L9.8,59.7z M16.8,42.9h3.4c0.6,0,1.1-0.5,1.1-1.1
	s-0.5-1.1-1.1-1.1h-3.4c-0.7,0-1.3,0.4-1.3,1.1s0.6,1.3,1.3,1.3C16.8,43.1,16.8,43.1,16.8,42.9L16.8,42.9z M20.2,59.7h-3.4
	c-0.6,0-1.1,0.5-1.1,1.1s0.5,1.1,1.1,1.1l0,0h3.4c0.6-0.3,0.8-1,0.5-1.6C20.6,60.1,20.4,59.9,20.2,59.7L20.2,59.7z M30.6,59.7h-3.4
	c-0.6,0-1.1,0.5-1.1,1.1s0.5,1.1,1.1,1.1l0,0h3.4c0.6,0.3,1.3-0.1,1.6-0.7c0.3-0.6,0-1.2-0.5-1.5C31.3,59.7,31,59.7,30.6,59.7
	L30.6,59.7z M41.2,59.7h-3.4c-0.6,0-1.1,0.5-1.1,1.1s0.5,1.1,1.1,1.1l0,0h3.4c0.6-0.3,0.8-1,0.5-1.6C41.6,60.1,41.4,59.9,41.2,59.7
	L41.2,59.7z M51.6,50.2h-3.4c-0.6,0-1.1,0.5-1.1,1.1c0,0.6,0.5,1.1,1.1,1.1h3.4c0.7,0,1.2-0.5,1.2-1.1
	C52.8,50.7,52.3,50.1,51.6,50.2C51.6,50.1,51.6,50.1,51.6,50.2L51.6,50.2z M51.6,59.7h-3.4c-0.6,0-1.1,0.5-1.1,1.1s0.5,1.1,1.1,1.1
	h3.4c0.6,0,1.2-0.5,1.2-1.1C52.8,60.2,52.2,59.7,51.6,59.7L51.6,59.7z M48.3,41.8l-1.5,1.5c-0.4,0.4-0.4,1.2,0,1.6
	c0.5,0.4,1.2,0.4,1.6,0l1.5-1.5c0,0,1.5,1.5,1.5,1.5c0.4,0.4,1.2,0.4,1.6,0c0.4-0.4,0.4-1.2,0-1.6l0,0l-1.5-1.5l1.5-1.5
	c0.4-0.4,0.5-1.2,0-1.6c-0.4-0.4-1.2-0.5-1.6,0c0,0,0,0,0,0l-1.5,1.5l-1.5-1.5c-0.4-0.4-1.2-0.5-1.6,0s-0.5,1.2,0,1.6c0,0,0,0,0,0
	L48.3,41.8z M37.9,41.8l-1.5,1.5c-0.4,0.4-0.4,1.2,0,1.6c0.4,0.4,1.2,0.4,1.6,0l1.5-1.5l1.5,1.5c0.4,0.4,1.2,0.4,1.6,0
	c0.4-0.4,0.4-1.2,0-1.6l-1.5-1.5l1.5-1.5c0.4-0.4,0.5-1.2,0-1.6c-0.4-0.4-1.2-0.5-1.6,0c0,0,0,0,0,0l-1.5,1.5L38,38.7
	c-0.4-0.4-1.1-0.5-1.6,0c0,0,0,0,0,0c-0.4,0.4-0.4,1.2,0,1.6L37.9,41.8z M27.3,41.8l-1.5,1.5c-0.4,0.4-0.5,1.1,0,1.6c0,0,0,0,0,0
	c0.4,0.4,1.2,0.4,1.6,0l1.5-1.5l1.5,1.5c0.4,0.4,1.2,0.4,1.6,0c0.4-0.4,0.4-1.2,0-1.6l-1.5-1.5l1.5-1.5c0.4-0.4,0.4-1.2,0-1.6
	c-0.4-0.4-1.1-0.5-1.6,0c0,0,0,0,0,0l-1.5,1.5l-1.5-1.5c-0.4-0.4-1.2-0.4-1.6,0c-0.4,0.4-0.4,1.2,0,1.6l0,0L27.3,41.8z M32.1,48.2
	c-0.4-0.4-1.2-0.4-1.6,0l-1.5,1.5l-1.5-1.5c-0.4-0.4-1.2-0.4-1.6,0c-0.4,0.4-0.4,1.2,0,1.6l1.5,1.5L26,52.8c-0.4,0.4-0.4,1.2,0,1.6
	c0.4,0.4,1.2,0.4,1.6,0l1.5-1.5c0,0,1.5,1.5,1.5,1.5c0.4,0.4,1.2,0.4,1.6,0c0.4-0.4,0.5-1.2,0-1.6c0,0,0,0,0,0l-1.5-1.5l1.5-1.5
	C32.5,49.4,32.4,48.7,32.1,48.2L32.1,48.2z M37.9,51.3l-1.5,1.5c-0.4,0.4-0.4,1.2,0,1.6c0.4,0.4,1.2,0.4,1.6,0l1.5-1.5
	c0,0,1.5,1.5,1.5,1.5c0.5,0.4,1.2,0.4,1.6,0c0.4-0.4,0.4-1.2,0-1.6l-1.5-1.5l1.5-1.5c0.4-0.4,0.4-1.2,0-1.6c-0.4-0.4-1.2-0.4-1.6,0
	l-1.5,1.5L38,48.2c-0.4-0.4-1.2-0.4-1.6,0c-0.4,0.4-0.4,1.2,0,1.6l0,0L37.9,51.3z M17,51.3l-1.5,1.5c-0.4,0.4-0.4,1.2,0,1.6
	c0.4,0.4,1.2,0.4,1.6,0l1.5-1.5c0,0,1.5,1.5,1.5,1.5c0.4,0.4,1.2,0.4,1.6,0c0.4-0.4,0.4-1.2,0-1.6l-1.5-1.5l1.5-1.5
	c0.4-0.4,0.4-1.2,0-1.6c-0.4-0.4-1.2-0.4-1.6,0l-1.5,1.5l-1.5-1.5c-0.4-0.4-1.2-0.4-1.6,0c-0.4,0.4-0.4,1.2,0,1.6l0,0L17,51.3z
	 M6.5,51.3L5,52.8c-0.4,0.4-0.4,1.2,0,1.6c0.5,0.4,1.2,0.4,1.6,0l1.5-1.5c0,0,1.5,1.5,1.5,1.5c0.5,0.4,1.2,0.4,1.6,0
	c0.4-0.4,0.4-1.2,0-1.6l-1.5-1.5l1.5-1.5c0.4-0.4,0.4-1.2,0-1.6c-0.4-0.4-1.2-0.4-1.6,0l-1.5,1.5l-1.5-1.5c-0.4-0.4-1.2-0.4-1.6,0
	c-0.4,0.4-0.4,1.2,0,1.6l0,0L6.5,51.3z"/>
</svg>
