<?xml version="1.0" encoding="utf-8"?>
<!-- Generator: Adobe Illustrator 21.0.0, SVG Export Plug-In . SVG Version: 6.00 Build 0)  -->
<svg version="1.1" id="Слой_1" xmlns="http://www.w3.org/2000/svg" xmlns:xlink="http://www.w3.org/1999/xlink" x="0px" y="0px"
	 viewBox="0 0 60 70" style="enable-background:new 0 0 60 70;" xml:space="preserve">
<style type="text/css">
	.st0{fill:#F1CC75;}
</style>
<path id="Forma_1" class="st0" d="M51.3,63.7h-3.5v-2.3c0-0.9-0.7-1.7-1.7-1.7h-5v-4.3h1.1c0.9,0,1.7-0.8,1.7-1.7v-2.4
	c3.2-0.1,6.1-1.9,7.6-4.7l0.9-1.7c0.3-0.6,0.3-1.4-0.2-1.9c-0.4-0.5-1.2-0.7-1.8-0.5c-1,0.3-2,0.6-3,0.8l-0.1,0l-4.4-1.8
	c-2.4-1-4.5-2.7-6-4.9c-0.3-0.4-0.7-0.7-1.2-0.8v-5.9h4c3.2,0,6.2-1.8,7.7-4.7l0.9-1.7c0.3-0.6,0.3-1.4-0.2-1.9
	c-0.4-0.5-1.2-0.7-1.8-0.5c-1.2,0.4-2.5,0.7-3.7,1L39,20.3c-3.4-1.7-6.3-4-8.7-6.9c0.8-1.1,0.8-2.7-0.1-3.7c0.5-0.7,0.7-1.5,0.7-2.4
	V7.1c0-2-1.4-3.8-3.4-4.3V1c0-0.6-0.5-1-1-1c-0.6,0-1,0.5-1,1c0,0,0,0,0,0v1.8c-2,0.5-3.4,2.3-3.4,4.3v0.1c0,0.8,0.2,1.7,0.7,2.4
	c-0.9,1.1-0.9,2.6-0.1,3.7c-2.3,2.9-5.3,5.3-8.7,6.9l-3.6,1.8c0,0-0.1,0-0.1,0.1c-1.3-0.2-2.5-0.6-3.7-1c-0.6-0.2-1.4,0-1.8,0.5
	c-0.4,0.5-0.5,1.3-0.2,1.9l0.9,1.7c1.5,2.9,4.5,4.7,7.7,4.7h4v5.9c-0.5,0-1,0.3-1.2,0.8c-1.4,2.2-3.5,3.9-6,4.9l-4.5,1.8
	c-1-0.2-2-0.5-3-0.8c-0.6-0.2-1.4,0-1.8,0.5c-0.4,0.5-0.5,1.3-0.2,1.9l0.9,1.7c1.5,2.8,4.4,4.6,7.6,4.7v2.4c0,0.9,0.7,1.7,1.7,1.7
	h1.1v4.3h-5c-0.9,0-1.7,0.8-1.7,1.7v2.3H1.7c-0.9,0-1.7,0.8-1.7,1.7v2.9C0,69.2,0.7,70,1.7,70h49.7c0.9,0,1.7-0.8,1.7-1.7v-2.9
	C53,64.5,52.3,63.7,51.3,63.7z M24.1,7.1c0-1.3,1.1-2.4,2.4-2.4c1.3,0,2.4,1.1,2.4,2.4v0.1c0,1.3-1.1,2.4-2.4,2.4
	c-1.3,0-2.4-1.1-2.4-2.4c0,0,0,0,0,0L24.1,7.1L24.1,7.1z M24.3,11c1.4,0.8,3.1,0.8,4.4,0c0.1,0.2,0.1,0.3,0.1,0.5c0,0.5-0.4,1-0.9,1
	h-2.9c-0.5,0-0.9-0.4-0.9-1C24.1,11.3,24.2,11.2,24.3,11L24.3,11z M14.9,22.1c3.7-1.8,6.9-4.4,9.5-7.6c0.2,0.1,0.5,0.1,0.7,0.1h2.9
	c0.2,0,0.5,0,0.7-0.1c2.6,3.2,5.8,5.8,9.5,7.6l0.9,0.4c-0.4,0-0.9,0-1.3,0H15.3c-0.4,0-0.9,0-1.3,0L14.9,22.1z M13.2,27.9
	c-2.5,0-4.8-1.4-6-3.6l-0.5-0.9c2.8,0.8,5.6,1.3,8.5,1.3h22.3c2.9,0,5.8-0.4,8.5-1.3l-0.5,0.9c-1.2,2.2-3.5,3.6-6,3.6H13.2
	L13.2,27.9z M33.7,29.9v5.9h-3.2v-5.9H33.7L33.7,29.9z M28.5,29.9L28.5,29.9v5.9h-4v-5.9H28.5z M22.5,29.9L22.5,29.9v5.9h-3.2v-5.9
	H22.5L22.5,29.9z M10.8,43.4c2.8-1.1,5.1-3.1,6.8-5.6h17.8c1.7,2.5,4,4.4,6.8,5.6l1.2,0.5c-0.6,0-1.1,0.1-1.7,0.1H11.3
	c-0.6,0-1.1,0-1.7-0.1L10.8,43.4z M9.2,49.3c-2.5,0-4.8-1.4-6-3.6l-0.5-0.9c2.8,0.8,5.6,1.3,8.5,1.3h30.4c2.9,0,5.8-0.4,8.5-1.3
	l-0.5,0.9c-1.2,2.2-3.5,3.6-6,3.6H9.2L9.2,49.3z M11.1,53.4v-2h30.7v2H11.1L11.1,53.4z M39.1,59.7h-6v-4.3h6L39.1,59.7L39.1,59.7z
	 M31.1,55.4v4.3h-9.2v-4.3H31.1z M19.9,55.4v4.3h-6v-4.3H19.9z M51,68H2v-2.2h31.6c0.6,0,1-0.5,1-1c0-0.6-0.5-1-1-1H7.2v-1.9h38.5
	v1.9h-8c-0.6,0-1,0.5-1,1c0,0.6,0.5,1,1,1H51L51,68L51,68z"/>
</svg>
