<?xml version="1.0" encoding="utf-8"?>
<!-- Generator: Adobe Illustrator 21.0.0, SVG Export Plug-In . SVG Version: 6.00 Build 0)  -->
<svg version="1.1" id="Слой_1" xmlns="http://www.w3.org/2000/svg" xmlns:xlink="http://www.w3.org/1999/xlink" x="0px" y="0px"
	 viewBox="0 0 29.8 28" style="enable-background:new 0 0 29.8 28;" xml:space="preserve">
<style type="text/css">
	.st0{fill:#E61D25;}
</style>
<path class="st0" d="M27.2,11.6c-0.7,0-1.2,0.5-1.2,1.2V14c0,3.1-1.2,6.1-3.5,8.2c-2.2,2.2-5.2,3.4-8.3,3.4h0
	C7.7,25.7,2.4,20.5,2.4,14c0-3.1,1.3-6.1,3.5-8.2c2.2-2.2,5.2-3.4,8.4-3.4l0,0c1.7,0,3.3,0.3,4.8,1c0.6,0.3,1.3,0,1.6-0.6
	c0.3-0.6,0-1.3-0.6-1.6c0,0,0,0,0,0C18.2,0.4,16.2,0,14.2,0h0C10.5,0,6.8,1.5,4.2,4.1c-5.5,5.3-5.6,14.1-0.2,19.6
	c0.1,0.1,0.1,0.1,0.2,0.2c2.7,2.6,6.3,4.1,10.1,4.1h0c3.8,0,7.4-1.5,10.1-4.1c2.7-2.6,4.2-6.2,4.2-9.9v-1.2
	C28.4,12.2,27.9,11.6,27.2,11.6z M29.4,1.6c-0.5-0.5-1.2-0.5-1.7,0L14.2,14.9l-3.1-3c-0.5-0.5-1.2-0.5-1.7,0c-0.5,0.5-0.5,1.2,0,1.7
	c0,0,0,0,0,0l3.9,3.8c0.2,0.2,0.5,0.3,0.8,0.3c0.3,0,0.6-0.1,0.8-0.3L29.4,3.3C29.9,2.9,29.8,2.1,29.4,1.6
	C29.4,1.6,29.4,1.6,29.4,1.6L29.4,1.6z"/>
</svg>
