<?xml version="1.0" encoding="utf-8"?>
<!-- Generator: Adobe Illustrator 21.0.0, SVG Export Plug-In . SVG Version: 6.00 Build 0)  -->
<svg version="1.1" id="Слой_1" xmlns="http://www.w3.org/2000/svg" xmlns:xlink="http://www.w3.org/1999/xlink" x="0px" y="0px"
	 viewBox="0 0 60 60" style="enable-background:new 0 0 60 60;" xml:space="preserve">
<style type="text/css">
	.st0{fill:#E61D25;}
</style>
<path class="st0" d="M50.2,18.3L39,10.1c-0.4-0.3-1-0.2-1.3,0.2c0,0,0,0,0,0c-0.3,0.4-0.2,1,0.2,1.3l11.2,8.2
	c0.2,0.1,0.4,0.2,0.6,0.2c0.5,0,0.9-0.4,0.9-0.9C50.6,18.8,50.4,18.5,50.2,18.3z M22.6,13.9c-0.1-0.5-0.6-0.9-1.1-0.8L7.9,15.3
	c-0.5,0.1-0.9,0.6-0.8,1.1c0.1,0.4,0.5,0.8,0.9,0.8c0.1,0,0.1,0,0.2,0l13.7-2.2C22.3,14.8,22.7,14.4,22.6,13.9L22.6,13.9z
	 M59.6,15.4L38.8,0.2c-0.4-0.3-1-0.2-1.3,0.2c0,0,0,0,0,0L28.5,13L27.2,5c0-0.2-0.2-0.5-0.4-0.6c-0.2-0.1-0.4-0.2-0.7-0.2L0.8,8.3
	C0.3,8.4-0.1,8.9,0,9.4l5,31.5c0,0.2,0.2,0.5,0.4,0.6c0.2,0.1,0.3,0.2,0.5,0.2c0.1,0,0.1,0,0.2,0l5.8-0.9v10c0,0.5,0.4,0.9,0.9,0.9
	c0,0,0,0,0,0h25.7c0.5,0,0.9-0.4,0.9-0.9c0,0,0,0,0,0v-2.6c0.6-0.4,1.2-0.8,1.8-1.3l2.3,2.3l-0.7,0.8c-0.4,0.4-0.4,1,0,1.3l8.4,8.5
	c0.2,0.2,0.4,0.3,0.7,0.3c0.2,0,0.5-0.1,0.7-0.3l2.8-2.8c0.4-0.4,0.4-1,0-1.3l-8.4-8.5c-0.2-0.2-0.4-0.3-0.7-0.3
	c-0.2,0-0.5,0.1-0.7,0.3l-0.8,0.8l-2.3-2.3c1.8-2.2,2.8-4.9,2.8-7.7c0-0.3,0-0.6,0-0.9l14.5-20.2C60.1,16.3,60,15.7,59.6,15.4
	C59.6,15.4,59.6,15.4,59.6,15.4L59.6,15.4z M46.2,49.1l7.1,7.1l-1.5,1.5l-7.1-7.1L46.2,49.1z M11.9,18.9v3.8l-2.8,0.4
	c-0.5,0.1-0.9,0.6-0.8,1.1C8.4,24.7,8.8,25,9.3,25c0,0,0.1,0,0.1,0l2.5-0.4v6.2L10.4,31c-0.5,0.1-0.9,0.6-0.8,1.1
	c0.1,0.5,0.5,0.8,0.9,0.8c0,0,0.1,0,0.1,0l1.2-0.2v6.2l-5.2,0.8L2,10l23.5-3.8l1.4,8.9l-2,2.8H12.8C12.3,17.9,11.9,18.4,11.9,18.9
	C11.9,18.9,11.9,18.9,11.9,18.9L11.9,18.9z M37.6,49.8H13.7v-30h23.8v6.8c-1.3-0.5-2.6-0.7-4-0.7c-0.3,0-0.5,0-0.8,0
	c-0.1,0-0.1,0-0.2,0H18.7c-0.5,0-0.9,0.4-0.9,1c0,0.5,0.4,0.9,0.9,0.9h8.5c-1,0.7-1.9,1.5-2.7,2.4c-0.9,1.1-1.6,2.4-2.1,3.7h-3.7
	c-0.5,0-0.9,0.4-0.9,1c0,0.5,0.4,0.9,0.9,0.9h3.2c-0.4,2-0.2,4.2,0.5,6.1h-3.7c-0.5,0-0.9,0.4-0.9,1c0,0.5,0.4,0.9,0.9,0.9h4.6
	c2.1,3.7,6,6,10.2,6c1.4,0,2.7-0.2,4-0.7L37.6,49.8L37.6,49.8L37.6,49.8z M40.6,44.9L40.6,44.9c-0.7,0.7-1.6,1.4-2.5,1.8
	c-1.4,0.7-2.9,1.1-4.5,1.1c-3.8,0-7.2-2.1-8.9-5.5l0,0c-0.7-1.4-1.1-3-1.1-4.6c0-2.4,0.8-4.6,2.3-6.4c1.9-2.3,4.7-3.6,7.6-3.6
	c1.6,0,3.1,0.4,4.5,1.1c3,1.5,5,4.5,5.4,7.8l0,0C43.8,39.7,42.7,42.8,40.6,44.9L40.6,44.9z M44.8,34.4C44,31.5,42,29,39.4,27.5v-4.9
	l5,3.7c0.2,0.1,0.3,0.2,0.5,0.2c0.3,0,0.6-0.1,0.8-0.4c0.3-0.4,0.2-1-0.2-1.3l-6.1-4.5v-1.4c0-0.5-0.4-0.9-0.9-0.9c0,0,0,0,0,0h-2.3
	l-1.8-1.3c-0.4-0.3-1-0.2-1.3,0.2c0,0,0,0,0,0c-0.2,0.3-0.2,0.8,0,1.1h-5.9l1.5-2l0,0l9.8-13.7l19.3,14.1L44.8,34.4z M33.5,29.9
	c-4.4,0-7.9,3.5-8,7.8c0,4.4,3.5,7.9,7.8,8c4.4,0,7.9-3.5,8-7.8c0,0,0,0,0-0.1C41.4,33.5,37.9,29.9,33.5,29.9L33.5,29.9z M33.5,43.9
	c-3.3,0-6.1-2.7-6.1-6s2.7-6.1,6-6.1s6.1,2.7,6.1,6c0,0,0,0,0,0.1C39.5,41.1,36.9,43.8,33.5,43.9L33.5,43.9z M36.2,37.7
	c-0.4-0.4-0.9-0.4-1.3,0c0,0,0,0,0,0l-2.5,2.5c-0.4,0.4-0.4,0.9,0,1.3c0,0,0,0,0,0c0.2,0.2,0.4,0.3,0.7,0.3c0.2,0,0.5-0.1,0.7-0.3
	l2.5-2.5C36.5,38.6,36.5,38,36.2,37.7L36.2,37.7z M35.2,33.7c-0.4-0.4-0.9-0.4-1.3,0c0,0,0,0,0,0l-2.7,2.7c-0.4,0.4-0.4,1,0,1.3
	c0.4,0.4,0.9,0.4,1.3,0c0,0,0,0,0,0l2.7-2.7C35.5,34.6,35.5,34,35.2,33.7L35.2,33.7z"/>
</svg>
