<?xml version="1.0" encoding="utf-8"?>
<!-- Generator: Adobe Illustrator 22.1.0, SVG Export Plug-In . SVG Version: 6.00 Build 0)  -->
<svg version="1.1" id="Layer_1" xmlns="http://www.w3.org/2000/svg" xmlns:xlink="http://www.w3.org/1999/xlink" x="0px" y="0px"
	 width="59px" height="56.6px" viewBox="0 0 59 56.6" style="enable-background:new 0 0 59 56.6;" xml:space="preserve">
<g id="XMLID_806_">
	<g id="XMLID_386_">
		<path id="XMLID_389_" style="fill:#FFD87A;" d="M58.9,31c-0.5-5.3-2.9-10.4-6.7-14.1c-3.2-3.2-7.2-5.3-11.4-6.3V7.7
			c1.7-0.4,3-2,3-3.8C43.8,1.8,42,0,39.9,0h-8.3c-2.2,0-3.9,1.8-3.9,3.9c0,1.8,1.3,3.4,3,3.8v2.9c-4.2,0.9-8.1,3-11.3,6.2
			c-0.7,0.7-1.4,1.4-2,2.2c0,0-0.1,0-0.1,0H9c-0.6,0-1.2,0.5-1.2,1.2c0,0.6,0.5,1.2,1.2,1.2h6.7c-0.8,1.4-1.5,2.9-2,4.4H1.2
			C0.5,25.8,0,26.4,0,27c0,0.6,0.5,1.2,1.2,1.2H13c-0.3,1.5-0.5,2.9-0.6,4.4H7.4c-0.6,0-1.2,0.5-1.2,1.2c0,0.6,0.5,1.2,1.2,1.2h5.1
			c0.1,1.5,0.3,3,0.7,4.4H5.8c-0.6,0-1.2,0.5-1.2,1.2c0,0.6,0.5,1.2,1.2,1.2H14c1.1,3,2.9,5.8,5.3,8.2c3.8,3.8,8.8,6.2,14.2,6.7
			c0.8,0.1,1.5,0.1,2.3,0.1c4.5,0,8.9-1.3,12.7-3.8c0.5-0.3,0.7-1.1,0.3-1.6c-0.3-0.5-1.1-0.7-1.6-0.3c-8.2,5.4-19.3,4.2-26.3-2.8
			c-8.2-8.2-8.2-21.5,0-29.7c8.2-8.2,21.5-8.2,29.7,0c7,7,8.1,18,2.8,26.2c-0.3,0.5-0.2,1.2,0.3,1.6c0.5,0.3,1.2,0.2,1.6-0.3
			C58.1,41.6,59.4,36.3,58.9,31z M29.9,3.9c0-0.9,0.7-1.6,1.6-1.6h8.3c0.9,0,1.6,0.7,1.6,1.6s-0.7,1.6-1.6,1.6h-0.2h-7.9h-0.2
			C30.7,5.5,29.9,4.8,29.9,3.9z M32.9,10.3V7.8h5.6v2.4C36.6,10,34.8,10,32.9,10.3z"/>
		<path id="XMLID_391_" style="fill:#FFD87A;" d="M51.4,47.9c-0.3,0-0.6,0.1-0.8,0.3c-0.2,0.2-0.3,0.5-0.3,0.8
			c0,0.3,0.1,0.6,0.3,0.8c0.2,0.2,0.5,0.3,0.8,0.3c0.3,0,0.6-0.1,0.8-0.3c0.2-0.2,0.3-0.5,0.3-0.8c0-0.3-0.1-0.6-0.3-0.8
			C52,48,51.7,47.9,51.4,47.9z"/>
		<path id="XMLID_394_" style="fill:#FFD87A;" d="M35.7,15.5c-9.9,0-17.9,8-17.9,17.9s8,17.9,17.9,17.9s17.9-8,17.9-17.9
			S45.6,15.5,35.7,15.5z M35.7,48.9c-8.6,0-15.6-7-15.6-15.6s7-15.6,15.6-15.6s15.6,7,15.6,15.6S44.3,48.9,35.7,48.9z"/>
		<path id="XMLID_397_" style="fill:#FFD87A;" d="M43,24.4l-5.7,5.7c-0.5-0.2-1-0.4-1.6-0.4c-0.6,0-1.1,0.1-1.6,0.4l-2.6-2.6
			c-0.5-0.4-1.2-0.4-1.6,0c-0.4,0.4-0.4,1.2,0,1.6l2.6,2.6c-0.2,0.5-0.4,1-0.4,1.6c0,2,1.6,3.6,3.6,3.6s3.6-1.6,3.6-3.6
			c0-0.6-0.1-1.1-0.4-1.6l5.5-5.5l0,0l0.2-0.2c0.4-0.4,0.4-1.2,0-1.6S43.5,24,43,24.4z M35.7,34.6c-0.7,0-1.3-0.6-1.3-1.3
			c0-0.7,0.6-1.3,1.3-1.3s1.3,0.6,1.3,1.3C37,34.1,36.4,34.6,35.7,34.6z"/>
		<path id="XMLID_398_" style="fill:#FFD87A;" d="M48,32.2H47c-0.6,0-1.2,0.5-1.2,1.2c0,0.6,0.5,1.2,1.2,1.2H48
			c0.6,0,1.2-0.5,1.2-1.2C49.2,32.7,48.7,32.2,48,32.2z"/>
		<path id="XMLID_399_" style="fill:#FFD87A;" d="M24.5,32.2h-1.1c-0.6,0-1.2,0.5-1.2,1.2c0,0.6,0.5,1.2,1.2,1.2h1.1
			c0.6,0,1.2-0.5,1.2-1.2C25.6,32.7,25.1,32.2,24.5,32.2z"/>
		<path id="XMLID_400_" style="fill:#FFD87A;" d="M35.7,23.3c0.6,0,1.2-0.5,1.2-1.2V21c0-0.6-0.5-1.2-1.2-1.2s-1.2,0.5-1.2,1.2v1.1
			C34.6,22.7,35.1,23.3,35.7,23.3z"/>
		<path id="XMLID_424_" style="fill:#FFD87A;" d="M35.7,43.5c-0.6,0-1.2,0.5-1.2,1.2v1.1c0,0.6,0.5,1.2,1.2,1.2s1.2-0.5,1.2-1.2
			v-1.1C36.9,44,36.3,43.5,35.7,43.5z"/>
		<path id="XMLID_425_" style="fill:#FFD87A;" d="M1.2,39.3c-0.3,0-0.6,0.1-0.8,0.3C0.1,39.9,0,40.2,0,40.5c0,0.3,0.1,0.6,0.3,0.8
			c0.2,0.2,0.5,0.3,0.8,0.3s0.6-0.1,0.8-0.3c0.2-0.2,0.3-0.5,0.3-0.8c0-0.3-0.1-0.6-0.3-0.8C1.8,39.4,1.5,39.3,1.2,39.3z"/>
	</g>
</g>
</svg>
