<?xml version="1.0" encoding="utf-8"?>
<!-- Generator: Adobe Illustrator 21.0.0, SVG Export Plug-In . SVG Version: 6.00 Build 0)  -->
<svg version="1.1" id="Слой_1" xmlns="http://www.w3.org/2000/svg" xmlns:xlink="http://www.w3.org/1999/xlink" x="0px" y="0px"
	 viewBox="0 0 60 60" style="enable-background:new 0 0 60 60;" xml:space="preserve">
<style type="text/css">
	.st0{fill:#E61D25;}
</style>
<path id="Forma_1" class="st0" d="M55.3,46h-6.4v-2.8c0-0.5-0.4-0.9-0.9-0.9H47V30.4c0-1.5,0.6-2.9,1.8-3.9
	c3.5-3.1,5.6-7.6,5.6-12.2v-0.4C54.3,7.3,49,2,42.4,2h0v0H3.9C3.4,2,3,2.4,3,2.9c0,0,0,0,0,0v45.8c0,0,0,0,0,0.1
	c0,0.2,0.1,0.4,0.3,0.6l7.3,7.3c0.2,0.2,0.4,0.3,0.7,0.3h44c0.5,0,0.9-0.4,0.9-0.9c0,0,0,0,0,0v-2.8h0.9c0.5,0,0.9-0.4,0.9-0.9
	c0,0,0,0,0,0v-3.7C58,47.2,56.8,46,55.3,46C55.3,46,55.3,46,55.3,46z M52.5,13.7v0.6c0,4.2-1.8,8.1-4.9,10.9
	c-1.5,1.3-2.4,3.3-2.4,5.3v11.9h-5.5V30.4c0-2-0.9-4-2.4-5.3c-3.1-2.7-4.9-6.7-4.9-10.9c-0.1-5.6,4.3-10.2,9.9-10.5
	C47.8,3.7,52.4,8.2,52.5,13.7z M47,44.2V46h-9.2v-1.8H47z M10.3,53.9l-4.2-4.2h4.2V53.9z M28.7,55.2H12.2v-6.4
	c0-0.5-0.4-0.9-0.9-0.9c0,0,0,0,0,0H4.8v-44h31.4c-3.6,2.3-5.7,6.2-5.7,10.5c0,4.7,2,9.2,5.6,12.2c1.1,1,1.8,2.4,1.8,3.9v11.9h-0.9
	c-0.5,0-0.9,0.4-0.9,0.9c0,0,0,0,0,0V46h-6.4c-1.5,0-2.7,1.2-2.8,2.7c0,0,0,0,0,0v3.7c0,0.5,0.4,0.9,0.9,0.9c0,0,0,0,0,0h0.9V55.2z
	 M54.3,55.2H30.5v-1.8h23.8V55.2z M56.2,51.5H28.7v-2.8c0-0.5,0.4-0.9,0.9-0.9h25.7c0.5,0,0.9,0.4,0.9,0.9c0,0,0,0,0,0L56.2,51.5
	L56.2,51.5z M13.1,6.6h17.4v1.8H13.1V6.6z M6.7,12.1h9.2v1.8H6.7V12.1z M17.7,12.1h11v1.8h-11V12.1z M6.7,15.7H14v1.8H6.7L6.7,15.7
	L6.7,15.7z M15.8,15.7H25v1.8h-9.2V15.7L15.8,15.7z M6.7,19.4h22v1.8h-22V19.4z M6.7,23.1h5.5v1.8H6.7V23.1z M14,23.1h16.5v1.8H14
	L14,23.1L14,23.1z M6.7,26.7h23.8v1.8H6.7V26.7L6.7,26.7z M43.3,5.7h-0.9v1.8h0.9c3,0,5.5,2.5,5.5,5.5l0,0h1.8
	C50.7,9,47.4,5.7,43.3,5.7L43.3,5.7z"/>
</svg>
