<?xml version="1.0" encoding="utf-8"?>
<!-- Generator: Adobe Illustrator 21.0.0, SVG Export Plug-In . SVG Version: 6.00 Build 0)  -->
<svg version="1.1" id="Слой_1" xmlns="http://www.w3.org/2000/svg" xmlns:xlink="http://www.w3.org/1999/xlink" x="0px" y="0px"
	 viewBox="0 0 66 70" style="enable-background:new 0 0 66 70;" xml:space="preserve">
<style type="text/css">
	.st0{fill:#E61D25;}
</style>
<path class="st0" d="M33.7,64.3c-0.4-0.4-1-0.4-1.4,0c-0.4,0.4-0.4,1,0,1.4l4,4c0.4,0.4,1,0.4,1.4,0c0.4-0.4,0.4-1,0-1.4L33.7,64.3z
	 M43,36c2.8,0,5-2.2,5-5s-2.2-5-5-5s-5,2.2-5,5S40.2,36,43,36z M43,28c1.7,0,3,1.3,3,3s-1.3,3-3,3s-3-1.3-3-3C40,29.3,41.3,28,43,28
	z M30,58c-0.6,0-1,0.4-1,1v2.6l-6.7,6.7c-0.4,0.4-0.4,1,0,1.4c0.4,0.4,1,0.4,1.4,0l7-7c0.2-0.2,0.3-0.4,0.3-0.7v-3
	C31,58.4,30.6,58,30,58L30,58z M59,12H31v-1c0-0.6-0.4-1-1-1s-1,0.4-1,1v1H1c-0.6,0-1,0.4-1,1v4c0,0.6,0.4,1,1,1h52c0.6,0,1-0.4,1-1
	s-0.4-1-1-1H2v-2h56v2h-1c-0.6,0-1,0.4-1,1v34c0,1.7-1.3,3-3,3H7c-1.7,0-3-1.3-3-3V21c0-0.6-0.4-1-1-1s-1,0.4-1,1v30
	c0,2.8,2.2,5,5,5h46c2.8,0,5-2.2,5-5V18h1c0.6,0,1-0.4,1-1v-4C60,12.4,59.6,12,59,12z M35.7,42.3c-0.4-0.4-1-0.4-1.4,0
	c-0.4,0.4-0.4,1,0,1.4l1.3,1.3l-1.3,1.3c-0.4,0.4-0.4,1,0,1.4c0.4,0.4,1,0.4,1.4,0l1.3-1.3l1.3,1.3c0.4,0.4,1,0.4,1.4,0
	c0.4-0.4,0.4-1,0-1.4L38.4,45l1.3-1.3c0.4-0.4,0.4-1,0-1.4c-0.4-0.4-1-0.4-1.4,0l0,0L37,43.6L35.7,42.3z M14,42.2
	c-1.6,0.5-2.4,2.2-1.9,3.8c0.5,1.6,2.2,2.4,3.8,1.9c1.6-0.5,2.4-2.2,1.9-3.8c-0.3-0.9-1-1.5-1.8-1.9C16.5,36.5,21.2,32,27,32h5.6
	l-2.3,2.3c-0.4,0.4-0.4,1,0,1.4c0.4,0.4,1,0.4,1.4,0l4-4c0.1-0.1,0.2-0.2,0.2-0.3c0.1-0.2,0.1-0.5,0-0.8c0-0.1-0.1-0.2-0.2-0.3l-4-4
	c-0.4-0.4-1-0.4-1.4,0c-0.4,0.4-0.4,1,0,1.4l2.3,2.3H27C20.1,30,14.5,35.3,14,42.2L14,42.2z M15,46c-0.6,0-1-0.4-1-1s0.4-1,1-1
	s1,0.4,1,1S15.6,46,15,46z M10.3,29.7c0.4,0.4,1,0.4,1.4,0l1.3-1.3l1.3,1.3c0.4,0.4,1,0.4,1.4,0c0.4-0.4,0.4-1,0-1.4L14.4,27
	l1.3-1.3c0.4-0.4,0.4-1,0-1.4c-0.4-0.4-1-0.4-1.4,0l0,0L13,25.6l-1.3-1.3c-0.4-0.4-1-0.4-1.4,0c-0.4,0.4-0.4,1,0,1.4l1.3,1.3
	l-1.3,1.3C9.9,28.7,9.9,29.3,10.3,29.7z"/>
</svg>
