<?xml version="1.0" encoding="utf-8"?>
<!-- Generator: Adobe Illustrator 21.0.0, SVG Export Plug-In . SVG Version: 6.00 Build 0)  -->
<svg version="1.1" id="Слой_1" xmlns="http://www.w3.org/2000/svg" xmlns:xlink="http://www.w3.org/1999/xlink" x="0px" y="0px"
	 viewBox="0 0 60 60" style="enable-background:new 0 0 60 60;" xml:space="preserve">
<style type="text/css">
	.st0{fill:#FFD87A;}
</style>
<path class="st0" d="M25.5,8.9c-5.2,0-9.5,4.3-9.5,9.5c0,5.2,4.3,9.5,9.5,9.5c1.9,0,3.8-0.6,5.3-1.6c0.4-0.3,0.5-0.8,0.2-1.1
	c-0.3-0.4-0.8-0.5-1.1-0.2l0,0c-0.6,0.4-1.3,0.7-2,1c0.9-2.1,1.3-4.4,1.3-6.7h4c-0.1,1.3-0.6,2.5-1.3,3.6c-0.3,0.4-0.2,0.9,0.2,1.1
	c0.4,0.3,0.9,0.2,1.1-0.2c0,0,0,0,0,0c1.1-1.6,1.6-3.4,1.6-5.3C35,13.1,30.7,8.9,25.5,8.9z M17.7,19.2h4c0,2.3,0.5,4.6,1.3,6.7
	C20.1,24.9,18,22.3,17.7,19.2z M21.7,17.6h-4c0.3-3.1,2.4-5.7,5.4-6.7C22.2,13,21.7,15.3,21.7,17.6L21.7,17.6z M26.8,24.3
	c-0.5,1.5-1.1,2-1.3,2s-0.8-0.5-1.3-2c-0.5-1.6-0.8-3.3-0.8-5.1h4.3C27.6,20.9,27.4,22.6,26.8,24.3L26.8,24.3z M23.3,17.6
	c0-1.7,0.3-3.4,0.8-5.1c0.5-1.5,1.1-2,1.3-2s0.8,0.5,1.3,2c0.5,1.6,0.8,3.3,0.8,5.1L23.3,17.6L23.3,17.6z M29.3,17.6
	c0-2.3-0.5-4.6-1.3-6.7c3,1,5.1,3.6,5.4,6.7H29.3z M36.6,40.9h-9.5c-0.4,0-0.8,0.3-0.8,0.8c0,0.4,0.3,0.8,0.8,0.8c0,0,0,0,0.1,0h9.5
	c0.4,0,0.8-0.3,0.8-0.8C37.5,41.3,37.1,40.9,36.6,40.9C36.7,40.9,36.6,40.9,36.6,40.9z M23.9,40.9h-9.5c-0.4,0-0.8,0.3-0.8,0.8
	c0,0.4,0.3,0.8,0.8,0.8c0,0,0,0,0.1,0h9.5c0.4,0,0.8-0.3,0.8-0.8C24.7,41.3,24.4,40.9,23.9,40.9C23.9,40.9,23.9,40.9,23.9,40.9z
	 M36.6,36h-9.5c-0.4,0-0.8,0.4-0.8,0.8c0,0.4,0.4,0.8,0.8,0.8c0,0,0,0,0,0h9.5c0.4,0,0.8-0.4,0.8-0.8C37.4,36.4,37.1,36,36.6,36
	C36.6,36,36.6,36,36.6,36z M23.9,36h-9.5c-0.4,0-0.8,0.4-0.8,0.8c0,0.4,0.4,0.8,0.8,0.8c0,0,0,0,0,0h9.5c0.4,0,0.8-0.4,0.8-0.8
	C24.7,36.4,24.3,36,23.9,36C23.9,36,23.9,36,23.9,36z M36.6,31.1h-9.5c-0.4,0-0.8,0.4-0.8,0.8c0,0.4,0.4,0.8,0.8,0.8c0,0,0,0,0,0
	h9.5c0.4,0,0.8-0.4,0.8-0.8C37.4,31.5,37.1,31.1,36.6,31.1C36.6,31.1,36.6,31.1,36.6,31.1z M23.9,31.1h-9.5c-0.4,0-0.8,0.4-0.8,0.8
	c0,0.4,0.4,0.8,0.8,0.8c0,0,0,0,0,0h9.5c0.4,0,0.8-0.4,0.8-0.8C24.7,31.5,24.3,31.1,23.9,31.1C23.9,31.1,23.9,31.1,23.9,31.1z
	 M50.2,45.8h-32c-0.5,0-0.8,0.4-0.8,0.8v3.3c0,1.9-1.6,3.5-3.5,3.5s-3.5-1.6-3.5-3.5V9.2c0-1.3-0.5-2.6-1.4-3.5h28.3
	c1.9,0,3.5,1.6,3.5,3.5v34.2c0,0.5,0.4,0.8,0.8,0.8c0.5,0,0.8-0.4,0.8-0.8V9.2C42.3,6.3,40,4,37.2,4h-32C2.3,4,0,6.3,0,9.2v3.3
	c0,0.4,0.4,0.8,0.8,0.8c0,0,0,0,0,0h5.4c0.4,0,0.8-0.4,0.8-0.8c0-0.4-0.4-0.8-0.8-0.8H1.6V9.2c0-1.9,1.6-3.5,3.5-3.5
	s3.5,1.6,3.5,3.5l0,0v40.7c0,2.8,2.3,5.2,5.2,5.2h32c2.8,0,5.1-2.3,5.2-5.2v-3.3C51,46.1,50.6,45.8,50.2,45.8
	C50.2,45.8,50.2,45.8,50.2,45.8z M49.4,49.8c0,1.9-1.6,3.5-3.5,3.5H17.6c0.9-1,1.4-2.2,1.4-3.5v-2.4h30.4V49.8L49.4,49.8z"/>
</svg>
