<?xml version="1.0" encoding="utf-8"?>
<!-- Generator: Adobe Illustrator 21.0.0, SVG Export Plug-In . SVG Version: 6.00 Build 0)  -->
<svg version="1.1" id="Слой_1" xmlns="http://www.w3.org/2000/svg" xmlns:xlink="http://www.w3.org/1999/xlink" x="0px" y="0px"
	 viewBox="0 0 60 60" style="enable-background:new 0 0 60 60;" xml:space="preserve">
<style type="text/css">
	.st0{fill:#E61D25;}
</style>
<path class="st0" d="M13.6,1C7.7,1,3,5.9,3,11.8c0,4,1.7,8.1,5,12c1.5,1.8,3.1,3.3,4.9,4.7c0.2,0.1,0.4,0.2,0.7,0.2
	c0.2,0,0.5-0.1,0.6-0.2c1.8-1.4,3.5-2.9,4.9-4.7c3.3-3.9,5-8.1,5-12C24.2,5.9,19.5,1.1,13.6,1z M13.6,26.1
	c-2.1-1.7-8.4-7.4-8.4-14.4c-0.1-4.6,3.6-8.4,8.2-8.5s8.4,3.6,8.5,8.2c0,0.1,0,0.2,0,0.3C22,18.8,15.7,24.5,13.6,26.1z M13.6,6.4
	c-3,0-5.4,2.3-5.4,5.3c0,3,2.3,5.4,5.3,5.4c3,0,5.4-2.3,5.4-5.3c0,0,0,0,0-0.1C18.9,8.8,16.5,6.4,13.6,6.4z M13.6,14.8
	c-1.7,0-3.1-1.3-3.1-3s1.3-3.1,3-3.1c1.7,0,3.1,1.3,3.1,3c0,0,0,0,0,0C16.7,13.4,15.3,14.8,13.6,14.8L13.6,14.8z M33.9,33.5
	c-5.2,0-9.4,4.3-9.4,9.6c0,8.4,8.4,14.5,8.8,14.8c0.2,0.1,0.4,0.2,0.6,0.2c0.2,0,0.5-0.1,0.7-0.2c0.3-0.3,8.8-6.4,8.8-14.8
	C43.4,37.8,39.2,33.5,33.9,33.5z M33.9,55.4c-1.9-1.5-7.2-6.4-7.2-12.4c-0.1-4,3.1-7.2,7.1-7.3c4-0.1,7.2,3.1,7.3,7.1
	c0,0.1,0,0.2,0,0.2C41.1,49,35.8,53.9,33.9,55.4L33.9,55.4z M33.9,38.2c-2.7,0-4.9,2.1-4.9,4.8c0,2.7,2.1,4.9,4.8,4.9
	c2.7,0,4.9-2.1,4.9-4.8c0,0,0,0,0-0.1C38.7,40.4,36.6,38.2,33.9,38.2L33.9,38.2z M33.9,45.6c-1.4,0-2.6-1.1-2.6-2.5
	c0-1.4,1.1-2.6,2.5-2.6s2.6,1.1,2.6,2.5c0,0,0,0,0,0C36.5,44.4,35.3,45.6,33.9,45.6z M40.8,55.7h-0.6c-0.6,0-1.1,0.5-1.1,1.1
	s0.5,1.1,1.1,1.1l0,0h0.6c0.6-0.1,1-0.8,0.8-1.4C41.5,56.2,41.2,55.9,40.8,55.7L40.8,55.7z M47.9,55.4c-0.2-0.6-0.9-0.9-1.5-0.6
	c0,0,0,0,0,0c-0.2,0.1-0.3,0.1-0.5,0.2c-0.6,0.2-0.9,0.9-0.7,1.4c0.2,0.4,0.6,0.7,1.1,0.8c0.1,0,0.3,0,0.4-0.1
	c0.2-0.1,0.4-0.1,0.6-0.2C47.8,56.6,48.1,56,47.9,55.4L47.9,55.4z M52.7,51.5c-0.4-0.4-1.1-0.4-1.6,0c0,0,0,0,0,0
	c-0.1,0.1-0.2,0.3-0.4,0.4c-0.4,0.4-0.5,1.2,0,1.6c0.2,0.2,0.5,0.3,0.8,0.3c0.3,0,0.6-0.1,0.8-0.3c0.2-0.1,0.3-0.3,0.4-0.4
	C53.1,52.7,53.1,52,52.7,51.5L52.7,51.5z M55.5,46c-0.6-0.2-1.2,0.1-1.4,0.7c0,0,0,0,0,0c-0.1,0.2-0.1,0.3-0.2,0.5
	c-0.2,0.6,0.1,1.2,0.6,1.5c0.1,0.1,0.3,0.1,0.4,0.1c0.5,0,0.9-0.3,1.1-0.7l0.2-0.6C56.3,46.8,56,46.2,55.5,46z M57,40.8
	c0-0.6-0.6-1.1-1.2-1.1c-0.6,0-1.1,0.6-1.1,1.2c0,0,0,0,0,0.1c0,0.2,0,0.3,0,0.5c0,0.6,0.5,1.1,1.1,1.1c0,0,0,0,0.1,0
	c0.6,0,1.1-0.6,1.1-1.2C57,41.2,57,41,57,40.8L57,40.8z M55.3,35c-0.1-0.2-0.2-0.4-0.3-0.5c-0.3-0.5-1-0.7-1.5-0.4c0,0,0,0,0,0
	c-0.5,0.3-0.7,1-0.4,1.6c0.1,0.2,0.2,0.3,0.3,0.5c0.2,0.4,0.6,0.6,1,0.6c0.2,0,0.4,0,0.5-0.1C55.4,36.2,55.6,35.5,55.3,35L55.3,35z
	 M51.1,29.8c-0.2-0.1-0.3-0.3-0.5-0.4c-0.5-0.4-1.2-0.3-1.6,0.2c0,0,0,0,0,0c-0.4,0.5-0.3,1.2,0.3,1.6c0.1,0.1,0.3,0.2,0.4,0.3
	c0.2,0.2,0.4,0.2,0.7,0.2c0.3,0,0.7-0.2,0.9-0.4C51.7,30.9,51.6,30.2,51.1,29.8C51.1,29.8,51.1,29.8,51.1,29.8z M45.2,26.9
	c-0.2-0.1-0.4-0.1-0.6-0.1c-0.6-0.1-1.2,0.3-1.3,0.9c-0.1,0.6,0.3,1.2,0.9,1.3c0.2,0,0.3,0.1,0.5,0.1c0.1,0,0.2,0,0.3,0
	c0.6,0,1.1-0.5,1.1-1.2C46,27.5,45.7,27,45.2,26.9z M38.8,26.4h-0.6c-0.6,0-1.1,0.5-1.1,1.1s0.5,1.1,1.1,1.1l0,0h0.6
	c0.6,0,1.2-0.5,1.2-1.1C39.9,26.9,39.4,26.4,38.8,26.4L38.8,26.4z M32.6,26.4h-0.6c-0.6,0-1.1,0.5-1.1,1.1s0.5,1.1,1.1,1.1l0,0h0.6
	c0.6,0,1.1-0.5,1.1-1.1C33.8,26.9,33.3,26.4,32.6,26.4L32.6,26.4z M26.5,26.4h-0.6c-0.6,0-1.1,0.5-1.1,1.1s0.5,1.1,1.1,1.1l0,0h0.6
	c0.6,0,1.1-0.5,1.1-1.1C27.6,26.9,27.1,26.4,26.5,26.4L26.5,26.4z M20.3,26.4h-0.6c-0.6,0-1.1,0.5-1.1,1.1s0.5,1.1,1.1,1.1l0,0h0.6
	c0.6,0,1.2-0.5,1.2-1.1C21.5,26.9,21,26.4,20.3,26.4L20.3,26.4z"/>
</svg>
