<?xml version="1.0" encoding="utf-8"?>
<!-- Generator: Adobe Illustrator 21.0.0, SVG Export Plug-In . SVG Version: 6.00 Build 0)  -->
<svg version="1.1" id="Слой_1" xmlns="http://www.w3.org/2000/svg" xmlns:xlink="http://www.w3.org/1999/xlink" x="0px" y="0px"
	 viewBox="0 0 60 60" style="enable-background:new 0 0 60 60;" xml:space="preserve">
<style type="text/css">
	.st0{fill:#E61D25;}
</style>
<path class="st0" d="M17.2,7.2h9.9c0.5,0,0.9-0.4,0.9-0.9c0-0.5-0.4-0.9-0.9-0.9h-9.9c-0.5,0-0.9,0.4-0.9,0.9
	C16.3,6.8,16.7,7.2,17.2,7.2C17.2,7.2,17.2,7.2,17.2,7.2z M17.2,11.2H37c0.5,0,0.9-0.4,0.9-0.9c0-0.5-0.4-0.9-0.9-0.9H17.2
	c-0.5,0-0.9,0.4-0.9,0.9C16.3,10.8,16.7,11.2,17.2,11.2C17.2,11.2,17.2,11.2,17.2,11.2z M17.2,23.6h9.9c0.5,0,0.9-0.4,0.9-0.9
	c0-0.5-0.4-0.9-0.9-0.9h-9.9c-0.5,0-0.9,0.4-0.9,0.9S16.7,23.6,17.2,23.6C17.2,23.6,17.2,23.6,17.2,23.6L17.2,23.6z M17.2,27.6h19.6
	c0.5,0,0.9-0.4,0.9-0.9c0-0.5-0.4-0.9-0.9-0.9c0,0,0,0,0,0H17.2c-0.5,0-0.9,0.4-0.9,0.9C16.3,27.2,16.7,27.6,17.2,27.6
	C17.2,27.6,17.2,27.6,17.2,27.6z M17.2,39.9h9.9c0.5,0,0.9-0.4,0.9-0.9c0-0.5-0.4-0.9-0.9-0.9h-9.9c-0.5,0-0.9,0.4-0.9,0.9
	S16.7,39.9,17.2,39.9C17.2,39.9,17.2,39.9,17.2,39.9L17.2,39.9z M36.7,42.1H17.2c-0.5,0-0.9,0.4-0.9,0.9c0,0.5,0.4,0.9,0.9,0.9
	c0,0,0,0,0,0h19.5c0.5,0,0.9-0.4,0.9-0.9S37.2,42.1,36.7,42.1L36.7,42.1z M54.7,46.1L49.5,44v-1.1c1.5-0.8,2.5-2.1,3-3.7
	c1.8,0,3.2-1.4,3.2-3.2c0-1-0.5-2-1.3-2.6v-2.4c0-4.5-3.6-8.1-8.1-8.1h-0.6c-0.7,0-1.3,0.1-1.9,0.2v-4.9c0-0.5-0.4-0.9-0.9-0.9h0
	h-2.7c-0.5,0-0.9,0.4-0.9,0.9c0,0.5,0.4,0.9,0.9,0.9H42v4.7c-2.4,1.3-4,3.7-4.3,6.4H3.8V19.1h33.4c0.5,0,0.9-0.4,0.9-0.9
	c0-0.5-0.4-0.9-0.9-0.9H2.9c-0.5,0-0.9,0.4-0.9,0.9l0,0v12.9C2,31.6,2.4,32,2.9,32c0,0,0,0,0,0h34.7v1.3c-0.1,0.1-0.3,0.2-0.4,0.4
	H2.9c-0.5,0-0.9,0.4-0.9,0.9l0,0v12.9c0,0.5,0.4,0.9,0.9,0.9c0,0,0,0,0,0h31.3c-0.9,1.2-1.4,2.7-1.3,4.3v4.5c0,0.5,0.4,0.9,0.9,0.9
	h0h3.4c0.5,0,0.9-0.4,0.9-0.9c0-0.5-0.4-0.9-0.9-0.9h-2.5v-3.6c-0.1-2.1,1.1-4.1,3.1-4.9l0,0l4.9-1.9c0,0,0,0.1,0.1,0.1l2.6,2.5
	c0.2,0.2,0.4,0.3,0.6,0.3h0c0.2,0,0.5-0.1,0.6-0.3l2.5-2.6l4.9,2l0,0c2,0.8,3.2,2.8,3.1,4.9v3.6H40.1c-0.5,0-0.9,0.4-0.9,0.9
	c0,0.5,0.4,0.9,0.9,0.9h18c0.5,0,0.9-0.4,0.9-0.9v-4.5C59.1,49.8,57.4,47.1,54.7,46.1L54.7,46.1z M52.7,34.5
	c0.8,0.1,1.2,0.9,1.1,1.6c-0.1,0.6-0.5,1-1.1,1.1V34.5z M39.4,30.9c0-3.5,2.8-6.3,6.3-6.3h0.6c3.5,0,6.3,2.8,6.3,6.3v1.5l0,0
	c0,0,0,0,0,0l0,0c0,0,0,0,0,0l0,0l0,0l0,0c0,0,0,0,0,0l0,0l0,0l0,0l0,0l0,0l0,0l-0.1,0l0,0c-2-0.4-2.6-3-2.6-3
	c-0.1-0.5-0.6-0.8-1.1-0.7c-0.2,0-0.4,0.2-0.5,0.4C45.5,32,40.3,32,40.2,32l0,0c0,0-0.1,0-0.1,0h0c0,0,0,0-0.1,0l0,0l0,0
	c0,0,0,0,0,0s0,0,0,0l0,0l0,0l0,0l0,0c0,0,0,0,0,0l0,0c0,0,0,0,0,0l0,0c0,0,0,0,0,0l0,0l0,0c0,0,0,0,0,0l0,0L39.4,30.9L39.4,30.9
	L39.4,30.9z M39.3,34.5v2.7c-0.8-0.1-1.3-0.8-1.1-1.6C38.2,35.1,38.7,34.6,39.3,34.5L39.3,34.5z M42.5,44l-5.4,2.1
	c-0.4,0.1-0.7,0.3-1,0.5c0,0-0.1,0-0.2,0H3.8v-11h32.5c0,0.1,0,0.3,0,0.4c0,1.8,1.4,3.2,3.2,3.2h0c0.5,1.6,1.5,2.9,3,3.7L42.5,44
	L42.5,44L42.5,44z M47.7,44.6L47.7,44.6L46,46.5l-1.7-1.6v-1.4c0.4,0.1,0.7,0.1,1.1,0.1h1.1c0.4,0,0.8,0,1.1-0.1V44.6L47.7,44.6z
	 M46.6,41.8h-1.1c-2.4,0-4.3-1.9-4.4-4.3v-3.6c2.6-0.2,5.1-1.2,7.2-2.8c0.5,1.2,1.5,2.1,2.7,2.6v3.8C50.9,39.8,49,41.8,46.6,41.8
	L46.6,41.8z M11.2,6.2c0.5,0,0.9-0.4,0.9-0.9c0-0.5-0.4-0.9-0.9-0.9c0,0,0,0,0,0H6.7c-0.5,0-0.9,0.4-0.9,0.9l0,0v6
	c0,0.5,0.4,0.9,0.9,0.9c0,0,0,0,0,0h6.3c0.5,0,0.9-0.4,0.9-0.9l0,0V9.7c0-0.5-0.4-0.9-0.9-0.9c-0.5,0-0.9,0.4-0.9,0.9v0.7H7.6V6.2
	L11.2,6.2L11.2,6.2z M14.7,4.7c-0.4-0.3-0.9-0.3-1.3,0l-3,3.2l-0.9-1c-0.3-0.4-0.9-0.4-1.3,0C7.9,7.2,7.8,7.7,8.2,8.1l1.6,1.7
	c0.2,0.2,0.4,0.3,0.7,0.3l0,0c0.2,0,0.5-0.1,0.7-0.3L14.7,6C15,5.6,15,5,14.7,4.7L14.7,4.7z M11.2,22.6c0.5,0,0.9-0.4,0.9-0.9
	c0-0.5-0.4-0.9-0.9-0.9H6.7c-0.5,0-0.9,0.4-0.9,0.9l0,0v6c0,0.5,0.4,0.9,0.9,0.9c0,0,0,0,0,0h6.3c0.5,0,0.9-0.4,0.9-0.9l0,0V26
	c0-0.5-0.4-0.9-0.9-0.9c-0.5,0-0.9,0.4-0.9,0.9v0.7H7.6v-4.2L11.2,22.6L11.2,22.6z M14.7,21c-0.4-0.3-0.9-0.3-1.3,0l-3,3.2l-0.9-1
	c-0.3-0.4-0.9-0.4-1.3-0.1c-0.4,0.3-0.4,0.9-0.1,1.3l1.6,1.7c0.2,0.2,0.4,0.3,0.7,0.3h0c0.2,0,0.5-0.1,0.7-0.3l3.7-3.9
	C15,21.9,15,21.4,14.7,21L14.7,21z M12.9,41.5c-0.5,0-0.9,0.4-0.9,0.9l0,0v0.7H7.6v-4.2h3.6c0.5,0,0.9-0.4,0.9-0.9
	c0-0.5-0.4-0.9-0.9-0.9H6.7c-0.5,0-0.9,0.4-0.9,0.9l0,0v6c0,0.5,0.4,0.9,0.9,0.9c0,0,0,0,0,0h6.3c0.5,0,0.9-0.4,0.9-0.9l0,0v-1.6
	C13.8,41.9,13.4,41.5,12.9,41.5C12.9,41.5,12.9,41.5,12.9,41.5L12.9,41.5z M13.4,37.4l-3,3.2l-0.9-1c-0.3-0.4-0.9-0.4-1.3,0
	c-0.4,0.3-0.4,0.9-0.1,1.3l1.6,1.7c0.2,0.2,0.4,0.3,0.7,0.3h0c0.2,0,0.5-0.1,0.7-0.3l3.7-3.9c0.4-0.3,0.4-0.9,0.1-1.3
	C14.4,37,13.9,37,13.4,37.4C13.5,37.3,13.4,37.4,13.4,37.4L13.4,37.4z M2.9,15.6h40c0.5,0,0.9-0.4,0.9-0.9v0V1.9
	c0-0.5-0.4-0.9-0.9-0.9h0h-2.7c-0.5,0-0.9,0.4-0.9,0.9c0,0.5,0.4,0.9,0.9,0.9H42v11.1H3.8V2.8h33.4c0.5,0,0.9-0.4,0.9-0.9
	c0-0.5-0.4-0.9-0.9-0.9H2.9C2.4,1,2,1.4,2,1.9l0,0v12.9C2,15.3,2.4,15.7,2.9,15.6L2.9,15.6z"/>
</svg>
