<?xml version="1.0" encoding="utf-8"?>
<!-- Generator: Adobe Illustrator 22.1.0, SVG Export Plug-In . SVG Version: 6.00 Build 0)  -->
<svg version="1.1" id="Слой_1" xmlns="http://www.w3.org/2000/svg" xmlns:xlink="http://www.w3.org/1999/xlink" x="0px" y="0px"
	 width="54px" height="54px" viewBox="0 0 54 54" style="enable-background:new 0 0 54 54;" xml:space="preserve">
<g>
	<path style="fill:#FFD87A;" d="M53.9,12.8c-0.2-0.7-0.6-1.3-1.3-1.6c-0.6-0.4-1.4-0.5-2.1-0.3c-0.7,0.2-1.3,0.6-1.6,1.3l-0.5,0.8
		c-0.4-0.2-1-0.1-1.2,0.3L45,17.2l-0.8-0.5c-0.2-0.1-0.5-0.2-0.7-0.1c-0.2,0.1-0.4,0.2-0.5,0.4c-0.2,0.4-0.1,1,0.3,1.2l0.8,0.4
		L36.4,32l-1.9,5l-0.9,1.7c-0.5,0.9-0.5,2.1,0.1,2.9l-2,2.5l-0.6-1.4c-0.3-0.6-0.8-1.1-1.5-1.1c-0.7-0.1-1.3,0.3-1.7,0.9L27.7,43
		l-0.3-3.6c-0.1-0.9-0.7-1.5-1.6-1.6c-0.8-0.1-1.7,0.4-1.9,1.2l-2.2,6.6c-0.2,0.5,0.1,1,0.6,1.1c0.1,0,0.2,0.1,0.3,0.1
		c0.4,0,0.7-0.2,0.9-0.6l2.2-6.6l0.3,3.7c0.1,0.8,0.6,1.4,1.4,1.6c0.8,0.2,1.6-0.2,2-0.8l0.3-0.5l0.6,1.4c0.2,0.6,0.8,1,1.4,1.1
		c0.6,0.1,1.3-0.2,1.7-0.7l2.1-2.7c0.2,0.1,0.5,0.1,0.7,0.1c1,0,1.9-0.5,2.3-1.3l0.9-1.5l3.4-4.2l7.7-13.4l0.8,0.5
		c0.2,0.1,0.4,0.3,0.4,0.5c0.1,0.2,0,0.5-0.1,0.7l-3.6,6.2c-0.1,0.2-0.2,0.5-0.1,0.7c0.1,0.2,0.2,0.4,0.4,0.6
		c0.2,0.1,0.5,0.2,0.7,0.1c0.2-0.1,0.4-0.2,0.5-0.4l3.6-6.2c0.4-0.6,0.5-1.4,0.3-2.1c-0.2-0.7-0.6-1.3-1.3-1.6l-0.8-0.5l2.3-3.9
		c0.2-0.4,0.1-1-0.3-1.2l0.5-0.8C54,14.3,54.1,13.5,53.9,12.8z M36.8,40.5c-0.1,0.2-0.3,0.4-0.6,0.4c-0.2,0.1-0.5,0-0.7-0.1
		c-0.4-0.3-0.5-0.8-0.3-1.2l0.5-0.8l1.6,0.9L36.8,40.5z M38.2,38.2l-0.4-0.3l-1.3-0.8l1.3-3.4l2.8,1.6L38.2,38.2z M41.6,33.9
		l-3.1-1.8l7.2-12.5l3.1,1.8L41.6,33.9z M49.7,19.9l-3.1-1.8l1.8-3.1l3.1,1.8L49.7,19.9z M52.1,13.9l-0.5,0.8l-1.6-0.9l0.5-0.8
		c0.1-0.2,0.3-0.4,0.5-0.4c0.2-0.1,0.5,0,0.7,0.1c0.2,0.1,0.4,0.3,0.4,0.5C52.2,13.5,52.2,13.7,52.1,13.9z"/>
	<path style="fill:#FFD87A;" d="M14.2,40.3L11,43.5l-1.9-1.9c-0.4-0.3-0.9-0.3-1.3,0c-0.2,0.2-0.3,0.4-0.3,0.6s0.1,0.5,0.3,0.6
		l1.9,1.9c0.3,0.3,0.8,0.5,1.3,0.5c0.5,0,0.9-0.2,1.3-0.5l3.2-3.2c0.3-0.4,0.3-0.9,0-1.2C15.1,40,14.6,40,14.2,40.3z"/>
	<path style="fill:#FFD87A;" d="M3.6,42.8c0,4.2,3.4,7.6,7.6,7.6s7.6-3.4,7.6-7.6c0-0.5-0.4-0.9-0.9-0.9c-0.5,0-0.9,0.4-0.9,0.9
		c0,3.2-2.6,5.9-5.9,5.9S5.4,46,5.4,42.8s2.6-5.8,5.9-5.8c1.3,0,2.5,0.4,3.5,1.2c0.4,0.3,1,0.2,1.3-0.2c0.3-0.4,0.2-1-0.2-1.3
		c-2.3-1.7-5.4-2-8-0.7C5.2,37.2,3.6,39.9,3.6,42.8z"/>
	<path style="fill:#FFD87A;" d="M32.4,7.2c0.5,0,0.9-0.4,0.9-0.9c0-0.5-0.4-0.9-0.9-0.9H9c-0.5,0-0.9,0.4-0.9,0.9v3.6
		c0,0.5,0.4,0.9,0.9,0.9h23.4c0.5,0,0.9-0.4,0.9-0.9c0-0.5-0.4-0.9-0.9-0.9H9.9V7.2H32.4z"/>
	<path style="fill:#FFD87A;" d="M11.7,12.6c-0.5,0-0.9,0.4-0.9,0.9c0,0.5,0.4,0.9,0.9,0.9h18c0.5,0,0.9-0.4,0.9-0.9
		c0-0.5-0.4-0.9-0.9-0.9H11.7z"/>
	<path style="fill:#FFD87A;" d="M35.1,18.9H15.3c-0.5,0-0.9,0.4-0.9,0.9c0,0.5,0.4,0.9,0.9,0.9h19.8c0.5,0,0.9-0.4,0.9-0.9
		C36,19.3,35.6,18.9,35.1,18.9z"/>
	<path style="fill:#FFD87A;" d="M26.1,25.2c0-0.5-0.4-0.9-0.9-0.9h-18c-0.5,0-0.9,0.4-0.9,0.9c0,0.5,0.4,0.9,0.9,0.9h18
		C25.7,26.1,26.1,25.7,26.1,25.2z"/>
	<path style="fill:#FFD87A;" d="M35.1,24.3h-6.3c-0.5,0-0.9,0.4-0.9,0.9c0,0.5,0.4,0.9,0.9,0.9h6.3c0.5,0,0.9-0.4,0.9-0.9
		C36,24.7,35.6,24.3,35.1,24.3z"/>
	<path style="fill:#FFD87A;" d="M16.2,30.6c0.5,0,0.9-0.4,0.9-0.9c0-0.5-0.4-0.9-0.9-0.9h-9c-0.5,0-0.9,0.4-0.9,0.9
		c0,0.5,0.4,0.9,0.9,0.9H16.2z"/>
	<path style="fill:#FFD87A;" d="M19.8,30.6h6.3c0.5,0,0.9-0.4,0.9-0.9c0-0.5-0.4-0.9-0.9-0.9h-6.3c-0.5,0-0.9,0.4-0.9,0.9
		C18.9,30.2,19.3,30.6,19.8,30.6z"/>
	<path style="fill:#FFD87A;" d="M40.5,41.4c-0.5,0-0.9,0.4-0.9,0.9v9c0,0.5-0.4,0.9-0.9,0.9h-36c-0.5,0-0.9-0.4-0.9-0.9V2.7
		c0-0.5,0.4-0.9,0.9-0.9h36c0.5,0,0.9,0.4,0.9,0.9v16.9c0,0.5,0.4,0.9,0.9,0.9c0.5,0,0.9-0.4,0.9-0.9V2.7c0-1.5-1.2-2.7-2.7-2.7h-36
		C1.2,0,0,1.2,0,2.7v48.6C0,52.8,1.2,54,2.7,54h36c1.5,0,2.7-1.2,2.7-2.7v-9C41.4,41.8,41,41.4,40.5,41.4z"/>
</g>
</svg>
