<?xml version="1.0" encoding="utf-8"?>
<!-- Generator: Adobe Illustrator 22.1.0, SVG Export Plug-In . SVG Version: 6.00 Build 0)  -->
<svg version="1.1" id="Capa_1" xmlns="http://www.w3.org/2000/svg" xmlns:xlink="http://www.w3.org/1999/xlink" x="0px" y="0px"
	 width="50px" height="49.9px" viewBox="0 0 50 49.9" style="enable-background:new 0 0 50 49.9;" xml:space="preserve">
<path style="fill:#FFFFFF;" d="M49.8,21.2C49.2,14.7,45.7,9,40.2,5c-6-4.3-13.7-6-20.7-4.4C12.9,2,7,6.3,3.5,12.3
	C0,18.3-0.9,25.4,1,31.9c1,3.5,2.9,6.8,5.3,9.6c2.5,2.8,5.5,5,8.9,6.4c3.1,1.3,6.4,2,9.7,2c4.5,0,9-1.2,12.9-3.6l-2.8-4.6
	c-5.4,3.2-12,3.7-17.8,1.3C12,40.7,7.8,36,6.2,30.4c-1.5-5.1-0.8-10.7,2-15.4c2.8-4.7,7.3-8,12.5-9.2C26.2,4.6,32.3,5.9,37,9.4
	c4.3,3.1,6.9,7.5,7.4,12.4c0.3,3.2,0,5.7-0.9,7.4c-1.9,3.7-4.7,3.7-5.8,3.6c0,0-0.1,0-0.1,0c-0.3-0.5-0.3-2.3-0.3-3.1
	c0-0.3,0-0.6,0-0.9V14h-4.1c-0.5-0.4-1.1-0.8-1.7-1.2c-2.3-1.3-4.9-2.1-7.6-2.1c-3.8,0-7.4,1.4-10.2,3.9c-4.3,4-5.6,10.7-3.2,16.1
	c1.1,2.6,3,4.7,5.5,6.2c2.3,1.4,5,2.1,7.9,2.1c3.2,0,6.2-0.9,8.6-2.6c0.3-0.2,0.5-0.4,0.7-0.6c0.8,1.2,2.1,1.9,3.6,2.1
	c2.1,0.3,4.3,0,6.2-1c2.2-1.1,3.9-2.9,5.2-5.5C49.8,28.9,50.3,25.5,49.8,21.2z M32,29.6c-0.1,0.2-0.3,0.4-0.4,0.5
	c-0.1,0.1-0.2,0.2-0.2,0.3c-0.5,0.7-1.1,1.3-1.9,1.8c-1.5,1-3.3,1.6-5.4,1.6c-3.8,0-7.1-1.9-8.4-5.1c-1.5-3.4-0.7-7.5,2-10
	c1.7-1.6,4-2.5,6.5-2.5c1.7,0,3.4,0.4,4.8,1.3c0.9,0.5,1.7,1.2,2.4,2.1c0.1,0.1,0.1,0.2,0.2,0.3c0.1,0.1,0.4,0.5,0.5,0.7L32,29.6
	L32,29.6z"/>
</svg>
