<?xml version="1.0" encoding="utf-8"?>
<!-- Generator: Adobe Illustrator 21.0.0, SVG Export Plug-In . SVG Version: 6.00 Build 0)  -->
<svg version="1.1" id="Слой_1" xmlns="http://www.w3.org/2000/svg" xmlns:xlink="http://www.w3.org/1999/xlink" x="0px" y="0px"
	 viewBox="0 0 60 60" style="enable-background:new 0 0 60 60;" xml:space="preserve">
<style type="text/css">
	.st0{fill:#E61D25;}
</style>
<path class="st0" d="M54.1,4.9H31.4V4.4C31.4,2.5,29.9,1,28,1h-3.9c-1.9,0-3.4,1.5-3.4,3.4v0.6h-5.5c-0.5,0-0.9,0.4-0.9,0.9v7.5H6.9
	c-0.5,0-0.9,0.4-0.9,0.9c0,0,0,0,0,0v34.5c0,0,0,0.1,0,0.1c0,0,0,0,0,0s0,0,0,0.1s0,0,0,0s0,0,0,0s0,0,0,0s0,0,0,0l0,0c0,0,0,0,0,0
	s0,0,0,0s0,0,0,0l0,0c0,0,0,0,0,0c0,0,0,0,0.1,0.1l0,0l9.3,9.4l0,0c0,0,0,0,0.1,0.1l0,0l0,0l0,0l0,0l0,0c0,0,0,0,0,0c0,0,0,0,0,0
	l0,0l0,0l0,0l0,0h0c0,0,0.1,0,0.1,0h27c0.5,0,0.9-0.4,0.9-0.9c0,0,0,0,0,0v-4h9.9c0.5,0,0.9-0.4,0.9-0.9V5.9C55,5.4,54.6,5,54.1,4.9
	z M22.6,4.4c0-0.8,0.7-1.5,1.5-1.5H28c0.8,0,1.5,0.7,1.5,1.5v0.6h-7L22.6,4.4L22.6,4.4L22.6,4.4z M22.6,15.2h4.5v4.6h-4.5V15.2
	L22.6,15.2z M26.8,21.6c-0.3,0.4-0.7,0.6-1.2,0.6h-1.5c-0.5,0-0.9-0.2-1.2-0.6H26.8L26.8,21.6z M16.2,6.8h4.5v6.5h-4.5V6.8z
	 M15.3,53.1v2.7l-6.2-6.2h6.2V53.1L15.3,53.1z M42.4,53.1v4H17.2v-8.4c0-0.5-0.4-0.9-0.9-0.9c0,0,0,0,0,0H7.8V15.2h12.9v4.6h-7.4
	c-0.5,0-0.9,0.4-0.9,1c0,0.5,0.4,0.9,0.9,0.9h7.6c0.4,1.5,1.7,2.5,3.2,2.5h1.5c1.5,0,2.8-1,3.2-2.5h8.5c0.5,0,0.9-0.4,0.9-1
	c0-0.5-0.4-0.9-0.9-0.9H29v-4.6h13.4V53.1L42.4,53.1L42.4,53.1z M53.2,52.2h-9v-38c0-0.5-0.4-0.9-0.9-0.9c0,0,0,0,0,0H29V8.8
	c0-0.5-0.4-0.9-0.9-0.9s-0.9,0.4-0.9,0.9c0,0,0,0,0,0v4.5h-4.5V6.8h30.6V52.2L53.2,52.2L53.2,52.2z M37.4,27.6H13.3
	c-0.5,0-0.9,0.4-0.9,1c0,0.5,0.4,0.9,0.9,0.9h24.1c0.5,0,0.9-0.4,0.9-1C38.3,28,37.9,27.6,37.4,27.6z M37.4,35.5H13.3
	c-0.5,0-0.9,0.4-0.9,1c0,0.5,0.4,0.9,0.9,0.9h24.1c0.5,0,0.9-0.4,0.9-0.9C38.3,35.9,37.9,35.5,37.4,35.5L37.4,35.5z M37.4,43.4H13.3
	c-0.5,0-0.9,0.4-0.9,1c0,0.5,0.4,0.9,0.9,0.9h24.1c0.5,0,0.9-0.4,0.9-0.9C38.3,43.8,37.9,43.4,37.4,43.4L37.4,43.4z"/>
</svg>
