<?xml version="1.0" encoding="utf-8"?>
<!-- Generator: Adobe Illustrator 21.0.0, SVG Export Plug-In . SVG Version: 6.00 Build 0)  -->
<svg version="1.1" id="Слой_1" xmlns="http://www.w3.org/2000/svg" xmlns:xlink="http://www.w3.org/1999/xlink" x="0px" y="0px"
	 viewBox="0 0 60 60" style="enable-background:new 0 0 60 60;" xml:space="preserve">
<style type="text/css">
	.st0{fill:#E61D25;}
</style>
<path class="st0" d="M56,32L50.4,7.2c-0.1-0.5-0.5-0.8-1-0.8H41V5c0-0.6-0.4-1-1-1c0,0,0,0,0,0H21.1c-0.6,0-1,0.5-1,1c0,0,0,0,0,0
	v1.4h-8.4c-0.5,0-0.9,0.3-1,0.8L5,32c0,0.1,0,0.2,0,0.2V54c0,0.6,0.4,1,1,1c0,0,0,0,0,0h49c0.6,0,1-0.5,1-1c0,0,0,0,0,0V32.3
	C56,32.2,56,32.1,56,32z M41,8.5h7.6l5.2,22.7h-6.8V16.9c0-0.6-0.4-1-1-1h-2.1V11c0-0.6-0.4-1-1-1c0,0,0,0,0,0H41L41,8.5L41,8.5
	L41,8.5z M22.5,25.5L22.5,25.5c0.3,0,0.5-0.1,0.7-0.3c0.2-0.2,0.3-0.5,0.3-0.7l0-6.5h21.4v13.3H16.1v-5.8L22.5,25.5z M17.5,23.4
	l3.9-4v4H17.5L17.5,23.4z M22.1,6.1h16.8v3.9H22.1L22.1,6.1L22.1,6.1z M41.8,12v3.9H22.5c-0.3,0-0.5,0.1-0.7,0.3l-2.6,2.6V12
	L41.8,12L41.8,12z M12.4,8.5H20v1.4h-1.9c-0.6,0-1,0.5-1,1c0,0,0,0,0,0v9.9l-2.8,2.8c-0.2,0.2-0.3,0.5-0.3,0.7v6.8H7.3L12.4,8.5z
	 M54,52.9H7V33.3H54L54,52.9L54,52.9L54,52.9z M30.5,38.4c-2.7,0-5,2.1-5,4.9s2.1,5,4.9,5s5-2.1,5-4.9c0,0,0-0.1,0-0.1
	C35.4,40.6,33.2,38.4,30.5,38.4z M30.5,46.2c-1.6,0-2.9-1.2-2.9-2.8c0-1.6,1.2-2.9,2.8-2.9c1.6,0,2.9,1.2,2.9,2.8c0,0,0,0,0,0.1
	C33.3,44.9,32.1,46.2,30.5,46.2z M40.4,27.4H40c-0.6,0-1,0.5-1,1c0,0.6,0.5,1,1,1h0.4c0.5-0.3,0.6-1.1,0.3-1.6
	C40.6,27.8,40.5,27.7,40.4,27.4L40.4,27.4z M36.6,27.4h-16c-0.6,0-1,0.5-1,1c0,0.6,0.5,1,1,1h16c0.6,0,1-0.5,1-1
	C37.6,27.9,37.2,27.4,36.6,27.4L36.6,27.4z"/>
</svg>
