<?xml version="1.0" encoding="utf-8"?>
<!-- Generator: Adobe Illustrator 21.0.0, SVG Export Plug-In . SVG Version: 6.00 Build 0)  -->
<svg version="1.1" id="Слой_1" xmlns="http://www.w3.org/2000/svg" xmlns:xlink="http://www.w3.org/1999/xlink" x="0px" y="0px"
	 viewBox="0 0 60 60" style="enable-background:new 0 0 60 60;" xml:space="preserve">
<style type="text/css">
	.st0{fill:#FFD87A;}
</style>
<path id="Forma_1" class="st0" d="M57,20.5c0-0.9-0.3-1.7-0.8-2.4l-4.5-5.7c-0.8-0.9-1.9-1.4-3.1-1.4c-0.7,0-1.4,0.2-2,0.6l-4.4,2.7
	c-0.6,0.3-1.3,0.5-2,0.5c-0.5,0-1.1-0.1-1.6-0.3l-4.3-2.1c-0.7-0.3-1.5-0.5-2.3-0.5c-1.1,0-2.2,0.3-3.2,0.9l-0.5,0.3
	c-0.4-0.2-1-0.5-1.7-0.8c-0.9-0.4-1.8-0.6-2.8-0.6c-0.9,0-1.8,0.1-2.6,0.5l-2.9,1.2c-1.3,0.4-2.7,0.4-4,0l-2.9-1.2
	c-0.5-0.2-1.1-0.3-1.7-0.3c-0.7,0-1.3,0.1-1.9,0.4c-0.6,0.2-1.2,0.6-1.6,1.1l-5.3,5.9C0.3,19.9,0,20.7,0,21.5c0,1,0.5,2,1.2,2.6
	l5,4.2l-2.4,2.4c-1.3,1.4-1.3,3.5,0.1,4.9c0,0,0,0,0.1,0.1l0.5,0.5c0.4,0.4,1,0.7,1.6,0.8c-0.3,0.5-0.4,1.1-0.4,1.7
	c0,1,0.4,1.9,1.1,2.5l0,0l0.5,0.5c1,1,2.5,1.2,3.8,0.7c0.2,0.6,0.5,1.2,1,1.7l0.5,0.5c0.7,0.6,1.5,1,2.4,1c0.7,0,1.4-0.2,2-0.6
	c0.2,0.6,0.5,1.1,0.9,1.5l0.5,0.5c1.4,1.3,3.7,1.3,5-0.1l2.1-2.2l2.8,2.6c1.4,1.3,3.7,1.2,5-0.2l0.5-0.5c0.4-0.4,0.6-0.9,0.8-1.4
	l1.1,1c1.4,1.3,3.7,1.2,5-0.2l0.5-0.5c0.5-0.5,0.8-1.2,0.9-1.9c1.3,0.3,2.6,0,3.5-1l0.4-0.5c0.8-0.8,1.1-2,0.8-3.2
	c0.8-0.1,1.6-0.5,2.1-1.1l0.4-0.5c0.6-0.6,1-1.5,0.9-2.4c0-1-0.4-1.9-1.1-2.6l-0.8-0.8l7.7-8.3C56.7,22.5,57,21.5,57,20.5z
	 M6.9,35.2c-0.4,0-0.8-0.2-1.1-0.4l-0.5-0.5c-0.6-0.6-0.7-1.6-0.1-2.2c0,0,0,0,0,0l4.9-5c0.3-0.3,0.7-0.5,1.2-0.5
	c0.4,0,0.8,0.2,1.1,0.4l0.5,0.5c0.2,0.3,0.4,0.7,0.5,1.1c0,0.3-0.1,0.6-0.3,0.9c0,0-5.2,5.4-5.2,5.4C7.6,35.1,7.2,35.2,6.9,35.2z
	 M10.8,40.2c-0.3,0.3-0.7,0.5-1.2,0.5c-0.4,0-0.8-0.2-1.1-0.4L8,39.8h0c-0.3-0.3-0.5-0.7-0.5-1.1c0-0.4,0.2-0.8,0.4-1.1
	c0,0,6.5-6.6,6.5-6.7c0.6-0.6,1.6-0.6,2.2,0l0.5,0.5c0.3,0.3,0.5,0.7,0.5,1.1c0,0.4-0.2,0.8-0.4,1.1L10.8,40.2z M16.1,43
	c-0.3,0.3-0.7,0.5-1.2,0.5c-0.4,0-0.8-0.2-1.1-0.4l-0.5-0.5c-0.6-0.6-0.7-1.5-0.1-2.1l4.5-4.6c0.3-0.3,0.7-0.4,1.1-0.4
	c0.4,0,0.8,0.2,1.1,0.4l0.5,0.5c0.6,0.6,0.7,1.6,0.1,2.2c0,0,0,0,0,0L16.1,43z M24.6,42.5l-2.7,2.8c-0.3,0.3-0.7,0.5-1.2,0.5
	c-0.4,0-0.8-0.2-1.1-0.4l-0.5-0.5c-0.6-0.6-0.7-1.6-0.1-2.2c0,0,0,0,0,0l2.7-2.8c0.3-0.3,0.7-0.5,1.2-0.5c0.4,0,0.8,0.2,1.1,0.4
	l0.5,0.5c0.3,0.3,0.5,0.7,0.5,1.1C25.1,41.8,24.9,42.2,24.6,42.5L24.6,42.5z M48.4,34.9c0,0.4-0.2,0.8-0.4,1.1l-0.4,0.5
	c-0.3,0.3-0.7,0.5-1.2,0.5c-0.4,0-0.8-0.1-1.1-0.4l-7.6-7L36.3,31l8.2,7.5c0.3,0.3,0.5,0.7,0.5,1.2c0,0.4-0.2,0.8-0.4,1.1l-0.4,0.5
	c-0.6,0.6-1.6,0.7-2.3,0.1l-7.6-7l-1.3,1.4l6.8,6.2c0.6,0.6,0.7,1.6,0.1,2.2c0,0,0,0,0,0l-0.4,0.5c-0.6,0.6-1.6,0.7-2.3,0.1
	l-6.8-6.1l0,0l-1.3,1.4l0,0l0,0l3.4,3.1c0.3,0.3,0.5,0.7,0.4,1.1c0,0.4-0.1,0.8-0.4,1.1l-0.5,0.5c-0.3,0.3-0.7,0.5-1.2,0.5
	c-0.4,0-0.8-0.1-1.1-0.4l-3-2.7c0.3-0.5,0.4-1,0.4-1.6c0-1-0.4-1.9-1.1-2.5l-0.5-0.5c-0.7-0.6-1.5-1-2.4-1c-0.1,0-0.1,0-0.2,0v0
	c-0.2-0.9-0.6-1.8-1.1-2.5l-0.5-0.5c-0.5-0.5-1.1-0.8-1.8-0.9c0.1-0.4,0.2-0.8,0.2-1.2c0-1-0.4-1.9-1.1-2.5l-0.5-0.5
	c-0.7-0.6-1.5-1-2.4-1c-0.1,0-0.2,0-0.3,0c0-0.9-0.4-1.8-1.1-2.4l0,0l-0.5-0.5c-1.4-1.3-3.7-1.3-5,0.1L7.6,27l-5.1-4.3
	c-0.6-0.5-0.7-1.5-0.2-2.1c0,0,0,0,0.1-0.1l5.3-5.9c0.3-0.3,0.6-0.5,0.9-0.6c0.4-0.1,0.8-0.2,1.2-0.2c0.3,0,0.6,0.1,0.9,0.2l2.9,1.2
	c1.8,0.7,3.7,0.7,5.5,0l2.9-1.2c0.6-0.2,1.2-0.3,1.8-0.3c0.7,0,1.3,0.1,1.9,0.4c0.3,0.1,0.5,0.3,0.8,0.4l-3,2.1
	c-1.5,1-1.9,3.1-0.9,4.7c0,0.1,0.1,0.1,0.1,0.2l0,0l0.4,0.5c0.7,0.9,1.9,1.5,3.1,1.5c0.7,0,1.3-0.2,1.9-0.5l1.8-1.1
	c0.5-0.2,1-0.4,1.5-0.4c0.6,0,1.2,0.2,1.8,0.5l4.9,3.5c1.1,0.8,2.9,2.2,3.9,3.1l5.7,5.2C48.2,34,48.4,34.5,48.4,34.9L48.4,34.9z
	 M54.6,22l-7.7,8.3l-3.5-3.2c-1.3-1.2-2.7-2.3-4.1-3.3l-4.9-3.5c-0.9-0.6-1.9-0.9-2.9-0.8c-0.9,0-1.7,0.2-2.5,0.6l-1.8,1.1
	c-0.3,0.2-0.6,0.2-0.9,0.2c-0.6,0-1.2-0.3-1.5-0.7l-0.4-0.5h0c-0.2-0.3-0.3-0.6-0.3-0.9c0-0.5,0.3-1,0.7-1.2l5.3-3.7
	c0.6-0.4,1.3-0.6,2.1-0.5c0.5,0,1,0.1,1.4,0.3l4.3,2.1c0.8,0.3,1.6,0.5,2.4,0.5c1.1,0,2.1-0.2,3.1-0.8l4.4-2.7
	c0.3-0.2,0.6-0.3,1-0.3c0.6,0,1.1,0.3,1.5,0.7l4.5,5.7c0.3,0.4,0.4,0.8,0.4,1.3C55.1,21.1,54.9,21.6,54.6,22L54.6,22z"/>
</svg>
