<?xml version="1.0" encoding="utf-8"?>
<!-- Generator: Adobe Illustrator 21.0.0, SVG Export Plug-In . SVG Version: 6.00 Build 0)  -->
<svg version="1.1" id="Слой_1" xmlns="http://www.w3.org/2000/svg" xmlns:xlink="http://www.w3.org/1999/xlink" x="0px" y="0px"
	 viewBox="0 0 60 60" style="enable-background:new 0 0 60 60;" xml:space="preserve">
<style type="text/css">
	.st0{fill:#FFD87A;}
</style>
<path id="Forma_1" class="st0" d="M51,53.9l-0.3-3.2c-0.2-2.3-2-4.2-4.3-4.7l-4.3-0.8c-0.4-0.1-0.8-0.5-0.8-0.9v-1.2l2-1.1h0.1
	c1-0.7,1.7-1.9,1.7-3.1v-0.1V34c0.8-0.6,1.3-1.6,1.2-2.6v-2.5v-0.1c-0.1-2.2-1.9-3.9-4.1-3.9h-9.6c-0.4,0-0.8-0.2-1.1-0.4
	c-0.6-0.5-1.5-0.3-2,0.3c-0.2,0.2-0.3,0.5-0.3,0.8v3.7c0,1.2,0.4,2.3,1.2,3.3v6.1c0,0,0,0,0,0.1c0.1,1.3,0.7,2.4,1.8,3.1h0.1l2,1.1
	v1.2c0,0.5-0.3,0.8-0.8,0.9L29.1,46c-2.3,0.5-4,2.4-4.3,4.7l-0.3,3.2c0,0.3,0.1,0.6,0.3,0.8c0.2,0.2,0.5,0.3,0.7,0.3H50
	c0.3,0,0.6-0.1,0.8-0.3C50.9,54.5,51,54.2,51,53.9z M31.2,29.3v-2.7c0.4,0.2,0.9,0.3,1.4,0.3h9.6c1.1,0,2,0.9,2.1,2l0,0v2.5l0,0
	c0,0.3,0,0.6-0.2,0.8c-0.2,0.1-0.5,0.2-0.8,0.2h-9C32.6,32.4,31.2,31,31.2,29.3L31.2,29.3z M33.2,40.2c-0.5-0.4-0.8-1-0.8-1.6V34
	c0.6,0.3,1.3,0.4,1.9,0.4h8.8v4.2c0,0.6-0.3,1.2-0.8,1.6l-3.8,2.2h-0.1c-0.4,0.3-1,0.3-1.4,0h-0.1L33.2,40.2z M40.1,46.2
	c-1.5,0.9-3.3,0.9-4.8,0c0.5-0.5,0.8-1.3,0.8-2l0,0c1,0.6,2.2,0.6,3.2,0l0,0C39.3,45,39.6,45.7,40.1,46.2L40.1,46.2z M26.6,53
	L26.6,53l0.2-2.1c0.2-1.5,1.2-2.7,2.7-2.9l3.8-0.8c2.5,2.3,6.3,2.3,8.8,0L46,48c1.4,0.3,2.5,1.5,2.7,2.9l0.2,2.1H26.6L26.6,53z
	 M18.8,10.6h-7c-0.6,0-1,0.4-1.1,0.9c0,0.6,0.4,1,0.9,1.1c0.1,0,0.1,0,0.2,0h7c0.6,0,1-0.4,1.1-0.9c0-0.6-0.4-1-0.9-1.1
	C18.9,10.6,18.8,10.6,18.8,10.6L18.8,10.6z M22.4,15.4H7.3c-0.6,0-1,0.5-0.9,1.1c0,0.5,0.4,0.9,0.9,0.9h15.1c0.6,0,1-0.4,1.1-0.9
	c0-0.6-0.4-1-0.9-1.1C22.5,15.4,22.4,15.4,22.4,15.4L22.4,15.4z M22.4,20.2H7.3c-0.6,0-1,0.5-0.9,1.1c0,0.5,0.4,0.9,0.9,0.9h15.1
	c0.6,0,1-0.4,1.1-0.9c0-0.6-0.4-1-0.9-1.1C22.4,20.2,22.4,20.2,22.4,20.2L22.4,20.2z M15.3,25h-4c-0.6,0-1,0.4-1.1,0.9
	c0,0.6,0.4,1,0.9,1.1c0.1,0,0.1,0,0.2,0h4c0.5-0.1,0.9-0.6,0.9-1.1C16.1,25.4,15.8,25,15.3,25L15.3,25z M18.8,25L18.8,25
	c-0.6,0.1-0.9,0.6-0.8,1.2c0.1,0.5,0.6,0.9,1.2,0.8c0.5-0.1,0.9-0.6,0.8-1.2C19.8,25.2,19.3,24.9,18.8,25L18.8,25z M26.1,27.3
	c3.5-4.6,3.9-10.8,1.1-15.8c-0.3-0.5-0.9-0.7-1.3-0.4c-0.5,0.3-0.7,0.9-0.4,1.3l0,0c2.5,4.5,2,10-1.3,14C24,26.6,23.9,27,24,27.3
	l0.9,3.3l-4-1.1c-0.2-0.1-0.5,0-0.7,0.1c-1.8,0.9-3.8,1.4-5.8,1.4C7.6,31.1,2,25.5,2,18.5C2,11.6,7.6,6,14.6,6c2,0,3.9,0.5,5.7,1.4
	c0.5,0.3,1.1,0.2,1.4-0.3s0.2-1.1-0.3-1.4c-0.1,0-0.1-0.1-0.2-0.1c-2-1-4.3-1.6-6.6-1.6C6.5,4,0,10.5,0,18.5S6.5,33,14.5,33
	c2.2,0,4.4-0.5,6.3-1.4l5.3,1.4c0.1,0,0.2,0,0.3,0c0.3,0,0.5-0.1,0.7-0.3c0.3-0.3,0.4-0.6,0.3-1L26.1,27.3z M24.7,8.1L24,8.9
	L24.7,8.1c-0.4-0.4-1-0.4-1.4,0c-0.4,0.4-0.4,1,0,1.4l0,0l0,0c0.2,0.2,0.4,0.3,0.7,0.3c0.3,0,0.5-0.1,0.7-0.3
	C25.1,9.2,25.1,8.5,24.7,8.1L24.7,8.1L24.7,8.1z"/>
</svg>
