<?xml version="1.0" encoding="utf-8"?>
<!-- Generator: Adobe Illustrator 21.0.0, SVG Export Plug-In . SVG Version: 6.00 Build 0)  -->
<svg version="1.1" id="Слой_1" xmlns="http://www.w3.org/2000/svg" xmlns:xlink="http://www.w3.org/1999/xlink" x="0px" y="0px"
	 viewBox="0 0 34 34" style="enable-background:new 0 0 34 34;" xml:space="preserve">
<style type="text/css">
	.st0{fill:url(#Forma_1_1_);}
</style>
<linearGradient id="Forma_1_1_" gradientUnits="userSpaceOnUse" x1="16.9986" y1="33.9987" x2="16.9986" y2="-1.586684e-03">
	<stop  offset="0" style="stop-color:#B51F24"/>
	<stop  offset="1" style="stop-color:#E71D25"/>
	<stop  offset="1" style="stop-color:#000000"/>
</linearGradient>
<path id="Forma_1" class="st0" d="M15.8,11c0.1,0.1,0.1,0.2,0.2,0.3c0.1,0.1,0.2,0.2,0.2,0.3c0.1,0.1,0.2,0.2,0.3,0.3
	c0.1,0.1,0.2,0.1,0.4,0.2c0.1,0.1,0.3,0.1,0.4,0.1c0.1,0,0.3,0,0.4,0c0.1,0,0.3,0,0.4,0c0.1,0,0.2-0.1,0.3-0.1h0
	c0.1-0.1,0.2-0.1,0.4-0.2c0.1-0.1,0.2-0.2,0.3-0.3l0,0c0.1-0.1,0.2-0.2,0.2-0.3c0.1-0.1,0.1-0.2,0.2-0.3c0,0,0,0,0-0.1
	c0.1-0.1,0.1-0.3,0.1-0.4c0-0.1,0-0.3,0-0.4c0-0.1,0-0.3,0-0.4c0-0.1-0.1-0.3-0.1-0.4c-0.1-0.2-0.2-0.4-0.4-0.6l-0.1-0.1
	c-0.1-0.1-0.2-0.2-0.3-0.3c-0.1-0.1-0.2-0.1-0.3-0.2c-0.1-0.1-0.2-0.1-0.4-0.1c-0.1,0-0.3,0-0.4,0c-0.1,0-0.3,0-0.4,0
	c-0.1,0-0.3,0.1-0.4,0.1h0c-0.1,0.1-0.2,0.1-0.3,0.2c-0.1,0.1-0.2,0.2-0.3,0.3C16.1,8.8,16,8.9,16,9c-0.1,0.1-0.1,0.2-0.2,0.3
	c-0.1,0.1-0.1,0.2-0.1,0.4c0,0.1,0,0.3,0,0.4c0,0.1,0,0.3,0,0.4C15.7,10.7,15.7,10.9,15.8,11z M20,22.4h-0.7v-7.6
	c0-0.4-0.3-0.8-0.8-0.8c0,0,0,0,0,0h-3.2c-0.4,0-0.8,0.4-0.8,0.8c0,0,0,0,0,0v1.7c0,0.4,0.4,0.8,0.8,0.8H16v5.2h-0.6
	c-0.4,0-0.8,0.4-0.8,0.8c0,0,0,0,0,0v1.7c0,0.4,0.3,0.8,0.8,0.8c0,0,0,0,0,0H20c0.4,0,0.8-0.4,0.8-0.8c0,0,0,0,0,0v-1.7
	C20.9,22.8,20.5,22.4,20,22.4z M17.2,0C7.8-0.1,0.1,7.4,0,16.8C-0.1,26.2,7.4,33.9,16.8,34S33.9,26.6,34,17.2c0-0.1,0-0.2,0-0.2
	C34.1,7.7,26.6,0.1,17.2,0L17.2,0z M17.2,31.8c-8.2,0.1-14.8-6.4-15-14.6C2.2,9,8.7,2.4,16.8,2.2c8.2-0.1,14.8,6.4,15,14.6
	c0,0.1,0,0.1,0,0.2C31.8,25.1,25.3,31.7,17.2,31.8L17.2,31.8z"/>
</svg>
