<?xml version="1.0" encoding="utf-8"?>
<!-- Generator: Adobe Illustrator 21.0.0, SVG Export Plug-In . SVG Version: 6.00 Build 0)  -->
<svg version="1.1" id="Слой_1" xmlns="http://www.w3.org/2000/svg" xmlns:xlink="http://www.w3.org/1999/xlink" x="0px" y="0px"
	 viewBox="0 0 60 60" style="enable-background:new 0 0 60 60;" xml:space="preserve">
<style type="text/css">
	.st0{fill:#FFD87A;}
</style>
<path id="Forma_1" class="st0" d="M28.6,30.1c4.3,4.3,11.2,4.4,15.6,0.2c4.3-4.3,4.4-11.2,0.2-15.6c-0.1-0.1-0.1-0.1-0.2-0.2
	l-7.4-7.4c-4.3-4.3-11.2-4.4-15.6-0.1c-4.3,4.3-4.4,11.2-0.1,15.6c0,0,0.1,0.1,0.1,0.1l1.6,1.6L0.2,46.9c-0.3,0.3-0.4,0.9,0,1.3
	c0,0,0,0,0,0l2.9,2.9c0.4,0.3,0.9,0.3,1.3,0l0.4-0.4l5.6,5.6c0.4,0.3,0.9,0.3,1.3,0l3.9-3.9c0.3-0.3,0.4-0.9,0-1.3c0,0,0,0,0,0
	l-2.3-2.3l2.6-2.6c0.3-0.4,0.3-0.9,0-1.3l-2.6-2.6L27,28.6L28.6,30.1z M22.4,8.5c3.6-3.6,9.4-3.6,13.1,0l7.4,7.4
	c3.6,3.6,3.7,9.4,0.1,13c-3.6,3.6-9.4,3.7-13,0.1c0,0-0.1-0.1-0.1-0.1l-7.4-7.4C18.9,17.9,18.8,12.1,22.4,8.5L22.4,8.5z M13.9,45.6
	l-2.6,2.6c-0.3,0.3-0.4,0.9,0,1.3c0,0,0,0,0,0l2.3,2.3L11,54.4l-4.9-4.9l5.8-5.8L13.9,45.6z M3.8,49.2l-1.7-1.7L24,25.6l1.7,1.7
	L3.8,49.2z M40.5,26.5c2.3-2.3,2.3-5.9,0-8.2l-7.4-7.4c-2.3-2.3-5.9-2.3-8.2,0s-2.3,5.9,0,8.2l7.4,7.4
	C34.5,28.7,38.2,28.7,40.5,26.5L40.5,26.5z M26.1,12.1c1.6-1.6,4.1-1.6,5.7,0l7.4,7.4c1.6,1.6,1.6,4.1,0,5.7c-1.6,1.6-4.1,1.6-5.7,0
	l-7.4-7.4C24.6,16.3,24.6,13.7,26.1,12.1L26.1,12.1z"/>
</svg>
