<?xml version="1.0" encoding="utf-8"?>
<!-- Generator: Adobe Illustrator 21.0.0, SVG Export Plug-In . SVG Version: 6.00 Build 0)  -->
<svg version="1.1" id="Слой_1" xmlns="http://www.w3.org/2000/svg" xmlns:xlink="http://www.w3.org/1999/xlink" x="0px" y="0px"
	 viewBox="0 0 66 70" style="enable-background:new 0 0 66 70;" xml:space="preserve">
<style type="text/css">
	.st0{fill:#E61D25;}
</style>
<path id="Forma_1" class="st0" d="M33.2,39.4c5,5,13.1,5,18.1,0.1c5-5,5-13.1,0.1-18.1c0,0,0,0,0,0l-8.6-8.6c-4.9-5-13-5.1-18.1-0.2
	c-5,4.9-5.1,13-0.2,18.1c0.1,0.1,0.1,0.1,0.2,0.2l1.8,1.8L0.3,58.8c-0.4,0.4-0.4,1.1,0,1.5c0,0,0,0,0,0l3.4,3.4
	c0.4,0.4,1.1,0.4,1.5,0l0.4-0.4l6.5,6.5c0.4,0.4,1.1,0.4,1.5,0l4.5-4.5c0.4-0.4,0.4-1.1,0-1.5c0,0,0,0,0,0L15.3,61l3-3
	c0.4-0.4,0.4-1.1,0-1.5l-3-3l16-16L33.2,39.4z M26,14.2c4.2-4.2,11-4.2,15.1,0l8.6,8.6c4.3,4.1,4.4,10.9,0.3,15.1
	c-4.1,4.3-10.9,4.4-15.1,0.3c-0.1-0.1-0.2-0.2-0.3-0.3L26,29.3C21.9,25.2,21.9,18.4,26,14.2z M16.1,57.3l-3,3
	c-0.4,0.4-0.4,1.1,0,1.5c0,0,0,0,0,0l2.7,2.7l-3,3l-5.7-5.7l6.8-6.8L16.1,57.3z M4.4,61.5l-1.9-1.9l25.4-25.4l1.9,1.9L4.4,61.5z
	 M47,35.1c2.6-2.6,2.6-6.9,0-9.5L38.4,17c-2.6-2.6-6.9-2.6-9.5,0c-2.6,2.6-2.6,6.9,0,9.5l0,0l8.6,8.6C40.1,37.7,44.3,37.8,47,35.1
	L47,35.1z M30.3,18.5c1.8-1.8,4.8-1.8,6.6,0l8.6,8.6c1.8,1.8,1.9,4.7,0.1,6.6s-4.7,1.9-6.6,0.1c0,0,0,0-0.1-0.1l-8.6-8.6
	C28.5,23.3,28.5,20.3,30.3,18.5L30.3,18.5z"/>
</svg>
