<?xml version="1.0" encoding="utf-8"?>
<!-- Generator: Adobe Illustrator 21.0.0, SVG Export Plug-In . SVG Version: 6.00 Build 0)  -->
<svg version="1.1" id="Слой_1" xmlns="http://www.w3.org/2000/svg" xmlns:xlink="http://www.w3.org/1999/xlink" x="0px" y="0px"
	 viewBox="0 0 60 60" style="enable-background:new 0 0 60 60;" xml:space="preserve">
<style type="text/css">
	.st0{fill:#FFD87A;}
</style>
<path id="Forma_1" class="st0" d="M37.1,5.9h-7.1c-0.4-1.2-1.5-2-2.7-2h-3c-1.6-2.1-4.5-2.6-6.7-1.1c-0.4,0.3-0.8,0.6-1.1,1.1h-3
	c-1.2,0-2.3,0.8-2.7,2H3.9C1.7,5.9,0,7.7,0,9.8v45.3C0,57.3,1.7,59,3.9,59h33.3c2.1,0,3.9-1.7,3.9-3.9V9.8C41,7.7,39.3,5.9,37.1,5.9
	z M10.9,11.7c0.4,1.2,1.5,2,2.7,2h13.7c1.2,0,2.3-0.8,2.7-2h5.2v41.5H5.8V11.7H10.9z M13.7,5.8h3.5c0.3,0,0.6-0.2,0.8-0.5
	c0.8-1.4,2.6-1.9,4-1.1c0.5,0.3,0.9,0.7,1.1,1.1c0.2,0.3,0.5,0.5,0.8,0.5h3.5c0.6,0,1,0.5,1,1c0,0,0,0,0,0v3.9c0,0.6-0.5,1-1,1
	c0,0,0,0,0,0H13.7c-0.6,0-1-0.5-1-1c0,0,0,0,0,0V6.9C12.6,6.3,13.1,5.8,13.7,5.8C13.6,5.8,13.6,5.8,13.7,5.8L13.7,5.8z M39.2,55.1
	c0,1.1-0.9,2-2,2c0,0,0,0,0,0H3.9c-1.1,0-2-0.9-2-2c0,0,0,0,0,0V9.8c0-1.1,0.9-2,2-2c0,0,0,0,0,0h6.9v2.1H4.8
	c-0.5,0-0.9,0.4-0.9,0.9v43.3c0,0.5,0.4,0.9,0.9,0.9h31.3c0.5,0,0.9-0.4,0.9-0.9V10.8c0-0.5-0.4-0.9-0.9-0.9h-5.9V7.8h6.9
	c1.1,0,2,0.9,2,2c0,0,0,0,0,0L39.2,55.1L39.2,55.1z M20.5,9.8c0.5,0,0.9-0.4,0.9-0.9c0,0,0,0,0,0v-2c0-0.5-0.4-0.9-0.9-0.9
	c-0.5,0-0.9,0.4-0.9,0.9c0,0,0,0,0,0v2C19.6,9.3,20,9.8,20.5,9.8C20.5,9.8,20.5,9.8,20.5,9.8L20.5,9.8z M21.5,22.6h5.9
	c0.5,0,0.9-0.4,0.9-1c0-0.5-0.4-0.9-0.9-0.9h-5.9c-0.5,0-0.9,0.4-0.9,0.9S21,22.6,21.5,22.6L21.5,22.6z M21.5,26.5h9.8
	c0.5,0,0.9-0.4,0.9-1c0-0.5-0.4-0.9-0.9-0.9h-9.8c-0.5,0-0.9,0.4-0.9,0.9S21,26.5,21.5,26.5L21.5,26.5z M12,26.2
	c0.2,0.2,0.4,0.3,0.7,0.3c0.2,0,0.5-0.1,0.7-0.3l4.9-4.9c0.4-0.4,0.4-0.9,0-1.3c-0.4-0.4-0.9-0.4-1.3,0l-4.2,4.3L10.4,22
	c-0.4-0.4-0.9-0.4-1.3,0c-0.4,0.4-0.4,0.9,0,1.3L12,26.2z M21.5,32.4h5.9c0.5,0,0.9-0.4,0.9-0.9c0-0.5-0.4-0.9-0.9-0.9h-5.9
	c-0.5,0-0.9,0.4-0.9,0.9S21,32.4,21.5,32.4L21.5,32.4z M21.5,36.3h9.8c0.5,0,0.9-0.4,0.9-1c0-0.5-0.4-0.9-0.9-0.9h-9.8
	c-0.5,0-0.9,0.4-0.9,0.9S21,36.3,21.5,36.3L21.5,36.3z M12,36.1c0.2,0.2,0.4,0.3,0.7,0.3c0.2,0,0.5-0.1,0.7-0.3l4.9-4.9
	c0.4-0.4,0.4-0.9,0-1.3c-0.4-0.4-0.9-0.4-1.3,0l0,0l-4.2,4.3l-2.3-2.3c-0.4-0.4-0.9-0.4-1.3,0c-0.4,0.4-0.4,0.9,0,1.3l0,0L12,36.1z
	 M21.5,42.3h5.9c0.5,0,0.9-0.4,0.9-0.9c0-0.5-0.4-0.9-0.9-0.9h-5.9c-0.5,0-0.9,0.4-0.9,0.9S21,42.3,21.5,42.3L21.5,42.3z M21.5,46.2
	h9.8c0.5,0,0.9-0.4,0.9-1c0-0.5-0.4-0.9-0.9-0.9h-9.8c-0.5,0-0.9,0.4-0.9,0.9C20.6,45.8,21,46.2,21.5,46.2L21.5,46.2z M12,45.9
	c0.2,0.2,0.4,0.3,0.7,0.3c0.2,0,0.5-0.1,0.7-0.3l4.9-4.9c0.4-0.4,0.4-0.9,0-1.3c-0.4-0.4-0.9-0.4-1.3,0l0,0L12.7,44l-2.3-2.3
	c-0.4-0.3-1-0.3-1.3,0.1c-0.3,0.3-0.3,0.9,0,1.2L12,45.9z"/>
</svg>
