<?xml version="1.0" encoding="utf-8"?>
<!-- Generator: Adobe Illustrator 21.0.0, SVG Export Plug-In . SVG Version: 6.00 Build 0)  -->
<svg version="1.1" id="Слой_1" xmlns="http://www.w3.org/2000/svg" xmlns:xlink="http://www.w3.org/1999/xlink" x="0px" y="0px"
	 viewBox="0 0 13 13" style="enable-background:new 0 0 13 13;" xml:space="preserve">
<style type="text/css">
	.st0{fill:#FFFFFF;}
</style>
<path id="Forma_1" class="st0" d="M12.7,11.1L9.9,8.3c0,0,0,0-0.1,0c1.6-2.5,0.9-5.8-1.5-7.4C5.8-0.8,2.5-0.1,0.9,2.4
	c-1.6,2.5-0.9,5.8,1.5,7.4c1.8,1.2,4.1,1.2,5.9,0c0,0,0,0,0,0.1l2.8,2.8c0.4,0.4,1.1,0.4,1.5,0C13.1,12.2,13.1,11.6,12.7,11.1z
	 M5.3,8.8c-1.9,0-3.5-1.6-3.5-3.5s1.6-3.5,3.5-3.5s3.5,1.6,3.5,3.5C8.8,7.3,7.3,8.8,5.3,8.8C5.3,8.8,5.3,8.8,5.3,8.8L5.3,8.8z"/>
</svg>
