<?xml version="1.0" encoding="utf-8"?>
<!-- Generator: Adobe Illustrator 21.0.0, SVG Export Plug-In . SVG Version: 6.00 Build 0)  -->
<svg version="1.1" id="Слой_1" xmlns="http://www.w3.org/2000/svg" xmlns:xlink="http://www.w3.org/1999/xlink" x="0px" y="0px"
	 viewBox="0 0 60 60" style="enable-background:new 0 0 60 60;" xml:space="preserve">
<style type="text/css">
	.st0{fill:#FFD87A;}
</style>
<path id="Forma_1" class="st0" d="M9.1,12.8c-0.4-0.4-1-0.4-1.4,0c-0.4,0.4-0.4,1,0,1.4c0.4,0.4,1,0.4,1.4,0c0,0,0,0,0,0
	C9.5,13.7,9.5,13.1,9.1,12.8z M47.9,47.5L35.3,34.9c-0.4-0.4-1-0.4-1.4,0l-2.6-2.6c5.5-7.8,3.7-18.5-4.1-24
	c-7.8-5.5-18.5-3.7-24,4.1c-5.5,7.8-3.7,18.5,4.1,24c6,4.2,14,4.2,20,0l2.6,2.6c-0.4,0.4-0.4,1,0,1.4L40.5,51l1.9,1.9
	c1.5,1.5,3.9,1.5,5.4,0C49.4,51.4,49.4,49,47.9,47.5L47.9,47.5z M26.7,34.3c-6.7,5.3-16.3,4.1-21.6-2.5S1,15.4,7.6,10.1
	C14.3,4.9,24,6,29.2,12.7c4.4,5.6,4.4,13.5,0,19C28.5,32.7,27.7,33.5,26.7,34.3z M28.7,35.1c0.5-0.4,0.9-0.9,1.4-1.4l2.5,2.5
	l-1.3,1.4L28.7,35.1z M41.2,48.9l-9.3-9.3l2.7-2.7l9.3,9.3L41.2,48.9z M46.5,51.5c-0.7,0.7-1.9,0.8-2.7,0c0,0,0,0,0,0l-1.2-1.2
	l2.7-2.7l1.2,1.2c0.4,0.4,0.6,0.8,0.6,1.4C47.1,50.7,46.9,51.2,46.5,51.5z M23.7,18.7c-0.4-0.4-1-0.4-1.4,0l-6,6l-4.1-4.1
	c-0.4-0.4-1-0.3-1.4,0c-0.3,0.4-0.3,0.9,0,1.3l4.8,4.8c0.2,0.2,0.4,0.3,0.7,0.3c0.3,0,0.5-0.1,0.7-0.3l6.7-6.7
	C24,19.7,24,19.1,23.7,18.7z M17.2,8.8c-2.1,0-4.2,0.5-6.2,1.5c-0.5,0.2-0.7,0.8-0.4,1.3c0.2,0.5,0.8,0.7,1.3,0.4l0,0
	c1.6-0.8,3.4-1.3,5.3-1.3c6.3,0,11.5,5.1,11.5,11.5c0,6.3-5.1,11.5-11.5,11.5c-6.3,0-11.5-5.1-11.5-11.5c0-1.8,0.4-3.6,1.3-5.3
	c0.2-0.5,0.1-1-0.4-1.3c-0.5-0.2-1-0.1-1.3,0.4c-3.4,6.6-0.8,14.7,5.8,18.1s14.7,0.8,18.1-5.8s0.8-14.7-5.8-18.1
	C21.5,9.3,19.4,8.8,17.2,8.8z"/>
</svg>
