<?xml version="1.0" encoding="utf-8"?>
<!-- Generator: Adobe Illustrator 22.1.0, SVG Export Plug-In . SVG Version: 6.00 Build 0)  -->
<svg version="1.1" id="Слой_1" xmlns="http://www.w3.org/2000/svg" xmlns:xlink="http://www.w3.org/1999/xlink" x="0px" y="0px"
	 width="56px" height="47px" viewBox="0 0 56 47" style="enable-background:new 0 0 56 47;" xml:space="preserve">
<path style="fill:#FFD87A;" d="M54.2,31.9h-3.5c-2.3,5.3-7,9.4-12.9,10.8l-0.5,2.1C37,46.1,35.9,47,34.5,47h-4.2
	c-1.5,0-2.8-1.2-2.8-2.8v-1H19c-1,0-2-0.1-2.9-0.2v1.2c0,1.5-1.3,2.8-2.8,2.8H9.5c-0.9,0-1.8-0.4-2.3-1.2C5.5,43.5,0,34.9,0,24.4
	c0-4.7,1.7-9.2,4.9-12.6c3-3.3,7.1-5.4,11.5-6c0.7-2.8,3.3-4.9,6.4-4.9c3,0,5.5,2,6.3,4.7h3.2V0.9c0-0.3,0.1-0.5,0.3-0.7
	C32.8,0,33.1,0,33.4,0c0.1,0,1.9,0.3,3.8,1.7C39,3.2,40,5.2,40.4,7.1c2.8,1.1,5.3,3,7.3,5.3c2,2.4,3.5,5.3,4.1,8.3
	c0,0,0,0.1,0.1,0.1l2.3,0l0,0c0.5,0,1,0.2,1.3,0.5c0.3,0.3,0.5,0.8,0.5,1.3v7.5C56,31.1,55.2,31.9,54.2,31.9z M22.8,2.7
	c-2.7,0-4.8,2.1-4.8,4.8c0,0.7,0.1,1.3,0.4,1.9h8.8c0.3-0.6,0.4-1.3,0.4-1.9C27.6,4.8,25.4,2.7,22.8,2.7z M54.2,22.6
	C54.2,22.6,54.2,22.5,54.2,22.6C54.2,22.5,54.2,22.5,54.2,22.6l-2.3-0.1c-0.9,0-1.6-0.6-1.8-1.5c-0.6-2.8-1.8-5.4-3.7-7.5
	c-1.6-1.8-3.5-3.3-5.6-4.3c0,0.4,0,0.8,0,1.2c0,0.5-0.4,0.9-0.9,0.9c-0.5,0-0.9-0.4-0.9-0.9c0-5.7-3.2-7.6-4.9-8.3v7.3
	c0,0.5-0.4,0.9-0.9,0.9c-0.5,0-0.9-0.4-0.9-0.9V7.4h-3c0,0,0,0,0,0.1c0,0.7-0.1,1.3-0.3,1.9h0.4c0.5,0,0.9,0.4,0.9,0.9
	s-0.4,0.9-0.9,0.9H16.1c-0.5,0-0.9-0.4-0.9-0.9s0.4-0.9,0.9-0.9h0.4c-0.2-0.6-0.3-1.2-0.3-1.8c-3.8,0.6-7.3,2.5-9.9,5.4
	c-2.9,3.1-4.4,7.2-4.4,11.4c0,10,5.2,18.1,6.9,20.4c0.2,0.3,0.5,0.4,0.8,0.4h3.8c0.6,0,1-0.5,1-1v-9.4c0-0.5,0.4-0.9,0.9-0.9
	c0.5,0,0.9,0.4,0.9,0.9v6.4c1,0.2,1.9,0.2,2.9,0.2h8.6v-1c0-0.5,0.4-0.9,0.9-0.9c0.5,0,0.9,0.4,0.9,0.9v3.8c0,0.6,0.5,1,1,1h4.2
	c0.5,0,0.9-0.3,1-0.8l2.1-9.8c0.1-0.5,0.6-0.8,1.1-0.7c0.5,0.1,0.8,0.6,0.7,1l-1.2,5.8c6.9-2,11.9-8.2,12.2-15.4
	c0-0.5,0.4-0.9,0.9-0.8c0.5,0,0.9,0.4,0.8,0.9c-0.1,1.6-0.4,3.2-0.9,4.7h2.9c0,0,0.1,0,0.1-0.1l0,0V22.6z M45.9,22.4
	c-0.1,0-0.2,0.1-0.3,0.1c-0.4,0-0.7-0.2-0.8-0.6c-0.3-0.8-1.1-1.3-2-1.3c-0.9,0-1.7,0.5-2,1.3c-0.2,0.5-0.7,0.7-1.1,0.5
	c-0.5-0.2-0.7-0.7-0.5-1.1c0.6-1.5,2-2.5,3.6-2.5c1.6,0,3.1,1,3.6,2.5C46.6,21.8,46.4,22.3,45.9,22.4z M28.5,37.6
	c-0.5,0-0.9-0.4-0.9-0.9v-1.9c0-0.5,0.4-0.9,0.9-0.9c0.5,0,0.9,0.4,0.9,0.9v1.9C29.4,37.2,29,37.6,28.5,37.6z M28.4,27.9
	c0,1.8-2,3.3-4.8,3.5v0.1c0,0.5-0.4,0.9-0.9,0.9c-0.5,0-0.9-0.4-0.9-0.9v-0.1c-2.7-0.3-4.8-1.7-4.8-3.5c0-0.5,0.4-0.9,0.9-0.9
	c0.5,0,0.9,0.4,0.9,0.9c0,0.7,1.2,1.5,3,1.7v-4.5c-2.2-0.6-4.8-1.5-4.8-4.1c0-1.8,2-3.3,4.8-3.5v-0.1c0-0.5,0.4-0.9,0.9-0.9
	c0.5,0,0.9,0.4,0.9,0.9v0.1c2.7,0.3,4.8,1.7,4.8,3.5c0,0.5-0.4,0.9-0.9,0.9c-0.5,0-0.9-0.4-0.9-0.9c0-0.7-1.2-1.5-3-1.7v4.5
	C25.8,24.4,28.4,25.3,28.4,27.9z M23.7,29.6c1.8-0.2,3-1,3-1.7c0-1-0.8-1.6-3-2.3V29.6z M21.9,19.3c-1.8,0.2-3,1-3,1.7
	c0,1,0.8,1.6,3,2.3V19.3z"/>
</svg>
