<?xml version="1.0" encoding="utf-8"?>
<!-- Generator: Adobe Illustrator 21.0.0, SVG Export Plug-In . SVG Version: 6.00 Build 0)  -->
<svg version="1.1" id="Слой_1" xmlns="http://www.w3.org/2000/svg" xmlns:xlink="http://www.w3.org/1999/xlink" x="0px" y="0px"
	 viewBox="0 0 60 60" style="enable-background:new 0 0 60 60;" xml:space="preserve">
<style type="text/css">
	.st0{fill:#FFD87A;}
</style>
<path class="st0" d="M33.6,42c-1.1,1.1-1.2,2.8-0.1,3.9c0,0,0.1,0.1,0.1,0.1c1.1,1.1,2.8,1.2,3.9,0.1c0,0,0.1-0.1,0.1-0.1
	c1.1-1.1,1.2-2.9,0.1-4S34.8,40.9,33.6,42C33.7,42,33.7,42,33.6,42z M36.6,45.1c-0.6,0.5-1.5,0.5-2,0c-0.5-0.6-0.5-1.4,0-2
	c0.3-0.3,0.6-0.4,1-0.4c0.4,0,0.7,0.2,1,0.4C37.2,43.6,37.2,44.5,36.6,45.1C36.7,45.1,36.7,45.1,36.6,45.1z M42.5,42.9L29.6,30
	l5.1-5.1l0,0l3-3l0,0l4.4-4.4c1.2-1.2,1.2-3.2,0-4.4l-3.7-3.7c-0.6-0.6-1.4-0.9-2.2-0.9c-0.8,0-1.6,0.3-2.2,0.9l-4.4,4.4l-3,3
	l-5.1,5.1L8.8,9.1c-0.8-0.8-2.2-0.8-3,0l-5.1,5.1c-0.8,0.8-0.9,2.1-0.1,2.9c0,0,0.1,0.1,0.1,0.1l1.5,1.5l0,0l4.1,4.1l0,0l4,4l0,0
	l3.2,3.2L1.9,41.5c-0.2,0.1-0.4,0.3-0.4,0.5L0,50.6c0,0.2,0.1,0.5,0.2,0.6c0.1,0.1,0.3,0.2,0.5,0.2h0.1L9.1,50c0.1,0,0.1,0,0.2,0
	c0.2,0,0.4-0.1,0.5-0.2l11.7-11.7l0.9,0.9l0,0l2,2l0,0l10,10c0.3,0.3,0.8,0.5,1.2,0.5c0.4,0,0.9-0.2,1.2-0.5l5.7-5.7
	C43.2,44.6,43.2,43.6,42.5,42.9L42.5,42.9z M9.3,48.2l-2.5-2.5l23.8-23.8l2.5,2.5L9.3,48.2z M35,10.4c0.7-0.6,1.8-0.6,2.4,0l3.7,3.7
	c0.6,0.7,0.6,1.8,0,2.4l-3.9,3.9l-6.1-6.1L35,10.4z M30.1,15.3l3.1,3l3.1,3l-2,2l-6.1-6.1L30.1,15.3z M13.8,28.4l1.5-1.5
	c0.3-0.3,0.3-0.7,0.1-1c-0.3-0.3-0.7-0.3-1-0.1c0,0,0,0-0.1,0.1l-1.5,1.5l-1-1l2.5-2.5c0.3-0.3,0.2-0.7-0.1-1
	c-0.3-0.2-0.7-0.2-0.9,0l-2.5,2.5l-1-1l1.5-1.5c0.3-0.3,0.3-0.7,0.1-1c-0.3-0.3-0.7-0.3-1-0.1c0,0,0,0-0.1,0.1l-1.5,1.5l-1-1
	l2.5-2.5c0.3-0.3,0.2-0.7-0.1-1c-0.3-0.2-0.7-0.2-0.9,0l-2.5,2.5l-1.1-1.1l1.5-1.5c0.3-0.3,0.2-0.7-0.1-1c-0.3-0.2-0.7-0.2-0.9,0
	l-1.5,1.5l-1-1l2.5-2.5c0.3-0.3,0.2-0.7-0.1-1c-0.3-0.2-0.7-0.2-0.9,0l-2.5,2.5l-1-1c-0.3-0.3-0.3-0.7,0-1c0,0,0,0,0,0l5.1-5.1
	C6.9,10,7,10,7.2,10c0.2,0,0.4,0.1,0.5,0.2l12.8,12.7L14.4,29L13.8,28.4z M27.1,18.4l2.5,2.5L5.8,44.7l-2.5-2.5L27.1,18.4z
	 M2.7,43.6L5.1,46c0,0.1,0.1,0.2,0.2,0.2l2.6,2.6l-6.2,1.1L2.7,43.6z M41.5,44.3L35.8,50c-0.1,0.1-0.3,0.1-0.4,0L28,42.6l2.5-2.5
	c0.3-0.3,0.3-0.7,0.1-1c-0.3-0.3-0.7-0.3-1-0.1c0,0-0.1,0-0.1,0.1L27,41.6l-1-1l1.5-1.5c0.3-0.3,0.3-0.7,0.1-1
	c-0.3-0.3-0.7-0.3-1-0.1c0,0,0,0-0.1,0.1L25,39.5l-1-1l2.5-2.5c0.3-0.3,0.2-0.7-0.1-1c-0.3-0.2-0.7-0.2-0.9,0l-2.5,2.5l-0.4-0.4
	l6.1-6.1l12.9,12.9C41.6,44,41.6,44.2,41.5,44.3L41.5,44.3z"/>
</svg>
