<?xml version="1.0" encoding="utf-8"?>
<!-- Generator: Adobe Illustrator 21.0.0, SVG Export Plug-In . SVG Version: 6.00 Build 0)  -->
<svg version="1.1" id="Слой_1" xmlns="http://www.w3.org/2000/svg" xmlns:xlink="http://www.w3.org/1999/xlink" x="0px" y="0px"
	 viewBox="0 0 60 60" style="enable-background:new 0 0 60 60;" xml:space="preserve">
<style type="text/css">
	.st0{fill:#FFD87A;}
</style>
<path id="Forma_1" class="st0" d="M44,17l-6-6H22.5V9.9C25.2,9.3,27,6.7,26.4,4c-0.6-2.7-3.2-4.5-5.9-3.9S16,3.3,16.6,6
	c0.4,2,1.9,3.5,3.9,3.9V11h-7.9c-1.7,0-3.2,1.4-3.2,3.1V17H6l-6,6l6,6h14.5v21h-5v4h-3v6h18.1v-6h-3v-4h-5V29h8.9
	c1.7,0,3.2-1.4,3.2-3.1V23H38L44,17z M18.5,5c0-1.7,1.3-3,3-3s3,1.3,3,3c0,1.7-1.3,3-3,3c0,0,0,0,0,0C19.8,8,18.5,6.7,18.5,5z
	 M28.5,56v2H14.5v-2H28.5z M25.5,54h-8v-2h8V54z M32.5,25.9c0,0.6-0.5,1.1-1.1,1.1c0,0,0,0,0,0H6.9l-4-4l4-4h24.5
	c0.6,0,1.1,0.5,1.2,1.1c0,0,0,0,0,0V25.9L32.5,25.9z M34.6,21v-0.9c0-1.7-1.4-3.1-3.2-3.1H11.5v-2.9c0-0.6,0.5-1.1,1.1-1.1
	c0,0,0,0,0,0h24.5l4,4l-4,4H34.6z"/>
</svg>
