<?xml version="1.0" encoding="utf-8"?>
<!-- Generator: Adobe Illustrator 21.0.0, SVG Export Plug-In . SVG Version: 6.00 Build 0)  -->
<svg version="1.1" id="Слой_1" xmlns="http://www.w3.org/2000/svg" xmlns:xlink="http://www.w3.org/1999/xlink" x="0px" y="0px"
	 viewBox="0 0 60 60" style="enable-background:new 0 0 60 60;" xml:space="preserve">
<style type="text/css">
	.st0{fill:#FFD87A;}
</style>
<path id="Forma_1" class="st0" d="M52,30c0-1.6-1.1-3.1-2.7-3.5c-0.1-12-3.7-19.6-19.8-19.8C29,4.8,27,3.6,25.1,4.1
	c-1.3,0.3-2.3,1.3-2.6,2.6C6.4,6.9,2.8,14.5,2.7,26.5C0.8,27-0.4,29,0.1,30.9c0.3,1.3,1.3,2.3,2.6,2.6c0.1,12.1,3.7,19.6,19.8,19.8
	c0.5,1.9,2.4,3.1,4.3,2.6c1.3-0.3,2.3-1.3,2.6-2.6c16.2-0.2,19.7-7.8,19.8-19.8C50.9,33.1,52,31.6,52,30z M47.5,26.5
	c-0.4,0.1-0.8,0.3-1.1,0.5c-0.2-1.5-0.6-3.1-1.2-4.5c0,0,0,0,0-0.1s0,0,0-0.1c-2-5-5.9-9.1-10.9-11.3c0,0,0,0-0.1,0c0,0,0,0-0.1,0
	c-1.6-0.7-3.4-1.2-5.1-1.5h-0.1c0.2-0.3,0.4-0.7,0.5-1.1C44.2,8.7,47.4,15.3,47.5,26.5z M33.7,47.2l-2.3-5.8
	c0.7-0.3,1.4-0.8,2.1-1.2c1.5-1.1,2.8-2.6,3.7-4.3l5.8,2.5C41,42.2,37.7,45.4,33.7,47.2L33.7,47.2z M23.2,48.6
	c-1.3-0.2-2.6-0.5-3.9-1l2.5-5.8c0.8,0.3,1.5,0.5,2.3,0.6c0.6,0.1,1.3,0.1,1.9,0.1c1.3,0,2.5-0.2,3.7-0.6l2.3,5.8
	C29.2,48.8,26.2,49.1,23.2,48.6L23.2,48.6z M10.9,41.2c-0.8-1.1-1.5-2.2-2-3.5l5.8-2.3c1.2,2.4,3.1,4.4,5.5,5.7l-2.5,5.8
	C15,45.6,12.7,43.6,10.9,41.2L10.9,41.2z M18.3,12.8l2.3,5.8c-0.7,0.3-1.4,0.8-2,1.2c-1.5,1.1-2.8,2.6-3.7,4.3l-5.8-2.5
	C11,17.8,14.3,14.6,18.3,12.8z M26,11.2L26,11.2L26,11.2L26,11.2c2.3,0,4.6,0.4,6.7,1.2l-2.5,5.8c-0.8-0.3-1.5-0.5-2.3-0.6
	c-1.9-0.3-3.8-0.1-5.6,0.4L20,12.1C21.9,11.5,23.9,11.2,26,11.2z M41.1,18.8c0.8,1.1,1.5,2.2,2,3.5l-5.8,2.3
	c-1.2-2.4-3.1-4.4-5.5-5.7l2.5-5.8C37,14.4,39.3,16.4,41.1,18.8L41.1,18.8z M43.6,36.7l-5.8-2.5c0.3-0.8,0.5-1.5,0.6-2.3
	c0.3-1.9,0.1-3.8-0.4-5.6l5.8-2.3C45.2,28.1,45.2,32.6,43.6,36.7z M30,40L30,40c-0.1,0-0.2,0-0.2,0.1c-4.5,1.7-9.6,0.2-12.5-3.7
	c-0.5-0.7-1-1.5-1.3-2.4c0,0,0,0,0-0.1c0,0,0-0.1-0.1-0.1C13.8,28.4,16.6,22.2,22,20l0,0l0,0c1.2-0.5,2.6-0.8,3.9-0.8
	c0.5,0,1.1,0,1.6,0.1c0.9,0.1,1.8,0.4,2.6,0.7c0,0,0.1,0,0.1,0.1h0.1c4.4,2,7,6.6,6.3,11.4c-0.1,0.9-0.4,1.8-0.8,2.7l0,0l0,0
	C34.7,36.9,32.6,38.9,30,40L30,40z M7.4,27.2c0.2-1.3,0.5-2.6,1-3.9l5.8,2.5c-0.3,0.8-0.5,1.5-0.6,2.3c-0.3,1.9-0.1,3.8,0.4,5.6
	L8.2,36C7.2,33.2,6.9,30.2,7.4,27.2L7.4,27.2z M26,5.8c1,0,1.8,0.8,1.8,1.8S27,9.4,26,9.4s-1.8-0.8-1.8-1.8l0,0
	C24.2,6.6,25,5.8,26,5.8z M22.5,8.5c0.1,0.4,0.3,0.8,0.5,1.1c-1.6,0.2-3.1,0.6-4.5,1.2c0,0,0,0-0.1,0s0,0-0.1,0
	c-5,2-9.1,5.9-11.3,10.9c0,0,0,0,0,0.1s0,0,0,0.1c-0.7,1.6-1.2,3.3-1.5,5.1v0.1c-0.3-0.2-0.7-0.4-1.1-0.5C4.6,15.3,7.8,8.7,22.5,8.5
	L22.5,8.5z M1.8,30c0-1,0.8-1.8,1.8-1.8S5.4,29,5.4,30s-0.8,1.8-1.8,1.8l0,0C2.6,31.8,1.8,31,1.8,30z M4.5,33.5
	c0.4-0.1,0.8-0.3,1.1-0.5c0.2,1.5,0.6,3.1,1.2,4.5c0,0,0,0,0,0.1c0,0,0,0.1,0.1,0.1c2,5,5.9,9.1,10.9,11.2c0,0,0,0,0.1,0
	c0,0,0,0,0.1,0c1.6,0.7,3.4,1.2,5.1,1.5h0.1c-0.2,0.3-0.4,0.7-0.5,1.1C7.8,51.3,4.6,44.7,4.5,33.5z M26,54.2c-1,0-1.8-0.8-1.8-1.8
	s0.8-1.7,1.7-1.8H26c1,0,1.8,0.8,1.8,1.8S27,54.2,26,54.2L26,54.2z M29.5,51.5c-0.1-0.4-0.3-0.8-0.5-1.1c1.6-0.2,3.1-0.6,4.6-1.2
	l0,0l0,0c5.1-2,9.1-5.9,11.3-10.9c0,0,0,0,0-0.1s0,0,0-0.1c0.7-1.6,1.2-3.3,1.5-5.1v-0.1c0.3,0.2,0.7,0.4,1.1,0.5
	C47.4,44.7,44.2,51.3,29.5,51.5L29.5,51.5z M48.4,31.8c-1,0-1.8-0.8-1.8-1.8s0.8-1.8,1.8-1.8s1.8,0.8,1.8,1.8S49.4,31.8,48.4,31.8
	L48.4,31.8L48.4,31.8z"/>
</svg>
