<?xml version="1.0" encoding="utf-8"?>
<!-- Generator: Adobe Illustrator 21.0.0, SVG Export Plug-In . SVG Version: 6.00 Build 0)  -->
<svg version="1.1" id="Слой_1" xmlns="http://www.w3.org/2000/svg" xmlns:xlink="http://www.w3.org/1999/xlink" x="0px" y="0px"
	 viewBox="0 0 60 60" style="enable-background:new 0 0 60 60;" xml:space="preserve">
<style type="text/css">
	.st0{fill:#FFD87A;}
</style>
<path id="Forma_1" class="st0" d="M37.2,5.9h-8.3c-0.8-1-2-1.7-3.3-1.7h-2.1c-0.9-1.6-2.9-2.1-4.4-1.3c-0.5,0.3-1,0.7-1.3,1.3h-2.1
	c-1.3,0-2.5,0.6-3.3,1.7H4.1C1.8,6,0,7.8,0,10.1v41.7C0,54.1,1.8,56,4.1,56h33.1c2.3,0,4.1-1.9,4.1-4.2V10.1
	C41.4,7.8,39.5,6,37.2,5.9z M13.2,8.4c0-1.4,1.1-2.5,2.5-2.5h2.6c0.4,0,0.7-0.2,0.8-0.6c0.3-0.9,1.2-1.3,2.1-1c0.5,0.2,0.9,0.5,1,1
	c0.1,0.3,0.4,0.6,0.8,0.6h2.6c1.4,0,2.5,1.1,2.5,2.5v2.5H13.2V8.4z M39.7,51.8c0,1.4-1.1,2.5-2.5,2.5H4.1c-1.4,0-2.5-1.1-2.5-2.5
	V10.1c0-1.4,1.1-2.5,2.5-2.5h7.5c-0.1,0.3-0.1,0.6-0.1,0.8v3.3c0,0.5,0.4,0.8,0.8,0.8l0,0H29c0.5,0,0.8-0.4,0.8-0.8l0,0V8.4
	c0-0.3,0-0.6-0.1-0.8h7.5c1.4,0,2.5,1.1,2.5,2.5V51.8L39.7,51.8z M37.2,9.3h-5c-0.5,0-0.8,0.4-0.8,0.9c0,0.4,0.4,0.8,0.8,0.8h4.1
	v29.2H28c-1.4,0-2.5,1.1-2.5,2.5v5c0,0.5,0.4,0.8,0.8,0.8c0.5,0,0.8-0.4,0.8-0.8v-5c0-0.5,0.4-0.8,0.8-0.8H35l-9.1,9.2H5v-40h4.1
	c0.5,0,0.8-0.4,0.8-0.9c0-0.4-0.4-0.8-0.8-0.8h-5c-0.5,0-0.8,0.4-0.8,0.8l0,0v41.7c0,0.5,0.4,0.8,0.8,0.8l0,0h22.3h0.1l0,0l0,0
	c0,0,0,0,0.1,0l0,0l0,0l0,0c0,0,0,0,0.1,0l0,0l0,0l0,0l0,0l0,0c0,0,0.1,0,0.1-0.1l11-11l0,0c0,0,0-0.1,0.1-0.1l0,0
	c0,0,0-0.1,0.1-0.1l0,0v-0.1l0,0v-0.1l0,0v-0.1l0,0v-31C38.1,9.7,37.7,9.3,37.2,9.3L37.2,9.3L37.2,9.3z M20.7,5.9
	c-0.2,0-0.4,0.1-0.6,0.2c-0.3,0.3-0.3,0.9,0,1.2c0.1,0.2,0.4,0.3,0.6,0.3s0.4-0.1,0.6-0.2c0.3-0.3,0.3-0.8,0-1.2l0,0
	C21.1,6,20.9,5.9,20.7,5.9z M24,18.5h8.3c0.5,0,0.8-0.4,0.8-0.9c0-0.4-0.4-0.8-0.8-0.8H24c-0.5,0.1-0.8,0.5-0.7,0.9
	C23.3,18.1,23.6,18.4,24,18.5L24,18.5z M17.4,21.8h14.9c0.5,0,0.8-0.4,0.8-0.9c0-0.4-0.4-0.8-0.8-0.8H17.4c-0.5,0.1-0.8,0.5-0.7,0.9
	C16.7,21.4,17,21.7,17.4,21.8L17.4,21.8z M32.3,26.8H9.1c-0.5,0-0.8,0.4-0.8,0.8c0,0.5,0.4,0.8,0.8,0.8h23.2c0.5,0,0.8-0.4,0.8-0.8
	S32.7,26.8,32.3,26.8L32.3,26.8z M32.3,30.1H9.1c-0.5,0-0.8,0.4-0.8,0.8c0,0.5,0.4,0.8,0.8,0.8l0,0h23.2c0.5,0,0.8-0.4,0.8-0.8
	C33.1,30.5,32.7,30.1,32.3,30.1L32.3,30.1z M32.3,33.5H9.1c-0.5,0-0.8,0.4-0.8,0.9c0,0.4,0.4,0.8,0.8,0.8h23.2
	c0.5,0,0.8-0.4,0.8-0.8S32.7,33.5,32.3,33.5L32.3,33.5L32.3,33.5z M33.1,37.6c0-0.5-0.4-0.8-0.8-0.8H9.1c-0.5,0-0.8,0.4-0.8,0.9
	c0,0.4,0.4,0.8,0.8,0.8h23.2C32.7,38.5,33.1,38.1,33.1,37.6L33.1,37.6z M23.2,40.1h-6.6c-0.5,0-0.8,0.4-0.8,0.9
	c0,0.4,0.4,0.8,0.8,0.8h6.6c0.5,0,0.8-0.4,0.8-0.9C23.9,40.5,23.6,40.2,23.2,40.1L23.2,40.1z M23.2,43.5h-6.6
	c-0.5,0-0.8,0.4-0.8,0.8c0,0.5,0.4,0.8,0.8,0.8h6.6c0.5,0,0.8-0.4,0.8-0.9C23.9,43.8,23.6,43.5,23.2,43.5L23.2,43.5z M8.3,17.6
	c0,0.5,0.4,0.8,0.8,0.8l0,0h4.1c0.5,0,0.8-0.4,0.8-0.9c0-0.4-0.4-0.8-0.8-0.8H9.1C8.6,16.8,8.3,17.2,8.3,17.6L8.3,17.6L8.3,17.6z
	 M6.6,43.9c0,2.1,1.7,3.7,3.8,3.7s3.7-1.7,3.7-3.8c0-2-1.7-3.7-3.7-3.7C8.3,40.2,6.6,41.8,6.6,43.9L6.6,43.9z M12.4,43.9
	c0,1.1-0.9,2.1-2.1,2.1s-2.1-0.9-2.1-2.1c0-1.1,0.9-2.1,2.1-2.1S12.4,42.8,12.4,43.9L12.4,43.9z"/>
</svg>
