<?xml version="1.0" encoding="utf-8"?>
<!-- Generator: Adobe Illustrator 21.0.0, SVG Export Plug-In . SVG Version: 6.00 Build 0)  -->
<svg version="1.1" id="Слой_1" xmlns="http://www.w3.org/2000/svg" xmlns:xlink="http://www.w3.org/1999/xlink" x="0px" y="0px"
	 viewBox="0 0 66 70" style="enable-background:new 0 0 66 70;" xml:space="preserve">
<style type="text/css">
	.st0{fill:#E61D25;}
</style>
<path id="Forma_1" class="st0" d="M46.7,22.1c0,6.8-1.2,13.6-3.7,19.9c-0.2,0.5,0,1.1,0.5,1.3c0.5,0.2,1.1,0,1.3-0.5
	c2.7-6.5,4-13.6,3.9-20.6v-1.3c0-0.5-0.4-0.9-0.9-1c-7.1-0.2-14-2.6-19.8-6.7c-0.3-0.3-0.9-0.3-1.2,0c-5.9,4-12.7,6.2-19.8,6.5
	c-0.5,0-0.9,0.4-0.9,0.9c0,0,0,0,0,0.1v1.5c0,24.8,14.6,37,20.9,41c0.2,0.1,0.4,0.2,0.6,0.2c0.2,0,0.4-0.1,0.5-0.2
	c3.3-2.1,6.2-4.6,8.8-7.5c0.4-0.4,0.3-1-0.1-1.3c0,0,0,0,0,0c-0.3-0.4-0.9-0.5-1.3-0.2c-0.1,0.1-0.1,0.1-0.2,0.2
	c-2.3,2.6-4.9,4.9-7.8,6.8C21.2,56.8,8,45,8,22v-0.5c6.9-0.5,13.5-2.7,19.3-6.4c5.7,4,12.4,6.2,19.4,6.6V22.1L46.7,22.1z M52.3,42.9
	c-0.4,0-0.7,0-1.1,0.1c2.4-6.7,3.7-13.8,3.6-20.9c0-2.5-0.3-5-0.8-7.4c-0.1-0.5-0.5-0.8-1-0.8c-10.6,0.6-18.7-2.2-24.9-8.5
	C28,5.1,27.7,5,27.4,5c-0.3,0-0.5,0.1-0.7,0.3c-5.6,5.8-14,8.7-24.9,8.5c-0.5,0-0.9,0.3-1,0.8C0.3,17,0,19.5,0,22
	c0,34.6,26.7,47.8,27,47.9c0.3,0.1,0.5,0.1,0.8,0c4.4-2.3,8.4-5.2,11.8-8.8c2.8,7,10.8,10.4,17.8,7.6c5.1-2.1,8.5-7,8.6-12.5
	c0-7.4-6.1-13.4-13.5-13.3C52.4,42.9,52.4,42.9,52.3,42.9L52.3,42.9z M38.6,56.5c0,0.9,0.1,1.8,0.3,2.7c-3.3,3.5-7.2,6.5-11.5,8.9
	C24,66.1,2,53,2,22.1c0-2.1,0.2-4.2,0.6-6.2c10.7,0,19-2.8,24.8-8.4c6.3,6.1,14.5,8.9,24.8,8.5c0.4,2,0.6,4.1,0.6,6.2
	c0.1,7.3-1.2,14.5-3.9,21.3C42.9,45,38.7,50.3,38.6,56.5L38.6,56.5z M52.3,67.8c-6.4-0.1-11.5-5.3-11.4-11.7
	c0.1-6.4,5.3-11.5,11.7-11.4C59,44.8,64.1,50,64,56.4C63.9,62.8,58.7,67.9,52.3,67.8L52.3,67.8z M58.8,51.4l-9.6,8.6l-3-3.6
	c-0.4-0.4-0.9-0.5-1.4-0.2c-0.4,0.3-0.5,0.9-0.2,1.4l3.6,4.4c0.2,0.2,0.4,0.3,0.7,0.4H49c0.3,0,0.5-0.1,0.7-0.3l10.4-9.3
	c0.4-0.4,0.4-1,0.1-1.4C59.8,51,59.2,51,58.8,51.4C58.8,51.3,58.8,51.3,58.8,51.4L58.8,51.4z"/>
</svg>
