<?xml version="1.0" encoding="utf-8"?>
<!-- Generator: Adobe Illustrator 21.0.0, SVG Export Plug-In . SVG Version: 6.00 Build 0)  -->
<svg version="1.1" id="Слой_1" xmlns="http://www.w3.org/2000/svg" xmlns:xlink="http://www.w3.org/1999/xlink" x="0px" y="0px"
	 viewBox="0 0 60 60" style="enable-background:new 0 0 60 60;" xml:space="preserve">
<style type="text/css">
	.st0{fill:#FFD87A;}
</style>
<path id="Forma_1" class="st0" d="M38.2,16.9c0,5.6-1,11.1-3,16.2c-0.2,0.4,0,0.9,0.4,1c0.4,0.2,0.9,0,1.1-0.4
	c2.2-5.3,3.3-11.1,3.2-16.8v-1c0-0.4-0.3-0.7-0.7-0.8c-5.8-0.2-11.5-2.1-16.2-5.5c-0.3-0.2-0.7-0.2-1,0c-4.8,3.2-10.4,5.1-16.2,5.3
	C5.3,15,5,15.3,5,15.8c0,0,0,0,0,0V17c0,20.2,11.9,30.2,17.1,33.5c0.1,0.1,0.3,0.1,0.5,0.2c0.2,0,0.3-0.1,0.4-0.2
	c2.7-1.7,5.1-3.8,7.2-6.1c0.3-0.4,0.2-0.9-0.2-1.2c-0.3-0.3-0.8-0.2-1.1,0.1c-1.9,2.1-4,4-6.4,5.6c-5.2-3.5-16-13.1-16-31.9v-0.4
	c5.6-0.4,11-2.2,15.8-5.2c4.7,3.2,10.2,5.1,15.9,5.4L38.2,16.9L38.2,16.9z M42.8,33.9c-0.3,0-0.6,0-0.9,0.1c2-5.5,3-11.2,2.9-17.1
	c0-2-0.2-4-0.7-6c-0.1-0.4-0.4-0.6-0.8-0.6C34.7,10.7,28.1,8.5,23,3.3C22.9,3.1,22.7,3,22.4,3c-0.2,0-0.4,0.1-0.6,0.2
	C17.3,8,10.4,10.3,1.5,10.2c-0.4,0-0.7,0.3-0.8,0.6c-0.4,2-0.6,4-0.7,6c0,28.2,21.8,39,22.1,39.1c0.1,0.1,0.2,0.1,0.3,0.1
	c0.1,0,0.2,0,0.3-0.1c3.6-1.8,6.8-4.3,9.7-7.2c2.3,5.7,8.9,8.5,14.6,6.2c4.2-1.7,6.9-5.7,7-10.2c0-6-5-10.9-11-10.9
	C42.9,33.9,42.9,33.9,42.8,33.9L42.8,33.9z M31.6,45c0,0.7,0.1,1.5,0.3,2.2c-2.7,2.9-5.9,5.3-9.4,7.2C19.6,52.9,1.6,42.2,1.6,16.9
	c0-1.7,0.2-3.4,0.5-5.1c8.8,0,15.6-2.3,20.3-6.8c5.2,5,11.9,7.2,20.3,6.9c0.3,1.7,0.5,3.4,0.5,5.1c0.1,5.9-1,11.8-3.2,17.4
	C35.1,35.6,31.7,39.9,31.6,45z M42.8,54.2c-5.2-0.1-9.3-4.4-9.2-9.6c0.1-5.2,4.4-9.3,9.6-9.2c5.2,0.1,9.3,4.3,9.2,9.5
	C52.3,50.1,48,54.3,42.8,54.2L42.8,54.2z M48.1,40.8l-7.8,7l-2.5-3c-0.3-0.3-0.8-0.4-1.2-0.2c-0.3,0.3-0.4,0.8-0.2,1.1l2.9,3.6
	c0.2,0.2,0.4,0.3,0.6,0.3h0.1c0.2,0,0.4-0.1,0.6-0.2l8.5-7.6c0.3-0.3,0.3-0.8,0.1-1.1C49,40.5,48.5,40.5,48.1,40.8
	C48.1,40.8,48.1,40.8,48.1,40.8L48.1,40.8z"/>
</svg>
