<?xml version="1.0" encoding="utf-8"?>
<!-- Generator: Adobe Illustrator 22.1.0, SVG Export Plug-In . SVG Version: 6.00 Build 0)  -->
<svg version="1.1" id="Layer_1" xmlns="http://www.w3.org/2000/svg" xmlns:xlink="http://www.w3.org/1999/xlink" x="0px" y="0px"
	 width="50px" height="50px" viewBox="0 0 50 50" style="enable-background:new 0 0 50 50;" xml:space="preserve">
<g id="XMLID_496_">
	<path id="XMLID_497_" style="fill:#FFFFFF;" d="M0.9,24.1l11.5,4.3l4.5,14.3c0.3,0.9,1.4,1.3,2.2,0.6l6.4-5.2
		c0.7-0.5,1.6-0.6,2.3-0.1l11.6,8.4c0.8,0.6,1.9,0.1,2.1-0.8L50,4.9c0.2-1.1-0.8-1.9-1.8-1.5L0.9,21.6C-0.3,22-0.3,23.7,0.9,24.1z
		 M16.1,26.1l22.5-13.9c0.4-0.2,0.8,0.3,0.5,0.6L20.6,30.1c-0.7,0.6-1.1,1.4-1.2,2.3l-0.6,4.7c-0.1,0.6-1,0.7-1.1,0.1l-2.4-8.6
		C14.9,27.7,15.3,26.7,16.1,26.1z"/>
</g>
</svg>
