<?xml version="1.0" encoding="utf-8"?>
<!-- Generator: Adobe Illustrator 21.0.0, SVG Export Plug-In . SVG Version: 6.00 Build 0)  -->
<svg version="1.1" id="Слой_1" xmlns="http://www.w3.org/2000/svg" xmlns:xlink="http://www.w3.org/1999/xlink" x="0px" y="0px"
	 viewBox="0 0 60 60" style="enable-background:new 0 0 60 60;" xml:space="preserve">
<style type="text/css">
	.st0{fill:#FFD87A;}
</style>
<path class="st0" d="M24,28.5c-0.4-0.4-1-0.4-1.4,0c0,0,0,0,0,0l-1.9,1.9c-0.5-0.2-1.1-0.2-1.6,0l-3.8-3.9c-0.4-0.4-1-0.4-1.4,0
	c0,0,0,0,0,0c-0.4,0.4-0.4,1,0,1.4l3.8,3.9c-0.1,0.3-0.2,0.6-0.2,0.8c0,1.3,1,2.4,2.3,2.4c1.3,0,2.4-1,2.4-2.3c0,0,0-0.1,0-0.1
	c0-0.3,0-0.6-0.2-0.8L24,30C24.4,29.6,24.4,28.9,24,28.5z M20,33.3c-0.3,0-0.6-0.3-0.6-0.6c0-0.3,0.3-0.6,0.6-0.6
	c0.3,0,0.6,0.3,0.6,0.6c0,0,0,0,0,0C20.6,33.1,20.3,33.3,20,33.3z M31.7,17.3l1.1-1.7l4.5,3.2c0.4,0.3,1,0.2,1.4-0.2c0,0,0,0,0,0
	c2.3-3.3,1.5-7.9-1.8-10.3c-3.2-2.3-7.6-1.6-9.9,1.6c0,0.1-0.1,0.1-0.1,0.2c-0.3,0.5-0.2,1.1,0.3,1.4l4,2.9L30,16.1
	c-6.1-4-14-4-20.1,0l-1.1-1.7l4-2.9c0.5-0.3,0.6-1,0.3-1.4c-2.2-3.2-6.6-4.1-9.8-2C3.2,8.2,3.1,8.3,3,8.3c-3.3,2.4-4,6.9-1.8,10.3
	c0.3,0.4,0.9,0.6,1.3,0.3c0,0,0,0,0,0l4.5-3.2l1.1,1.7c-8.5,6.9-9.8,19.5-2.9,28c1.2,1.5,2.6,2.7,4.1,3.8l-1.6,2.3
	c-0.3,0.5-0.2,1.1,0.3,1.4C8.3,52.9,8.5,53,8.7,53c0.3,0,0.6-0.2,0.8-0.4l1.7-2.4c5.5,2.9,12.1,2.9,17.6,0l1.7,2.4
	c0.2,0.3,0.5,0.4,0.8,0.4c0.2,0,0.4-0.1,0.6-0.2c0.5-0.3,0.6-1,0.3-1.4l-1.6-2.3c9-6.3,11.3-18.7,5-27.7
	C34.4,19.8,33.1,18.5,31.7,17.3z M29.2,10.5c1.8-1.8,4.6-2,6.6-0.5c2,1.5,2.8,4.2,1.8,6.6L29.2,10.5z M2.4,16.6
	c-1-2.3-0.3-5.1,1.8-6.6c0.9-0.6,1.9-1,3-1c1.4,0,2.7,0.5,3.6,1.5L2.4,16.6z M20,50.3c-9.7,0.3-17.8-7.4-18.1-17.1S9.3,15.5,19,15.2
	c9.7-0.3,17.8,7.4,18.1,17.1c0,0.2,0,0.3,0,0.5C37.2,42.3,29.5,50.2,20,50.3z M20,18.3c-8-0.2-14.6,6-14.8,14s6,14.6,14,14.8
	c8,0.2,14.6-6,14.8-14c0-0.1,0-0.3,0-0.4C34.1,24.9,27.8,18.5,20,18.3L20,18.3z M29.3,40.9l-0.7-0.7c-0.4-0.4-1-0.4-1.4,0
	c0,0,0,0,0,0c-0.4,0.4-0.4,1,0,1.4l0.7,0.7c-1.9,1.7-4.4,2.7-6.9,3v-1c0-0.5-0.4-1-1-1s-1,0.4-1,1c0,0,0,0,0,0v1
	c-2.6-0.2-5-1.3-6.9-3l0.7-0.7c0.4-0.4,0.4-1,0-1.4c-0.4-0.4-1-0.4-1.4,0c0,0,0,0,0,0l-0.7,0.7c-1.7-2-2.7-4.5-2.9-7.1h0.9
	c0.6,0,1-0.5,1-1.1c0-0.5-0.4-1-1-1H7.8c0.2-2.6,1.2-5.1,2.9-7.1l0.7,0.7c0.2,0.2,0.4,0.3,0.7,0.3c0.3,0,0.5-0.1,0.7-0.3
	c0.4-0.4,0.4-1,0-1.4l-0.7-0.7c1.9-1.7,4.4-2.7,6.9-3v1c0,0.5,0.4,1,1,1s1-0.4,1-1c0,0,0,0,0,0v-1c2.6,0.2,5,1.3,6.9,3l-0.7,0.7
	c-0.4,0.4-0.4,1,0,1.4c0.4,0.4,1,0.4,1.4,0c0,0,0,0,0,0l0.7-0.7c1.7,2,2.7,4.5,2.9,7.1h-0.9c-0.6,0-1,0.5-1,1.1c0,0.5,0.4,1,1,1h0.9
	C32,36.4,31,38.9,29.3,40.9L29.3,40.9z"/>
</svg>
