<?xml version="1.0" encoding="utf-8"?>
<!-- Generator: Adobe Illustrator 21.0.0, SVG Export Plug-In . SVG Version: 6.00 Build 0)  -->
<svg version="1.1" id="Слой_1" xmlns="http://www.w3.org/2000/svg" xmlns:xlink="http://www.w3.org/1999/xlink" x="0px" y="0px"
	 viewBox="0 0 60 60" style="enable-background:new 0 0 60 60;" xml:space="preserve">
<style type="text/css">
	.st0{fill:#FFD87A;}
</style>
<path id="Forma_1" class="st0" d="M25.4,36.3c0.9-0.1,1.7-0.5,2.2-1.2l8-11c0.3-0.4,0.2-0.9-0.2-1.2c-0.3-0.2-0.7-0.2-1,0l-11,8
	c-1.4,1-1.7,2.9-0.7,4.2c0.6,0.8,1.5,1.2,2.4,1.2C25.2,36.3,25.3,36.3,25.4,36.3z M23.8,33.2c0-0.4,0.2-0.7,0.5-1l6.7-4.9l-4.9,6.7
	c-0.2,0.3-0.6,0.5-1,0.5c-0.4,0-0.8-0.1-1.1-0.4C23.9,33.9,23.8,33.6,23.8,33.2z M44.4,20.6C44.4,20.6,44.4,20.6,44.4,20.6
	C44.4,20.6,44.4,20.5,44.4,20.6c-0.9-1.6-1.9-2.9-3.1-4.2l1.8-1.8l1.2,1.2l3.6-3.6l-3.6-3.6l-3.6,3.6l1.2,1.2l-1.8,1.8
	c-1.2-1.2-2.6-2.2-4.1-3c0,0,0,0-0.1,0c0,0,0,0-0.1,0c-2.7-1.5-5.7-2.5-8.7-2.9v-1h1.3c1.2,0,2.1-1,2.1-2.1S29.7,4,28.5,4h-7.7
	c-1.2,0-2.1,1-2.1,2.1s1,2.1,2.1,2.1h1.3v1c-0.9,0.1-1.8,0.2-2.7,0.5c-0.5,0.1-0.7,0.6-0.6,1c0.1,0.5,0.6,0.7,1,0.6c0,0,0,0,0,0
	c0.8-0.2,1.6-0.3,2.4-0.4l0.9-0.1c0.3,0,0.5,0,0.8,0v1.7c0,0.5,0.4,0.8,0.9,0.8c0.5,0,0.8-0.4,0.8-0.8v-1.7c3.1,0.1,6.1,1,8.9,2.4
	l-0.8,1.5c-0.2,0.4-0.1,0.9,0.3,1.2c0.1,0.1,0.3,0.1,0.4,0.1c0.3,0,0.6-0.2,0.7-0.4l0.8-1.4c2.7,1.7,4.9,3.9,6.6,6.6l-1.4,0.8
	c-0.4,0.2-0.6,0.7-0.3,1.2c0.2,0.4,0.7,0.6,1.2,0.3c0,0,0,0,0,0l1.4-0.8c1.5,2.8,2.3,5.9,2.4,9h-1.7c-0.5,0-0.8,0.4-0.8,0.9
	c0,0.5,0.4,0.8,0.8,0.8h1.7c-0.1,3.2-1,6.2-2.4,9l-1.4-0.8c-0.4-0.2-0.9-0.1-1.2,0.3c-0.2,0.4-0.1,0.9,0.3,1.1l1.4,0.8
	c-1.7,2.7-3.9,4.9-6.6,6.6l-0.8-1.4c-0.2-0.4-0.8-0.5-1.2-0.3c-0.4,0.2-0.5,0.8-0.3,1.2l0.8,1.5c-2.7,1.5-5.8,2.3-8.9,2.4v-1.7
	c0-0.5-0.4-0.9-0.9-0.8c-0.5,0-0.8,0.4-0.8,0.8v1.7c-1.4,0-2.7-0.2-4.1-0.5c-0.5-0.1-0.9,0.2-1,0.6c-0.1,0.5,0.2,0.9,0.6,1
	c0,0,0,0,0,0c1.7,0.4,3.4,0.6,5.2,0.6c0.1,0,0.1,0,0.1,0h0c0,0,0,0,0,0c3.9,0,7.8-1.1,11.3-3c0,0,0.1,0,0.1,0c0,0,0,0,0.1,0
	c3.4-2,6.3-4.9,8.3-8.3c0,0,0,0,0.1-0.1c0,0,0,0,0-0.1C48.5,36.4,48.6,27.7,44.4,20.6z M44.4,11l1.2,1.2l-1.2,1.2l-1.2-1.2L44.4,11z
	 M23.8,9.1V6.5h-3c-0.2,0-0.4-0.2-0.4-0.4c0-0.2,0.2-0.4,0.4-0.4h7.7c0.2,0,0.4,0.2,0.4,0.4c0,0.2-0.2,0.4-0.4,0.4c0,0,0,0,0,0h-3
	v2.6c-0.3,0-0.6,0-0.8,0h-0.1h-0.1c-0.1,0-0.3,0-0.4,0C24,9.1,23.9,9.1,23.8,9.1z M17,15.9h-4.3c-0.5,0-0.8,0.4-0.8,0.9
	c0,0.5,0.4,0.8,0.8,0.8H17c0.5,0.1,0.9-0.2,1-0.7s-0.2-0.9-0.7-1C17.2,15.9,17.1,15.9,17,15.9L17,15.9z M17,21.8H8.5
	c-0.5,0-0.8,0.4-0.8,0.8c0,0.5,0.4,0.9,0.8,0.9H17c0.5,0.1,0.9-0.2,1-0.7c0.1-0.5-0.2-0.9-0.7-1C17.2,21.8,17.1,21.8,17,21.8
	L17,21.8z M17,27.8H4.2c-0.5,0-0.8,0.4-0.8,0.9c0,0.5,0.4,0.8,0.8,0.8H17c0.5,0.1,0.9-0.3,0.9-0.8s-0.3-0.9-0.7-0.9
	C17.1,27.8,17.1,27.8,17,27.8L17,27.8z M17,33.7H0.8c-0.5,0-0.8,0.4-0.8,0.8c0,0.5,0.4,0.9,0.8,0.9H17c0.5,0,0.8-0.4,0.9-0.8
	C17.9,34.1,17.5,33.7,17,33.7L17,33.7z M17,39.7H5.9c-0.5,0-0.8,0.4-0.8,0.9c0,0.5,0.4,0.8,0.8,0.8H17c0.5-0.1,0.8-0.5,0.7-1
	C17.6,40.1,17.4,39.8,17,39.7L17,39.7z M17,45.6h-5.9c-0.5,0-0.8,0.4-0.8,0.8c0,0.5,0.4,0.9,0.8,0.9H17c0.5,0.1,0.9-0.3,0.9-0.8
	s-0.3-0.9-0.7-0.9C17.1,45.6,17.1,45.6,17,45.6L17,45.6z"/>
</svg>
