<?xml version="1.0" encoding="utf-8"?>
<!-- Generator: Adobe Illustrator 21.0.0, SVG Export Plug-In . SVG Version: 6.00 Build 0)  -->
<svg version="1.1" id="Слой_1" xmlns="http://www.w3.org/2000/svg" xmlns:xlink="http://www.w3.org/1999/xlink" x="0px" y="0px"
	 viewBox="0 0 60 60" style="enable-background:new 0 0 60 60;" xml:space="preserve">
<style type="text/css">
	.st0{fill:#FFD87A;}
</style>
<path class="st0" d="M36.3,34.6c-1.5,0-2.7,1.2-2.7,2.6c0,1.5,1.2,2.7,2.6,2.7c1.5,0,2.7-1.2,2.7-2.6c0,0,0,0,0,0
	C38.9,35.8,37.8,34.6,36.3,34.6z M36.3,38.1c-0.5,0-0.9-0.4-0.9-0.9c0-0.5,0.4-0.9,0.9-0.9c0.5,0,0.9,0.4,0.9,0.9c0,0,0,0,0,0
	C37.2,37.7,36.8,38.1,36.3,38.1L36.3,38.1z M42.2,34.6c-1.5,0-2.7,1.2-2.7,2.6c0,1.5,1.2,2.7,2.6,2.7c1.5,0,2.7-1.2,2.7-2.6
	c0,0,0,0,0,0C44.8,35.8,43.7,34.6,42.2,34.6L42.2,34.6z M42.2,38.1c-0.5,0-0.9-0.4-0.9-0.9c0-0.5,0.4-0.9,0.9-0.9
	c0.5,0,0.9,0.4,0.9,0.9c0,0,0,0,0,0C43.1,37.7,42.7,38.1,42.2,38.1L42.2,38.1z M48.1,34.6c-1.5,0-2.7,1.2-2.7,2.6
	c0,1.5,1.2,2.7,2.6,2.7c1.5,0,2.7-1.2,2.7-2.6c0,0,0,0,0,0C50.8,35.8,49.6,34.6,48.1,34.6L48.1,34.6z M48.1,38.1
	c-0.5,0-0.9-0.4-0.9-0.9c0-0.5,0.4-0.9,0.9-0.9c0.5,0,0.9,0.4,0.9,0.9c0,0,0,0,0,0C49,37.7,48.6,38.1,48.1,38.1L48.1,38.1z
	 M8.2,41.9c-0.2-0.2-0.4-0.3-0.6-0.3c-0.5,0-0.9,0.4-0.9,0.9c0,0.5,0.4,0.9,0.9,0.9c0.2,0,0.5-0.1,0.6-0.3
	C8.5,42.8,8.5,42.3,8.2,41.9L8.2,41.9z M13.8,41.9c-0.3-0.3-0.9-0.3-1.2,0c0,0,0,0,0,0c-0.3,0.3-0.3,0.9,0,1.2c0,0,0,0,0,0
	c0.3,0.3,0.9,0.3,1.2,0c0,0,0,0,0,0C14.1,42.8,14.1,42.3,13.8,41.9C13.8,41.9,13.8,41.9,13.8,41.9L13.8,41.9z M19.3,41.9
	c-0.2-0.2-0.4-0.3-0.6-0.3c-0.2,0-0.5,0.1-0.6,0.3c-0.3,0.3-0.3,0.9,0,1.2c0.2,0.2,0.4,0.3,0.6,0.3c0.5,0,0.9-0.4,0.9-0.9
	C19.6,42.3,19.5,42.1,19.3,41.9L19.3,41.9z M24.9,41.9c-0.2-0.2-0.4-0.3-0.6-0.3c-0.5,0-0.9,0.4-0.9,0.9c0,0.5,0.4,0.9,0.9,0.9
	c0.2,0,0.5-0.1,0.6-0.3C25.3,42.8,25.3,42.3,24.9,41.9L24.9,41.9z M30.5,41.9c-0.3-0.3-0.9-0.3-1.2,0c0,0,0,0,0,0
	c-0.3,0.3-0.3,0.9,0,1.2c0,0,0,0,0,0c0.2,0.2,0.4,0.3,0.6,0.3c0.5,0,0.9-0.4,0.9-0.9C30.8,42.3,30.7,42.1,30.5,41.9L30.5,41.9z
	 M36.1,41.9c-0.2-0.2-0.4-0.3-0.6-0.3c-0.2,0-0.5,0.1-0.6,0.3c-0.3,0.3-0.3,0.9,0,1.2c0.2,0.2,0.4,0.3,0.6,0.3
	c0.5,0,0.9-0.4,0.9-0.9C36.3,42.3,36.3,42.1,36.1,41.9L36.1,41.9z M41.7,41.9c-0.2-0.2-0.4-0.3-0.6-0.3c-0.5,0-0.9,0.4-0.9,0.9
	c0,0.5,0.4,0.9,0.9,0.9c0.2,0,0.5-0.1,0.6-0.3C42,42.8,42,42.3,41.7,41.9C41.7,41.9,41.7,41.9,41.7,41.9L41.7,41.9z M47.3,41.9
	c-0.2-0.2-0.4-0.3-0.6-0.3c-0.2,0-0.5,0.1-0.6,0.3c-0.3,0.3-0.3,0.9,0,1.2c0,0,0,0,0,0c0.2,0.2,0.4,0.3,0.6,0.3
	c0.5,0,0.9-0.4,0.9-0.9C47.5,42.3,47.4,42.1,47.3,41.9L47.3,41.9z M47,53c-0.3-0.4-0.9-0.4-1.2-0.1c0,0,0,0,0,0
	c-2.3,2-5.8,1.8-7.8-0.5c0,0-0.1-0.1-0.1-0.1c-0.2-0.2-0.4-0.3-0.7-0.3c-0.3,0-0.5,0.1-0.7,0.3c-2,2.3-5.5,2.7-7.8,0.7
	c-0.1-0.1-0.1-0.1-0.2-0.2c-0.4-0.3-0.9-0.3-1.2,0.1c0,0,0,0,0,0c-0.3,0.4-0.3,0.9,0.1,1.2c5-1.2,10.2-0.5,14.8,1.9
	c1.8,0,3.5-0.6,4.8-1.8C47.2,53.9,47.3,53.3,47,53L47,53z M18.1,52.1c-0.4-0.3-0.9-0.3-1.2,0.1c0,0,0,0,0,0c-2,2.3-5.4,2.7-7.8,0.7
	c-0.3-0.2-0.5-0.4-0.7-0.7c-0.3-0.4-0.9-0.4-1.2-0.1c0,0,0,0,0,0C6.7,52.5,6.7,53,7,53.4c2.6,3.1,7.2,3.5,10.3,0.9
	c0.3-0.3,0.6-0.6,0.9-0.9C18.5,53,18.4,52.5,18.1,52.1L18.1,52.1z M56.8,32.3c-0.2-0.4-0.6-0.6-1.1-0.6h-0.8v-3.6
	c0-0.8-0.6-1.5-1.4-1.5h-2.2v-4.2c0-0.8-0.6-1.5-1.4-1.5H30.9v-3.4c0-0.8-0.7-1.5-1.5-1.5h-0.2l-1.1-1.9c1.1-0.8,1.3-2.3,0.6-3.4
	c-0.3-0.4-0.6-0.7-1.1-0.8V7.6l0.6-0.1c0.6-0.1,1-0.6,1-1.1V5.8c0-0.6-0.5-1.1-1.1-1.1H15.6C15.3,4.3,14.9,4,14.3,4h-6
	C7.6,4,6.9,4.7,6.9,5.5c0,0,0,0,0,0v3.9c0,0.8,0.7,1.5,1.5,1.5c0,0,0,0,0,0h0.7v19.3H8c-0.8,0-1.5,0.7-1.4,1.5v0.6h-2
	c-0.8,0-1.5,0.7-1.4,1.5V37H1.3C0.6,37,0,37.5,0,38.2c0,0.2,0,0.3,0.1,0.5l3.5,10.1c-0.3,0-0.6,0.1-0.8,0.1c-0.5,0-0.9,0.4-0.8,0.9
	c0,0.5,0.4,0.8,0.8,0.8c2.8-2.6,7.1-2.6,9.8,0c2.8-2.6,7.1-2.6,9.8,0c2.8-2.6,7.1-2.6,9.8,0c2.8-2.6,7.1-2.6,9.8,0
	c2.8-2.6,7.1-2.6,9.8,0c0.5,0,0.9-0.4,0.8-0.9c0-0.5-0.4-0.8-0.8-0.8c-0.7,0-1.3-0.1-1.9-0.4l3-6.6c0.2-0.4,0-1-0.4-1.2
	c-0.4-0.2-1,0-1.2,0.4c0,0,0,0,0,0l-1.3,2.9H15.5c-0.5,0-0.9,0.4-0.8,0.9c0,0.5,0.4,0.8,0.8,0.8h33.8l-0.8,1.8
	c-0.3-0.2-0.6-0.5-0.8-0.8c-0.3-0.4-0.9-0.4-1.2-0.1c0,0-0.1,0.1-0.1,0.1c-2,2.3-5.4,2.7-7.8,0.7c-0.3-0.2-0.5-0.4-0.7-0.7
	c-0.2-0.2-0.4-0.3-0.7-0.3c-0.3,0-0.5,0.1-0.7,0.3c-2,2.3-5.5,2.7-7.8,0.7c-0.3-0.2-0.5-0.4-0.7-0.7c-0.2-0.2-0.4-0.3-0.7-0.3
	c-0.3,0-0.5,0.1-0.7,0.3c-2,2.3-5.4,2.7-7.8,0.7c-0.3-0.2-0.5-0.4-0.7-0.7c-0.2-0.2-0.4-0.3-0.7-0.3c-0.3,0-0.5,0.1-0.7,0.3
	c-2,2.3-5.5,2.7-7.8,0.7c-0.3-0.2-0.5-0.4-0.7-0.7c-0.2-0.2-0.4-0.3-0.7-0.3c-0.3,0-0.5,0.1-0.7,0.3c-0.5,0.6-1.1,1.1-1.8,1.4
	l-0.8-2.4h6.9c0.5,0,0.9-0.4,0.9-0.8c0-0.5-0.4-0.9-0.8-0.9c0,0,0,0-0.1,0H3.8l-1.8-5.3h28c0.7,0,1.3-0.4,1.6-1l1.9-4.2
	c0,0,0,0,0.1,0H55l-2,4.3c-0.2,0.4,0,1,0.4,1.2c0.4,0.2,1,0,1.2-0.4c0,0,0,0,0,0l2.3-5C57.1,33.1,57,32.7,56.8,32.3L56.8,32.3z
	 M6.6,37H4.9v-3.1h1.7V37z M40.7,22.7h8.8v3.9h-8.8V22.7z M29.2,17.8v4.6h-4.9v-4.6H29.2z M26.3,16l0.4-0.8l0.5,0.8H26.3L26.3,16z
	 M26.7,11.5c0.4,0,0.6,0.3,0.6,0.7c0,0.3-0.3,0.6-0.6,0.6c-0.4,0-0.7-0.3-0.7-0.7C26.1,11.8,26.4,11.5,26.7,11.5
	C26.7,11.5,26.7,11.5,26.7,11.5L26.7,11.5z M15.8,6.5h7.7l-7.7,1.2V6.5z M8.7,9.1V5.8h5.4v3.3H8.7z M10.8,19.6v-0.9h1.1v0.9
	L10.8,19.6L10.8,19.6z M11.9,21.4v0.8h-1.1v-0.8H11.9z M10.8,16.9V16h1.1v0.9L10.8,16.9L10.8,16.9z M10.8,14.2v-0.9h1.1v0.9H10.8z
	 M10.8,11.6v-0.7h1.1v0.7H10.8z M14.4,37H8.3v-5.1h6.1V37z M18,37h-1.8v-3.1H18V37z M18,28.1v4.1h-1.9v-0.6c0-0.8-0.7-1.5-1.5-1.5
	c0,0,0,0,0,0h-1.1v-1.1c0-0.5-0.4-0.9-0.9-0.9s-0.9,0.4-0.9,0.9v1.1h-1.1V24h1.1v1.6c0,0.5,0.4,0.9,0.9,0.9s0.9-0.4,0.9-0.9V10.8
	h0.7c0.8,0,1.4-0.6,1.5-1.4l10.1-1.5v2c-1.2,0.5-1.8,1.9-1.3,3.1c0.2,0.4,0.5,0.8,0.8,1.1L24.3,16H24c-0.8,0-1.5,0.7-1.5,1.5v5
	c0,0.8,0.7,1.5,1.5,1.5h1.3v2.5h-5.8C18.7,26.6,18,27.3,18,28.1L18,28.1z M31.7,32.3h-2.5c-0.5,0-0.9,0.4-0.8,0.9
	c0,0.5,0.4,0.8,0.8,0.8h2.1L30,37c0,0,0,0-0.1,0H19.7v-2.9h5.9c0.5,0,0.9-0.4,0.8-0.9c0-0.5-0.4-0.8-0.8-0.8h-5.8v-3.9h11.9V32.3
	L31.7,32.3L31.7,32.3z M27,26.6v-2.5h2.4c0.8,0,1.4-0.6,1.5-1.4H39v3.9H27L27,26.6z M45.4,31.8H33.5h0v-3.4h11.9L45.4,31.8
	L45.4,31.8L45.4,31.8z M53.2,31.8h-6v-3.4h6V31.8z"/>
</svg>
