<?xml version="1.0" encoding="utf-8"?>
<!-- Generator: Adobe Illustrator 21.0.0, SVG Export Plug-In . SVG Version: 6.00 Build 0)  -->
<svg version="1.1" id="Слой_1" xmlns="http://www.w3.org/2000/svg" xmlns:xlink="http://www.w3.org/1999/xlink" x="0px" y="0px"
	 viewBox="0 0 60 60" style="enable-background:new 0 0 60 60;" xml:space="preserve">
<style type="text/css">
	.st0{fill:#E61D25;}
</style>
<path class="st0" d="M52.9,15.9H36.2V3.1c0-0.6-0.5-1.1-1.1-1.1c0,0,0,0,0,0h-27C7.5,2,7,2.5,7,3.1c0,0,0,0,0,0v53.8
	C7,57.5,7.5,58,8.1,58c0,0,0,0,0,0h44.8c0.6,0,1.1-0.5,1.1-1.1c0,0,0,0,0,0V17C54,16.4,53.5,15.9,52.9,15.9z M23.9,55.8v-3.1
	l1.9,1.7c0.4,0.4,1.1,0.4,1.5,0l1.9-1.7v3.1H23.9L23.9,55.8z M33.9,55.8h-2.5v-5.6c0-0.6-0.5-1.1-1.1-1.1c-0.3,0-0.5,0.1-0.8,0.3
	l-3,2.8l-3-2.8c-0.5-0.4-1.2-0.4-1.6,0.1c-0.2,0.2-0.3,0.5-0.3,0.8v5.6H9.2V31.1h12.5v5.7c0,0.6,0.5,1.1,1.1,1.1
	c0.3,0,0.5-0.1,0.8-0.3l3-2.8l3,2.8c0.2,0.2,0.5,0.3,0.8,0.3c0.2,0,0.3,0,0.4-0.1c0.4-0.2,0.7-0.6,0.7-1v-5.7h2.5L33.9,55.8
	L33.9,55.8L33.9,55.8z M23.9,31.1h5.3v3.1l-1.9-1.8c-0.4-0.4-1.1-0.4-1.5,0l-1.9,1.8L23.9,31.1L23.9,31.1z M33.9,28.9H9.2V4.2h24.7
	L33.9,28.9L33.9,28.9z M51.8,55.8H36.2V18.1h15.6L51.8,55.8L51.8,55.8z M30.5,17.6H18.1c-0.6,0-1.1,0.5-1.1,1.1v6.7
	c0,0.6,0.5,1.1,1.1,1.1c0,0,0,0,0,0h12.4c0.6,0,1.1-0.5,1.1-1.1c0,0,0,0,0,0v-6.7C31.6,18.1,31.1,17.6,30.5,17.6z M29.4,24.3H19.2
	v-4.5h10.2V24.3z M19.6,39.3l-3.1-3.1c-0.4-0.4-1.1-0.4-1.6,0c0,0,0,0,0,0l-3.1,3.1c-0.4,0.4-0.4,1.1,0,1.6c0,0,0,0,0,0
	c0.4,0.4,1.1,0.4,1.6,0l1.2-1.2v9.8c0,0.6,0.5,1.1,1.1,1.1c0.6,0,1.1-0.5,1.1-1.1v-9.8l1.2,1.2c0.4,0.4,1.2,0.4,1.6,0
	C20,40.4,20,39.7,19.6,39.3L19.6,39.3z M27.5,13.3h-9.4c-0.6,0-1.1,0.5-1.1,1.1c0,0.6,0.5,1.1,1.1,1.1c0,0,0,0,0,0h9.4
	c0.6,0,1.1-0.5,1.1-1.1C28.7,13.8,28.2,13.3,27.5,13.3C27.5,13.3,27.5,13.3,27.5,13.3L27.5,13.3z M23,10h-4.8
	c-0.6,0-1.1,0.5-1.1,1.1c0,0.6,0.5,1.1,1.1,1.1H23c0.6,0,1.1-0.5,1.1-1.1C24.1,10.5,23.6,10,23,10L23,10z M48.2,37.9h-8.4
	c-0.6,0-1.1,0.5-1.1,1.1c0,0,0,0,0,0v13c0,0.6,0.5,1.1,1.1,1.1h8.4c0.6,0,1.1-0.5,1.1-1.1V39C49.3,38.4,48.8,37.9,48.2,37.9
	C48.2,37.9,48.2,37.9,48.2,37.9L48.2,37.9z M47.1,50.9h-6.2V40.1h6.2V50.9z M48.2,33.4h-8.4c-0.6,0-1.1,0.5-1.1,1.1
	c0,0.6,0.5,1.1,1.1,1.1c0,0,0,0,0,0h8.4c0.6,0,1.1-0.5,1.1-1.1C49.3,34,48.8,33.4,48.2,33.4C48.2,33.4,48.2,33.4,48.2,33.4
	L48.2,33.4z M45.5,30.1h-0.2c-0.6,0-1.1,0.5-1.1,1.1c0,0.6,0.5,1.1,1.1,1.1c0,0,0,0,0,0h0.2c0.6,0,1.1-0.5,1.1-1.1
	S46.1,30.1,45.5,30.1C45.5,30.1,45.5,30.1,45.5,30.1L45.5,30.1z M41.9,30.1h-2.2c-0.6,0-1.1,0.5-1.1,1.1c0,0.6,0.5,1.1,1.1,1.1
	c0,0,0,0,0,0h2.2c0.6,0,1.1-0.5,1.1-1.1S42.6,30.1,41.9,30.1C41.9,30.1,41.9,30.1,41.9,30.1L41.9,30.1z"/>
</svg>
