<?xml version="1.0" encoding="utf-8"?>
<!-- Generator: Adobe Illustrator 21.0.0, SVG Export Plug-In . SVG Version: 6.00 Build 0)  -->
<svg version="1.1" id="Слой_1" xmlns="http://www.w3.org/2000/svg" xmlns:xlink="http://www.w3.org/1999/xlink" x="0px" y="0px"
	 viewBox="0 0 60 60" style="enable-background:new 0 0 60 60;" xml:space="preserve">
<style type="text/css">
	.st0{fill:#FFD87A;}
</style>
<path id="Forma_1" class="st0" d="M18.3,32.8c0,1.9,1.6,3.5,3.5,3.5c0.6,0,1.8,0,5.4-7.2c0.2-0.5,0.1-1-0.2-1.4
	c-0.4-0.4-0.9-0.4-1.4-0.2C18.3,31,18.3,32.2,18.3,32.8z M21.7,34.6c-0.9,0-1.7-0.8-1.7-1.7c0.2-0.4,1.5-1.4,4.9-3.1
	C23.1,33.1,22.1,34.3,21.7,34.6L21.7,34.6z M19.1,26.5H20c0.5,0,0.9-0.4,0.9-0.8s-0.4-0.9-0.8-0.9c0,0,0,0-0.1,0h-0.9
	c-0.5,0-0.9,0.3-0.9,0.8S18.6,26.5,19.1,26.5C19.1,26.5,19.1,26.5,19.1,26.5L19.1,26.5z M20,41.1h-0.9c-0.5,0-0.9,0.4-0.9,0.9
	c0,0.5,0.4,0.9,0.9,0.9c0,0,0,0,0,0H20c0.5,0,0.9-0.4,0.9-0.9C20.9,41.5,20.5,41.1,20,41.1L20,41.1z M12.2,32.5h-0.9
	c-0.5,0-0.9,0.4-0.9,0.8s0.4,0.9,0.8,0.9c0,0,0,0,0.1,0h0.9c0.5,0,0.9-0.3,0.9-0.8s-0.3-0.9-0.8-0.9C12.2,32.5,12.2,32.5,12.2,32.5
	L12.2,32.5z M27,33.4c0,0.5,0.4,0.9,0.9,0.9c0,0,0,0,0,0h0.9c0.5,0,0.9-0.4,0.9-0.8s-0.4-0.9-0.8-0.9c0,0,0,0-0.1,0h-0.9
	C27.4,32.5,27,32.9,27,33.4C27,33.4,27,33.4,27,33.4L27,33.4z M40,5.9V5H0v0.9c0,5.9,6,11.2,13.9,13v3.9C9.7,25,7,29.4,7,34.2
	c0,1.8,0.4,3.6,1.1,5.2h-3c-1.1,0-2.1,0.5-2.7,1.4c-0.6,0.9-0.8,2-0.4,3l2.5,6.7h4.1c-0.4,1-1.4,1.7-2.4,1.7c-0.5,0-0.9,0.4-0.9,0.8
	S5.6,54,6,54c0,0,0,0,0.1,0c2.1,0,3.8-1.4,4.3-3.4h20.2c0.4,2,2.2,3.4,4.3,3.4c0.5,0,0.9-0.4,0.9-0.8s-0.4-0.9-0.8-0.9
	c0,0,0,0-0.1,0c-1.1,0-2.1-0.7-2.4-1.7h4.1l2.5-6.7c0.4-1,0.2-2.2-0.4-3c-0.6-0.9-1.7-1.4-2.7-1.4h-3.9c0.7-1.6,1.1-3.4,1.1-5.2
	c0-4.8-2.7-9.1-6.9-11.4v-3.9C34,17,40,11.7,40,5.9z M1.8,6.7h36.4c-0.6,4.4-5.6,8.9-12.6,10.5L25,17.4c-0.7,0.1-1.4,0.3-2.1,0.3
	c-0.2,0-0.4,0.1-0.7,0.1c-0.3,0-0.5,0-0.8,0.1c-0.4,0-0.8,0-1.2,0c-0.2,0-0.4,0-0.6,0c-0.4,0-0.8,0-1.2,0c-0.3,0-0.5,0-0.8-0.1
	c-0.2,0-0.4,0-0.7-0.1c-0.7-0.1-1.4-0.2-2.1-0.3l-0.6-0.1C7.3,15.6,2.4,11.1,1.8,6.7z M30.9,41.1h4.8c0.5,0,1,0.3,1.3,0.7
	c0.3,0.4,0.4,1,0.2,1.5l-2.1,5.6H5.6l-2.1-5.6c-0.2-0.5-0.1-1,0.2-1.5c0.3-0.4,0.8-0.7,1.3-0.7H9c0,0,0,0,0.1,0.1
	c0.1,0.2,0.2,0.3,0.3,0.5s0.2,0.3,0.3,0.4c0.2,0.2,0.4,0.4,0.6,0.7c0.1,0.1,0.2,0.3,0.4,0.4c0.1,0.1,0.3,0.3,0.4,0.4
	c0.1,0.1,0.2,0.2,0.3,0.3c0.3,0.2,0.6,0.5,0.8,0.7c0.1,0.1,0.2,0.1,0.2,0.2c0.2,0.1,0.4,0.3,0.6,0.4c0.1,0,0.1,0.1,0.2,0.1
	c0.4,0.2,0.7,0.4,1.1,0.6c0.1,0,0.2,0.1,0.3,0.1c0.2,0.1,0.4,0.2,0.6,0.3c0.1,0,0.2,0.1,0.3,0.1c0.3,0.1,0.6,0.2,1,0.3
	c0.2,0.1,0.4,0.1,0.6,0.1c0.2,0,0.3,0.1,0.4,0.1c0.3,0.1,0.7,0.1,1,0.2c0.1,0,0.2,0,0.3,0c0.4,0,0.8,0.1,1.2,0.1s0.8,0,1.2-0.1
	c0.1,0,0.2,0,0.3,0c0.3,0,0.7-0.1,1-0.2c0.2,0,0.3-0.1,0.4-0.1c0.2,0,0.4-0.1,0.6-0.1c0.3-0.1,0.7-0.2,1-0.3c0.1,0,0.2-0.1,0.3-0.1
	c0.2-0.1,0.4-0.2,0.6-0.3c0.1,0,0.2-0.1,0.3-0.1c0.4-0.2,0.8-0.4,1.1-0.6L27,45c0.2-0.1,0.4-0.3,0.6-0.4c0.1-0.1,0.2-0.1,0.2-0.2
	c0.3-0.2,0.6-0.4,0.8-0.7c0.1-0.1,0.2-0.2,0.3-0.3c0.1-0.1,0.3-0.3,0.4-0.4c0.1-0.1,0.2-0.3,0.4-0.4c0.2-0.2,0.4-0.4,0.6-0.7
	c0.1-0.1,0.2-0.3,0.3-0.4S30.8,41.3,30.9,41.1C30.9,41.2,30.9,41.1,30.9,41.1L30.9,41.1z M31.3,34.2c0,1.8-0.5,3.7-1.3,5.3l-0.1,0.2
	c-0.1,0.1-0.1,0.2-0.2,0.4c-0.2,0.3-0.4,0.6-0.6,0.8c-0.1,0.1-0.1,0.2-0.2,0.2c-0.1,0.2-0.2,0.3-0.4,0.4c-0.1,0.1-0.1,0.1-0.2,0.2
	c-0.3,0.3-0.5,0.5-0.8,0.8c0,0-0.1,0.1-0.1,0.1c-0.2,0.1-0.3,0.3-0.5,0.4c0,0-0.1,0.1-0.1,0.1c-0.5,0.4-1.1,0.7-1.7,1
	c-0.1,0-0.1,0-0.2,0.1c-0.3,0.2-0.7,0.3-1.1,0.4c-0.1,0-0.1,0.1-0.2,0.1c-0.2,0.1-0.3,0.1-0.5,0.2S22.7,45,22.6,45s-0.3,0.1-0.5,0.1
	c-0.3,0.1-0.5,0.1-0.8,0.1c-0.1,0-0.2,0-0.3,0c-0.3,0-0.7,0-1,0s-0.7,0-1,0c-0.1,0-0.2,0-0.3,0c-0.3,0-0.6-0.1-0.8-0.1
	c-0.2,0-0.3-0.1-0.5-0.1s-0.3-0.1-0.5-0.1s-0.3-0.1-0.5-0.2c-0.1,0-0.1-0.1-0.2-0.1c-0.4-0.1-0.7-0.3-1.1-0.4c-0.1,0-0.1,0-0.2-0.1
	c-0.6-0.3-1.2-0.6-1.7-1L13.1,43c-0.2-0.1-0.3-0.3-0.5-0.4l-0.1-0.1c-0.3-0.3-0.6-0.5-0.8-0.8c-0.1-0.1-0.1-0.1-0.2-0.2
	c-0.1-0.1-0.3-0.3-0.4-0.4c-0.1-0.1-0.1-0.2-0.2-0.2c-0.2-0.3-0.4-0.6-0.6-0.8c-0.1-0.1-0.2-0.2-0.2-0.4L10,39.5
	c-0.9-1.6-1.4-3.4-1.3-5.3c0-4.3,2.6-8.3,6.5-10.1c0.4-0.2,0.7-0.3,1.1-0.4l0,0c2-0.7,4.1-0.8,6.1-0.3l0,0c0.4,0.1,0.8,0.2,1.2,0.3
	c0,0,0,0,0.1,0c0.4,0.1,0.7,0.3,1.1,0.4C28.7,26,31.2,29.9,31.3,34.2L31.3,34.2z M24.4,22.1c0,0-0.1,0-0.1,0
	c-0.2-0.1-0.5-0.2-0.8-0.2c-0.2,0-0.3-0.1-0.5-0.1c-0.2,0-0.4-0.1-0.6-0.1c-0.2,0-0.5-0.1-0.7-0.1c-0.2,0-0.3,0-0.5-0.1
	c-0.4,0-0.8-0.1-1.2-0.1s-0.8,0-1.2,0.1c-0.2,0-0.3,0-0.5,0.1c-0.2,0-0.5,0.1-0.7,0.1c-0.2,0-0.4,0.1-0.6,0.1
	c-0.2,0-0.3,0.1-0.5,0.1C16.3,21.9,16,22,15.8,22c0,0-0.1,0-0.1,0v-2.8c0.7,0.1,1.4,0.2,2.1,0.3h0.1c0.7,0.1,1.4,0.1,2.2,0.1
	s1.4,0,2.2-0.1h0.1c0.7-0.1,1.4-0.2,2.1-0.3L24.4,22.1L24.4,22.1z M19.1,15.3L19.1,15.3c0.5,0,0.9-0.4,0.9-0.9
	c0-0.5-0.4-0.9-0.9-0.9c0,0,0,0,0,0h0c-2,0-4-0.3-5.9-1c-0.4-0.2-0.9,0.1-1.1,0.5c-0.2,0.4,0.1,0.9,0.5,1.1c0,0,0,0,0,0
	C14.7,15,16.9,15.3,19.1,15.3L19.1,15.3z M9.6,9.3c0-0.5-0.4-0.8-0.9-0.8c-0.5,0-0.8,0.4-0.8,0.9c0,0,0,0,0,0
	c0.1,1.2,0.6,2.3,1.6,3.1c0.2,0.1,0.4,0.2,0.6,0.2c0.2,0,0.5-0.1,0.7-0.3c0.3-0.3,0.3-0.9-0.1-1.2c0,0,0,0,0,0
	C10,10.7,9.6,10,9.6,9.3L9.6,9.3z"/>
</svg>
